<?xml version="1.0" encoding="UTF-8" standalone="no"?><svg xmlns="http://www.w3.org/2000/svg" xmlns:xlink="http://www.w3.org/1999/xlink" clip-rule="evenodd" stroke-miterlimit="10" viewBox="0 0 1024 768"><desc>SVG generated by Keynote</desc><defs></defs><g transform="matrix(1.00, 0.00, -0.00, -1.00, 0.0, 768.0)"><g><clipPath id="clip0x6080004b6a40"><path d="M 0.0 768.0 L 1024.0 768.0 L 1024.0 0.0 L 0.0 0.0 Z M 0.0 768.0 "></path></clipPath><g clip-path="url(#clip0x6080004b6a40)"><image xlink:href="../../A458083D-D69B-45C4-902F-6A2AFF5FFDFF/assets/C69F8A4BB357ABB1A0F95B8BFBB7E603.jpeg" width="2048.00" height="1536.00" transform="matrix(0.50, 0.00, -0.00, -0.50, 0.0, 768.0)"></image></g></g><text xml:space="preserve" font-family="Helvetica-Light,Helvetica" font-size="80.0" fill="#FEFFFF" transform="matrix(1.00, 0.00, -0.00, -1.00, 294.1, 622.4)">c</text><text xml:space="preserve" font-family="Helvetica-Light,Helvetica" font-size="80.0" fill="#FEFFFF" transform="matrix(1.00, 0.00, -0.00, -1.00, 338.6, 622.4)">o</text><text xml:space="preserve" font-family="Helvetica-Light,Helvetica" font-size="80.0" fill="#FEFFFF" transform="matrix(1.00, 0.00, -0.00, -1.00, 383.1, 622.4)">n</text><text xml:space="preserve" font-family="Helvetica-Light,Helvetica" font-size="80.0" fill="#FEFFFF" transform="matrix(1.00, 0.00, -0.00, -1.00, 427.6, 622.4)">t</text><text xml:space="preserve" font-family="Helvetica-Light,Helvetica" font-size="80.0" fill="#FEFFFF" transform="matrix(1.00, 0.00, -0.00, -1.00, 449.8, 622.4)">i</text><text xml:space="preserve" font-family="Helvetica-Light,Helvetica" font-size="80.0" fill="#FEFFFF" transform="matrix(1.00, 0.00, -0.00, -1.00, 467.6, 622.4)">n</text><text xml:space="preserve" font-family="Helvetica-Light,Helvetica" font-size="80.0" fill="#FEFFFF" transform="matrix(1.00, 0.00, -0.00, -1.00, 512.0, 622.4)">u</text><text xml:space="preserve" font-family="Helvetica-Light,Helvetica" font-size="80.0" fill="#FEFFFF" transform="matrix(1.00, 0.00, -0.00, -1.00, 556.5, 622.4)">e</text><text xml:space="preserve" font-family="Helvetica-Light,Helvetica" font-size="80.0" fill="#FEFFFF" transform="matrix(1.00, 0.00, -0.00, -1.00, 601.0, 622.4)">d</text><text xml:space="preserve" font-family="Helvetica-Light,Helvetica" font-size="80.0" fill="#FEFFFF" transform="matrix(1.00, 0.00, -0.00, -1.00, 649.9, 622.4)">…</text><text xml:space="preserve" font-family="Helvetica-Light,Helvetica" font-size="25.9" fill="#FEFFFF" transform="matrix(1.00, 0.00, -0.00, -1.00, 94.9, 528.0)">•</text><text xml:space="preserve" font-family="Helvetica-Light,Helvetica" font-size="34.6" fill="#FEFFFF" transform="matrix(1.00, 0.00, -0.00, -1.00, 127.7, 524.5)">U</text><text xml:space="preserve" font-family="Helvetica-Light,Helvetica" font-size="34.6" fill="#FEFFFF" transform="matrix(1.00, 0.00, -0.00, -1.00, 152.6, 524.5)">s</text><text xml:space="preserve" font-family="Helvetica-Light,Helvetica" font-size="34.6" fill="#FEFFFF" transform="matrix(1.00, 0.00, -0.00, -1.00, 169.9, 524.5)">e</text><text xml:space="preserve" font-family="Helvetica-Light,Helvetica" font-size="34.6" fill="#FEFFFF" transform="matrix(1.00, 0.00, -0.00, -1.00, 189.2, 524.5)"> </text><text xml:space="preserve" font-family="Helvetica-Light,Helvetica" font-size="34.6" fill="#FEFFFF" transform="matrix(1.00, 0.00, -0.00, -1.00, 198.8, 524.5)">o</text><text xml:space="preserve" font-family="Helvetica-Light,Helvetica" font-size="34.6" fill="#FEFFFF" transform="matrix(1.00, 0.00, -0.00, -1.00, 218.0, 524.5)">f</text><text xml:space="preserve" font-family="Helvetica-Light,Helvetica" font-size="34.6" fill="#FEFFFF" transform="matrix(1.00, 0.00, -0.00, -1.00, 227.6, 524.5)"> </text><text xml:space="preserve" font-family="Helvetica-Light,Helvetica" font-size="34.6" fill="#FEFFFF" transform="matrix(1.00, 0.00, -0.00, -1.00, 237.2, 524.5)">i</text><text xml:space="preserve" font-family="Helvetica-Light,Helvetica" font-size="34.6" fill="#FEFFFF" transform="matrix(1.00, 0.00, -0.00, -1.00, 244.9, 524.5)">m</text><text xml:space="preserve" font-family="Helvetica-Light,Helvetica" font-size="34.6" fill="#FEFFFF" transform="matrix(1.00, 0.00, -0.00, -1.00, 273.7, 524.5)">m</text><text xml:space="preserve" font-family="Helvetica-Light,Helvetica" font-size="34.6" fill="#FEFFFF" transform="matrix(1.00, 0.00, -0.00, -1.00, 302.5, 524.5)">a</text><text xml:space="preserve" font-family="Helvetica-Light,Helvetica" font-size="34.6" fill="#FEFFFF" transform="matrix(1.00, 0.00, -0.00, -1.00, 321.7, 524.5)">t</text><text xml:space="preserve" font-family="Helvetica-Light,Helvetica" font-size="34.6" fill="#FEFFFF" transform="matrix(1.00, 0.00, -0.00, -1.00, 331.3, 524.5)">u</text><text xml:space="preserve" font-family="Helvetica-Light,Helvetica" font-size="34.6" fill="#FEFFFF" transform="matrix(1.00, 0.00, -0.00, -1.00, 350.6, 524.5)">r</text><text xml:space="preserve" font-family="Helvetica-Light,Helvetica" font-size="34.6" fill="#FEFFFF" transform="matrix(1.00, 0.00, -0.00, -1.00, 361.5, 524.5)">e</text><text xml:space="preserve" font-family="Helvetica-Light,Helvetica" font-size="34.6" fill="#FEFFFF" transform="matrix(1.00, 0.00, -0.00, -1.00, 380.7, 524.5)"> </text><text xml:space="preserve" font-family="Helvetica-Light,Helvetica" font-size="34.6" fill="#FEFFFF" transform="matrix(1.00, 0.00, -0.00, -1.00, 390.3, 524.5)">t</text><text xml:space="preserve" font-family="Helvetica-Light,Helvetica" font-size="34.6" fill="#FEFFFF" transform="matrix(1.00, 0.00, -0.00, -1.00, 399.9, 524.5)">e</text><text xml:space="preserve" font-family="Helvetica-Light,Helvetica" font-size="34.6" fill="#FEFFFF" transform="matrix(1.00, 0.00, -0.00, -1.00, 419.1, 524.5)">c</text><text xml:space="preserve" font-family="Helvetica-Light,Helvetica" font-size="34.6" fill="#FEFFFF" transform="matrix(1.00, 0.00, -0.00, -1.00, 438.4, 524.5)">h</text><text xml:space="preserve" font-family="Helvetica-Light,Helvetica" font-size="34.6" fill="#FEFFFF" transform="matrix(1.00, 0.00, -0.00, -1.00, 457.6, 524.5)">n</text><text xml:space="preserve" font-family="Helvetica-Light,Helvetica" font-size="34.6" fill="#FEFFFF" transform="matrix(1.00, 0.00, -0.00, -1.00, 476.8, 524.5)">o</text><text xml:space="preserve" font-family="Helvetica-Light,Helvetica" font-size="34.6" fill="#FEFFFF" transform="matrix(1.00, 0.00, -0.00, -1.00, 496.0, 524.5)">l</text><text xml:space="preserve" font-family="Helvetica-Light,Helvetica" font-size="34.6" fill="#FEFFFF" transform="matrix(1.00, 0.00, -0.00, -1.00, 503.7, 524.5)">o</text><text xml:space="preserve" font-family="Helvetica-Light,Helvetica" font-size="34.6" fill="#FEFFFF" transform="matrix(1.00, 0.00, -0.00, -1.00, 523.0, 524.5)">g</text><text xml:space="preserve" font-family="Helvetica-Light,Helvetica" font-size="34.6" fill="#FEFFFF" transform="matrix(1.00, 0.00, -0.00, -1.00, 544.1, 524.5)">y</text><text xml:space="preserve" font-family="Helvetica-Light,Helvetica" font-size="34.6" fill="#FEFFFF" transform="matrix(1.00, 0.00, -0.00, -1.00, 561.4, 524.5)"> </text><text xml:space="preserve" font-family="Helvetica-Light,Helvetica" font-size="34.6" fill="#FEFFFF" transform="matrix(1.00, 0.00, -0.00, -1.00, 571.0, 524.5)">(</text><text xml:space="preserve" font-family="Helvetica-Light,Helvetica" font-size="34.6" fill="#FEFFFF" transform="matrix(1.00, 0.00, -0.00, -1.00, 582.5, 524.5)">D</text><text xml:space="preserve" font-family="Helvetica-Light,Helvetica" font-size="34.6" fill="#FEFFFF" transform="matrix(1.00, 0.00, -0.00, -1.00, 607.5, 524.5)">e</text><text xml:space="preserve" font-family="Helvetica-Light,Helvetica" font-size="34.6" fill="#FEFFFF" transform="matrix(1.00, 0.00, -0.00, -1.00, 626.7, 524.5)">s</text><text xml:space="preserve" font-family="Helvetica-Light,Helvetica" font-size="34.6" fill="#FEFFFF" transform="matrix(1.00, 0.00, -0.00, -1.00, 644.0, 524.5)">i</text><text xml:space="preserve" font-family="Helvetica-Light,Helvetica" font-size="34.6" fill="#FEFFFF" transform="matrix(1.00, 0.00, -0.00, -1.00, 651.7, 524.5)">g</text><text xml:space="preserve" font-family="Helvetica-Light,Helvetica" font-size="34.6" fill="#FEFFFF" transform="matrix(1.00, 0.00, -0.00, -1.00, 672.8, 524.5)">n</text><text xml:space="preserve" font-family="Helvetica-Light,Helvetica" font-size="34.6" fill="#FEFFFF" transform="matrix(1.00, 0.00, -0.00, -1.00, 692.0, 524.5)">)</text><text xml:space="preserve" font-family="Helvetica-Light,Helvetica" font-size="34.6" fill="#FEFFFF" transform="matrix(1.00, 0.00, -0.00, -1.00, 703.5, 524.5)"> </text><text xml:space="preserve" font-family="Helvetica-Light,Helvetica" font-size="25.9" fill="#FEFFFF" transform="matrix(1.00, 0.00, -0.00, -1.00, 94.9, 447.7)">•</text><text xml:space="preserve" font-family="Helvetica-Light,Helvetica" font-size="34.6" fill="#FEFFFF" transform="matrix(1.00, 0.00, -0.00, -1.00, 127.7, 444.2)">I</text><text xml:space="preserve" font-family="Helvetica-Light,Helvetica" font-size="34.6" fill="#FEFFFF" transform="matrix(1.00, 0.00, -0.00, -1.00, 137.3, 444.2)">n</text><text xml:space="preserve" font-family="Helvetica-Light,Helvetica" font-size="34.6" fill="#FEFFFF" transform="matrix(1.00, 0.00, -0.00, -1.00, 156.5, 444.2)">a</text><text xml:space="preserve" font-family="Helvetica-Light,Helvetica" font-size="34.6" fill="#FEFFFF" transform="matrix(1.00, 0.00, -0.00, -1.00, 175.7, 444.2)">b</text><text xml:space="preserve" font-family="Helvetica-Light,Helvetica" font-size="34.6" fill="#FEFFFF" transform="matrix(1.00, 0.00, -0.00, -1.00, 196.9, 444.2)">i</text><text xml:space="preserve" font-family="Helvetica-Light,Helvetica" font-size="34.6" fill="#FEFFFF" transform="matrix(1.00, 0.00, -0.00, -1.00, 204.5, 444.2)">l</text><text xml:space="preserve" font-family="Helvetica-Light,Helvetica" font-size="34.6" fill="#FEFFFF" transform="matrix(1.00, 0.00, -0.00, -1.00, 212.2, 444.2)">i</text><text xml:space="preserve" font-family="Helvetica-Light,Helvetica" font-size="34.6" fill="#FEFFFF" transform="matrix(1.00, 0.00, -0.00, -1.00, 219.9, 444.2)">t</text><text xml:space="preserve" font-family="Helvetica-Light,Helvetica" font-size="34.6" fill="#FEFFFF" transform="matrix(1.00, 0.00, -0.00, -1.00, 229.5, 444.2)">y</text><text xml:space="preserve" font-family="Helvetica-Light,Helvetica" font-size="34.6" fill="#FEFFFF" transform="matrix(1.00, 0.00, -0.00, -1.00, 246.8, 444.2)"> </text><text xml:space="preserve" font-family="Helvetica-Light,Helvetica" font-size="34.6" fill="#FEFFFF" transform="matrix(1.00, 0.00, -0.00, -1.00, 256.4, 444.2)">t</text><text xml:space="preserve" font-family="Helvetica-Light,Helvetica" font-size="34.6" fill="#FEFFFF" transform="matrix(1.00, 0.00, -0.00, -1.00, 266.0, 444.2)">o</text><text xml:space="preserve" font-family="Helvetica-Light,Helvetica" font-size="34.6" fill="#FEFFFF" transform="matrix(1.00, 0.00, -0.00, -1.00, 285.2, 444.2)"> </text><text xml:space="preserve" font-family="Helvetica-Light,Helvetica" font-size="34.6" fill="#FEFFFF" transform="matrix(1.00, 0.00, -0.00, -1.00, 294.9, 444.2)">h</text><text xml:space="preserve" font-family="Helvetica-Light,Helvetica" font-size="34.6" fill="#FEFFFF" transform="matrix(1.00, 0.00, -0.00, -1.00, 314.1, 444.2)">a</text><text xml:space="preserve" font-family="Helvetica-Light,Helvetica" font-size="34.6" fill="#FEFFFF" transform="matrix(1.00, 0.00, -0.00, -1.00, 333.3, 444.2)">n</text><text xml:space="preserve" font-family="Helvetica-Light,Helvetica" font-size="34.6" fill="#FEFFFF" transform="matrix(1.00, 0.00, -0.00, -1.00, 352.5, 444.2)">d</text><text xml:space="preserve" font-family="Helvetica-Light,Helvetica" font-size="34.6" fill="#FEFFFF" transform="matrix(1.00, 0.00, -0.00, -1.00, 373.7, 444.2)">l</text><text xml:space="preserve" font-family="Helvetica-Light,Helvetica" font-size="34.6" fill="#FEFFFF" transform="matrix(1.00, 0.00, -0.00, -1.00, 381.3, 444.2)">e</text><text xml:space="preserve" font-family="Helvetica-Light,Helvetica" font-size="34.6" fill="#FEFFFF" transform="matrix(1.00, 0.00, -0.00, -1.00, 400.6, 444.2)"> </text><text xml:space="preserve" font-family="Helvetica-Light,Helvetica" font-size="34.6" fill="#FEFFFF" transform="matrix(1.00, 0.00, -0.00, -1.00, 410.2, 444.2)">t</text><text xml:space="preserve" font-family="Helvetica-Light,Helvetica" font-size="34.6" fill="#FEFFFF" transform="matrix(1.00, 0.00, -0.00, -1.00, 419.8, 444.2)">h</text><text xml:space="preserve" font-family="Helvetica-Light,Helvetica" font-size="34.6" fill="#FEFFFF" transform="matrix(1.00, 0.00, -0.00, -1.00, 439.0, 444.2)">e</text><text xml:space="preserve" font-family="Helvetica-Light,Helvetica" font-size="34.6" fill="#FEFFFF" transform="matrix(1.00, 0.00, -0.00, -1.00, 458.3, 444.2)"> </text><text xml:space="preserve" font-family="Helvetica-Light,Helvetica" font-size="34.6" fill="#FEFFFF" transform="matrix(1.00, 0.00, -0.00, -1.00, 467.9, 444.2)">p</text><text xml:space="preserve" font-family="Helvetica-Light,Helvetica" font-size="34.6" fill="#FEFFFF" transform="matrix(1.00, 0.00, -0.00, -1.00, 489.0, 444.2)">r</text><text xml:space="preserve" font-family="Helvetica-Light,Helvetica" font-size="34.6" fill="#FEFFFF" transform="matrix(1.00, 0.00, -0.00, -1.00, 499.9, 444.2)">o</text><text xml:space="preserve" font-family="Helvetica-Light,Helvetica" font-size="34.6" fill="#FEFFFF" transform="matrix(1.00, 0.00, -0.00, -1.00, 519.1, 444.2)">j</text><text xml:space="preserve" font-family="Helvetica-Light,Helvetica" font-size="34.6" fill="#FEFFFF" transform="matrix(1.00, 0.00, -0.00, -1.00, 526.8, 444.2)">e</text><text xml:space="preserve" font-family="Helvetica-Light,Helvetica" font-size="34.6" fill="#FEFFFF" transform="matrix(1.00, 0.00, -0.00, -1.00, 546.0, 444.2)">c</text><text xml:space="preserve" font-family="Helvetica-Light,Helvetica" font-size="34.6" fill="#FEFFFF" transform="matrix(1.00, 0.00, -0.00, -1.00, 565.2, 444.2)">t</text><text xml:space="preserve" font-family="Helvetica-Light,Helvetica" font-size="34.6" fill="#FEFFFF" transform="matrix(1.00, 0.00, -0.00, -1.00, 574.9, 444.2)">'</text><text xml:space="preserve" font-family="Helvetica-Light,Helvetica" font-size="34.6" fill="#FEFFFF" transform="matrix(1.00, 0.00, -0.00, -1.00, 582.5, 444.2)">s</text><text xml:space="preserve" font-family="Helvetica-Light,Helvetica" font-size="34.6" fill="#FEFFFF" transform="matrix(1.00, 0.00, -0.00, -1.00, 599.8, 444.2)"> </text><text xml:space="preserve" font-family="Helvetica-Light,Helvetica" font-size="34.6" fill="#FEFFFF" transform="matrix(1.00, 0.00, -0.00, -1.00, 609.4, 444.2)">c</text><text xml:space="preserve" font-family="Helvetica-Light,Helvetica" font-size="34.6" fill="#FEFFFF" transform="matrix(1.00, 0.00, -0.00, -1.00, 628.7, 444.2)">o</text><text xml:space="preserve" font-family="Helvetica-Light,Helvetica" font-size="34.6" fill="#FEFFFF" transform="matrix(1.00, 0.00, -0.00, -1.00, 647.9, 444.2)">m</text><text xml:space="preserve" font-family="Helvetica-Light,Helvetica" font-size="34.6" fill="#FEFFFF" transform="matrix(1.00, 0.00, -0.00, -1.00, 676.7, 444.2)">p</text><text xml:space="preserve" font-family="Helvetica-Light,Helvetica" font-size="34.6" fill="#FEFFFF" transform="matrix(1.00, 0.00, -0.00, -1.00, 697.8, 444.2)">l</text><text xml:space="preserve" font-family="Helvetica-Light,Helvetica" font-size="34.6" fill="#FEFFFF" transform="matrix(1.00, 0.00, -0.00, -1.00, 705.5, 444.2)">e</text><text xml:space="preserve" font-family="Helvetica-Light,Helvetica" font-size="34.6" fill="#FEFFFF" transform="matrix(1.00, 0.00, -0.00, -1.00, 724.7, 444.2)">x</text><text xml:space="preserve" font-family="Helvetica-Light,Helvetica" font-size="34.6" fill="#FEFFFF" transform="matrix(1.00, 0.00, -0.00, -1.00, 742.0, 444.2)">i</text><text xml:space="preserve" font-family="Helvetica-Light,Helvetica" font-size="34.6" fill="#FEFFFF" transform="matrix(1.00, 0.00, -0.00, -1.00, 749.7, 444.2)">t</text><text xml:space="preserve" font-family="Helvetica-Light,Helvetica" font-size="34.6" fill="#FEFFFF" transform="matrix(1.00, 0.00, -0.00, -1.00, 759.3, 444.2)">y</text><text xml:space="preserve" font-family="Helvetica-Light,Helvetica" font-size="34.6" fill="#FEFFFF" transform="matrix(1.00, 0.00, -0.00, -1.00, 776.6, 444.2)"> </text><text xml:space="preserve" font-family="Helvetica-Light,Helvetica" font-size="34.6" fill="#FEFFFF" transform="matrix(1.00, 0.00, -0.00, -1.00, 127.7, 402.2)">(</text><text xml:space="preserve" font-family="Helvetica-Light,Helvetica" font-size="34.6" fill="#FEFFFF" transform="matrix(1.00, 0.00, -0.00, -1.00, 139.2, 402.2)">L</text><text xml:space="preserve" font-family="Helvetica-Light,Helvetica" font-size="34.6" fill="#FEFFFF" transform="matrix(1.00, 0.00, -0.00, -1.00, 158.4, 402.2)">e</text><text xml:space="preserve" font-family="Helvetica-Light,Helvetica" font-size="34.6" fill="#FEFFFF" transform="matrix(1.00, 0.00, -0.00, -1.00, 177.6, 402.2)">a</text><text xml:space="preserve" font-family="Helvetica-Light,Helvetica" font-size="34.6" fill="#FEFFFF" transform="matrix(1.00, 0.00, -0.00, -1.00, 196.9, 402.2)">d</text><text xml:space="preserve" font-family="Helvetica-Light,Helvetica" font-size="34.6" fill="#FEFFFF" transform="matrix(1.00, 0.00, -0.00, -1.00, 218.0, 402.2)">e</text><text xml:space="preserve" font-family="Helvetica-Light,Helvetica" font-size="34.6" fill="#FEFFFF" transform="matrix(1.00, 0.00, -0.00, -1.00, 237.2, 402.2)">r</text><text xml:space="preserve" font-family="Helvetica-Light,Helvetica" font-size="34.6" fill="#FEFFFF" transform="matrix(1.00, 0.00, -0.00, -1.00, 248.7, 402.2)">s</text><text xml:space="preserve" font-family="Helvetica-Light,Helvetica" font-size="34.6" fill="#FEFFFF" transform="matrix(1.00, 0.00, -0.00, -1.00, 266.0, 402.2)">h</text><text xml:space="preserve" font-family="Helvetica-Light,Helvetica" font-size="34.6" fill="#FEFFFF" transform="matrix(1.00, 0.00, -0.00, -1.00, 285.2, 402.2)">i</text><text xml:space="preserve" font-family="Helvetica-Light,Helvetica" font-size="34.6" fill="#FEFFFF" transform="matrix(1.00, 0.00, -0.00, -1.00, 292.9, 402.2)">p</text><text xml:space="preserve" font-family="Helvetica-Light,Helvetica" font-size="34.6" fill="#FEFFFF" transform="matrix(1.00, 0.00, -0.00, -1.00, 314.1, 402.2)">)</text><text xml:space="preserve" font-family="Helvetica-Light,Helvetica" font-size="34.6" fill="#FEFFFF" transform="matrix(1.00, 0.00, -0.00, -1.00, 325.6, 402.2)"> </text><text xml:space="preserve" font-family="Helvetica-Light,Helvetica" font-size="25.9" fill="#FEFFFF" transform="matrix(1.00, 0.00, -0.00, -1.00, 94.9, 325.5)">•</text><text xml:space="preserve" font-family="Helvetica-Light,Helvetica" font-size="34.6" fill="#FEFFFF" transform="matrix(1.00, 0.00, -0.00, -1.00, 127.7, 322.0)">P</text><text xml:space="preserve" font-family="Helvetica-Light,Helvetica" font-size="34.6" fill="#FEFFFF" transform="matrix(1.00, 0.00, -0.00, -1.00, 148.8, 322.0)">o</text><text xml:space="preserve" font-family="Helvetica-Light,Helvetica" font-size="34.6" fill="#FEFFFF" transform="matrix(1.00, 0.00, -0.00, -1.00, 168.0, 322.0)">o</text><text xml:space="preserve" font-family="Helvetica-Light,Helvetica" font-size="34.6" fill="#FEFFFF" transform="matrix(1.00, 0.00, -0.00, -1.00, 187.2, 322.0)">r</text><text xml:space="preserve" font-family="Helvetica-Light,Helvetica" font-size="34.6" fill="#FEFFFF" transform="matrix(1.00, 0.00, -0.00, -1.00, 198.8, 322.0)"> </text><text xml:space="preserve" font-family="Helvetica-Light,Helvetica" font-size="34.6" fill="#FEFFFF" transform="matrix(1.00, 0.00, -0.00, -1.00, 208.4, 322.0)">p</text><text xml:space="preserve" font-family="Helvetica-Light,Helvetica" font-size="34.6" fill="#FEFFFF" transform="matrix(1.00, 0.00, -0.00, -1.00, 229.5, 322.0)">r</text><text xml:space="preserve" font-family="Helvetica-Light,Helvetica" font-size="34.6" fill="#FEFFFF" transform="matrix(1.00, 0.00, -0.00, -1.00, 240.4, 322.0)">o</text><text xml:space="preserve" font-family="Helvetica-Light,Helvetica" font-size="34.6" fill="#FEFFFF" transform="matrix(1.00, 0.00, -0.00, -1.00, 259.6, 322.0)">j</text><text xml:space="preserve" font-family="Helvetica-Light,Helvetica" font-size="34.6" fill="#FEFFFF" transform="matrix(1.00, 0.00, -0.00, -1.00, 267.3, 322.0)">e</text><text xml:space="preserve" font-family="Helvetica-Light,Helvetica" font-size="34.6" fill="#FEFFFF" transform="matrix(1.00, 0.00, -0.00, -1.00, 286.5, 322.0)">c</text><text xml:space="preserve" font-family="Helvetica-Light,Helvetica" font-size="34.6" fill="#FEFFFF" transform="matrix(1.00, 0.00, -0.00, -1.00, 305.8, 322.0)">t</text><text xml:space="preserve" font-family="Helvetica-Light,Helvetica" font-size="34.6" fill="#FEFFFF" transform="matrix(1.00, 0.00, -0.00, -1.00, 315.4, 322.0)"> </text><text xml:space="preserve" font-family="Helvetica-Light,Helvetica" font-size="34.6" fill="#FEFFFF" transform="matrix(1.00, 0.00, -0.00, -1.00, 325.0, 322.0)">m</text><text xml:space="preserve" font-family="Helvetica-Light,Helvetica" font-size="34.6" fill="#FEFFFF" transform="matrix(1.00, 0.00, -0.00, -1.00, 353.8, 322.0)">a</text><text xml:space="preserve" font-family="Helvetica-Light,Helvetica" font-size="34.6" fill="#FEFFFF" transform="matrix(1.00, 0.00, -0.00, -1.00, 373.0, 322.0)">n</text><text xml:space="preserve" font-family="Helvetica-Light,Helvetica" font-size="34.6" fill="#FEFFFF" transform="matrix(1.00, 0.00, -0.00, -1.00, 392.2, 322.0)">a</text><text xml:space="preserve" font-family="Helvetica-Light,Helvetica" font-size="34.6" fill="#FEFFFF" transform="matrix(1.00, 0.00, -0.00, -1.00, 411.5, 322.0)">g</text><text xml:space="preserve" font-family="Helvetica-Light,Helvetica" font-size="34.6" fill="#FEFFFF" transform="matrix(1.00, 0.00, -0.00, -1.00, 432.6, 322.0)">e</text><text xml:space="preserve" font-family="Helvetica-Light,Helvetica" font-size="34.6" fill="#FEFFFF" transform="matrix(1.00, 0.00, -0.00, -1.00, 451.8, 322.0)">m</text><text xml:space="preserve" font-family="Helvetica-Light,Helvetica" font-size="34.6" fill="#FEFFFF" transform="matrix(1.00, 0.00, -0.00, -1.00, 480.6, 322.0)">e</text><text xml:space="preserve" font-family="Helvetica-Light,Helvetica" font-size="34.6" fill="#FEFFFF" transform="matrix(1.00, 0.00, -0.00, -1.00, 499.9, 322.0)">n</text><text xml:space="preserve" font-family="Helvetica-Light,Helvetica" font-size="34.6" fill="#FEFFFF" transform="matrix(1.00, 0.00, -0.00, -1.00, 519.1, 322.0)">t</text><text xml:space="preserve" font-family="Helvetica-Light,Helvetica" font-size="34.6" fill="#FEFFFF" transform="matrix(1.00, 0.00, -0.00, -1.00, 528.7, 322.0)"> </text><text xml:space="preserve" font-family="Helvetica-Light,Helvetica" font-size="34.6" fill="#FEFFFF" transform="matrix(1.00, 0.00, -0.00, -1.00, 538.3, 322.0)">(</text><text xml:space="preserve" font-family="Helvetica-Light,Helvetica" font-size="34.6" fill="#FEFFFF" transform="matrix(1.00, 0.00, -0.00, -1.00, 549.8, 322.0)">L</text><text xml:space="preserve" font-family="Helvetica-Light,Helvetica" font-size="34.6" fill="#FEFFFF" transform="matrix(1.00, 0.00, -0.00, -1.00, 569.0, 322.0)">e</text><text xml:space="preserve" font-family="Helvetica-Light,Helvetica" font-size="34.6" fill="#FEFFFF" transform="matrix(1.00, 0.00, -0.00, -1.00, 588.3, 322.0)">a</text><text xml:space="preserve" font-family="Helvetica-Light,Helvetica" font-size="34.6" fill="#FEFFFF" transform="matrix(1.00, 0.00, -0.00, -1.00, 607.5, 322.0)">d</text><text xml:space="preserve" font-family="Helvetica-Light,Helvetica" font-size="34.6" fill="#FEFFFF" transform="matrix(1.00, 0.00, -0.00, -1.00, 628.6, 322.0)">e</text><text xml:space="preserve" font-family="Helvetica-Light,Helvetica" font-size="34.6" fill="#FEFFFF" transform="matrix(1.00, 0.00, -0.00, -1.00, 647.9, 322.0)">r</text><text xml:space="preserve" font-family="Helvetica-Light,Helvetica" font-size="34.6" fill="#FEFFFF" transform="matrix(1.00, 0.00, -0.00, -1.00, 659.4, 322.0)">s</text><text xml:space="preserve" font-family="Helvetica-Light,Helvetica" font-size="34.6" fill="#FEFFFF" transform="matrix(1.00, 0.00, -0.00, -1.00, 676.7, 322.0)">h</text><text xml:space="preserve" font-family="Helvetica-Light,Helvetica" font-size="34.6" fill="#FEFFFF" transform="matrix(1.00, 0.00, -0.00, -1.00, 695.9, 322.0)">i</text><text xml:space="preserve" font-family="Helvetica-Light,Helvetica" font-size="34.6" fill="#FEFFFF" transform="matrix(1.00, 0.00, -0.00, -1.00, 703.6, 322.0)">p</text><text xml:space="preserve" font-family="Helvetica-Light,Helvetica" font-size="34.6" fill="#FEFFFF" transform="matrix(1.00, 0.00, -0.00, -1.00, 724.7, 322.0)">)</text><text xml:space="preserve" font-family="Helvetica-Light,Helvetica" font-size="34.6" fill="#FEFFFF" transform="matrix(1.00, 0.00, -0.00, -1.00, 736.2, 322.0)"> </text><text xml:space="preserve" font-family="Helvetica-Light,Helvetica" font-size="25.9" fill="#FEFFFF" transform="matrix(1.00, 0.00, -0.00, -1.00, 94.9, 245.3)">•</text><text xml:space="preserve" font-family="Helvetica-Light,Helvetica" font-size="34.6" fill="#FEFFFF" transform="matrix(1.00, 0.00, -0.00, -1.00, 127.7, 241.8)">S</text><text xml:space="preserve" font-family="Helvetica-Light,Helvetica" font-size="34.6" fill="#FEFFFF" transform="matrix(1.00, 0.00, -0.00, -1.00, 148.8, 241.8)">t</text><text xml:space="preserve" font-family="Helvetica-Light,Helvetica" font-size="34.6" fill="#FEFFFF" transform="matrix(1.00, 0.00, -0.00, -1.00, 158.4, 241.8)">a</text><text xml:space="preserve" font-family="Helvetica-Light,Helvetica" font-size="34.6" fill="#FEFFFF" transform="matrix(1.00, 0.00, -0.00, -1.00, 177.6, 241.8)">k</text><text xml:space="preserve" font-family="Helvetica-Light,Helvetica" font-size="34.6" fill="#FEFFFF" transform="matrix(1.00, 0.00, -0.00, -1.00, 194.9, 241.8)">e</text><text xml:space="preserve" font-family="Helvetica-Light,Helvetica" font-size="34.6" fill="#FEFFFF" transform="matrix(1.00, 0.00, -0.00, -1.00, 214.2, 241.8)">h</text><text xml:space="preserve" font-family="Helvetica-Light,Helvetica" font-size="34.6" fill="#FEFFFF" transform="matrix(1.00, 0.00, -0.00, -1.00, 233.4, 241.8)">o</text><text xml:space="preserve" font-family="Helvetica-Light,Helvetica" font-size="34.6" fill="#FEFFFF" transform="matrix(1.00, 0.00, -0.00, -1.00, 252.6, 241.8)">l</text><text xml:space="preserve" font-family="Helvetica-Light,Helvetica" font-size="34.6" fill="#FEFFFF" transform="matrix(1.00, 0.00, -0.00, -1.00, 260.3, 241.8)">d</text><text xml:space="preserve" font-family="Helvetica-Light,Helvetica" font-size="34.6" fill="#FEFFFF" transform="matrix(1.00, 0.00, -0.00, -1.00, 281.4, 241.8)">e</text><text xml:space="preserve" font-family="Helvetica-Light,Helvetica" font-size="34.6" fill="#FEFFFF" transform="matrix(1.00, 0.00, -0.00, -1.00, 300.6, 241.8)">r</text><text xml:space="preserve" font-family="Helvetica-Light,Helvetica" font-size="34.6" fill="#FEFFFF" transform="matrix(1.00, 0.00, -0.00, -1.00, 312.2, 241.8)"> </text><text xml:space="preserve" font-family="Helvetica-Light,Helvetica" font-size="34.6" fill="#FEFFFF" transform="matrix(1.00, 0.00, -0.00, -1.00, 321.8, 241.8)">p</text><text xml:space="preserve" font-family="Helvetica-Light,Helvetica" font-size="34.6" fill="#FEFFFF" transform="matrix(1.00, 0.00, -0.00, -1.00, 342.9, 241.8)">o</text><text xml:space="preserve" font-family="Helvetica-Light,Helvetica" font-size="34.6" fill="#FEFFFF" transform="matrix(1.00, 0.00, -0.00, -1.00, 362.1, 241.8)">l</text><text xml:space="preserve" font-family="Helvetica-Light,Helvetica" font-size="34.6" fill="#FEFFFF" transform="matrix(1.00, 0.00, -0.00, -1.00, 369.8, 241.8)">i</text><text xml:space="preserve" font-family="Helvetica-Light,Helvetica" font-size="34.6" fill="#FEFFFF" transform="matrix(1.00, 0.00, -0.00, -1.00, 377.5, 241.8)">t</text><text xml:space="preserve" font-family="Helvetica-Light,Helvetica" font-size="34.6" fill="#FEFFFF" transform="matrix(1.00, 0.00, -0.00, -1.00, 387.1, 241.8)">i</text><text xml:space="preserve" font-family="Helvetica-Light,Helvetica" font-size="34.6" fill="#FEFFFF" transform="matrix(1.00, 0.00, -0.00, -1.00, 394.8, 241.8)">c</text><text xml:space="preserve" font-family="Helvetica-Light,Helvetica" font-size="34.6" fill="#FEFFFF" transform="matrix(1.00, 0.00, -0.00, -1.00, 414.0, 241.8)">s</text><text xml:space="preserve" font-family="Helvetica-Light,Helvetica" font-size="34.6" fill="#FEFFFF" transform="matrix(1.00, 0.00, -0.00, -1.00, 431.3, 241.8)"> </text><text xml:space="preserve" font-family="Helvetica-Light,Helvetica" font-size="34.6" fill="#FEFFFF" transform="matrix(1.00, 0.00, -0.00, -1.00, 440.9, 241.8)">(</text><text xml:space="preserve" font-family="Helvetica-Light,Helvetica" font-size="34.6" fill="#FEFFFF" transform="matrix(1.00, 0.00, -0.00, -1.00, 452.4, 241.8)">C</text><text xml:space="preserve" font-family="Helvetica-Light,Helvetica" font-size="34.6" fill="#FEFFFF" transform="matrix(1.00, 0.00, -0.00, -1.00, 477.4, 241.8)">o</text><text xml:space="preserve" font-family="Helvetica-Light,Helvetica" font-size="34.6" fill="#FEFFFF" transform="matrix(1.00, 0.00, -0.00, -1.00, 496.6, 241.8)">m</text><text xml:space="preserve" font-family="Helvetica-Light,Helvetica" font-size="34.6" fill="#FEFFFF" transform="matrix(1.00, 0.00, -0.00, -1.00, 525.4, 241.8)">m</text><text xml:space="preserve" font-family="Helvetica-Light,Helvetica" font-size="34.6" fill="#FEFFFF" transform="matrix(1.00, 0.00, -0.00, -1.00, 554.2, 241.8)">u</text><text xml:space="preserve" font-family="Helvetica-Light,Helvetica" font-size="34.6" fill="#FEFFFF" transform="matrix(1.00, 0.00, -0.00, -1.00, 573.4, 241.8)">n</text><text xml:space="preserve" font-family="Helvetica-Light,Helvetica" font-size="34.6" fill="#FEFFFF" transform="matrix(1.00, 0.00, -0.00, -1.00, 592.7, 241.8)">i</text><text xml:space="preserve" font-family="Helvetica-Light,Helvetica" font-size="34.6" fill="#FEFFFF" transform="matrix(1.00, 0.00, -0.00, -1.00, 600.3, 241.8)">c</text><text xml:space="preserve" font-family="Helvetica-Light,Helvetica" font-size="34.6" fill="#FEFFFF" transform="matrix(1.00, 0.00, -0.00, -1.00, 619.6, 241.8)">a</text><text xml:space="preserve" font-family="Helvetica-Light,Helvetica" font-size="34.6" fill="#FEFFFF" transform="matrix(1.00, 0.00, -0.00, -1.00, 638.8, 241.8)">t</text><text xml:space="preserve" font-family="Helvetica-Light,Helvetica" font-size="34.6" fill="#FEFFFF" transform="matrix(1.00, 0.00, -0.00, -1.00, 648.4, 241.8)">i</text><text xml:space="preserve" font-family="Helvetica-Light,Helvetica" font-size="34.6" fill="#FEFFFF" transform="matrix(1.00, 0.00, -0.00, -1.00, 656.1, 241.8)">o</text><text xml:space="preserve" font-family="Helvetica-Light,Helvetica" font-size="34.6" fill="#FEFFFF" transform="matrix(1.00, 0.00, -0.00, -1.00, 675.3, 241.8)">n</text><text xml:space="preserve" font-family="Helvetica-Light,Helvetica" font-size="34.6" fill="#FEFFFF" transform="matrix(1.00, 0.00, -0.00, -1.00, 694.5, 241.8)">)</text><text xml:space="preserve" font-family="Helvetica-Light,Helvetica" font-size="34.6" fill="#FEFFFF" transform="matrix(1.00, 0.00, -0.00, -1.00, 706.1, 241.8)"> </text><text xml:space="preserve" font-family="Helvetica-Light,Helvetica" font-size="25.9" fill="#FEFFFF" transform="matrix(1.00, 0.00, -0.00, -1.00, 94.9, 165.1)">•</text><text xml:space="preserve" font-family="Helvetica-Light,Helvetica" font-size="34.6" fill="#FEFFFF" transform="matrix(1.00, 0.00, -0.00, -1.00, 127.7, 161.6)">C</text><text xml:space="preserve" font-family="Helvetica-Light,Helvetica" font-size="34.6" fill="#FEFFFF" transform="matrix(1.00, 0.00, -0.00, -1.00, 152.6, 161.6)">o</text><text xml:space="preserve" font-family="Helvetica-Light,Helvetica" font-size="34.6" fill="#FEFFFF" transform="matrix(1.00, 0.00, -0.00, -1.00, 171.9, 161.6)">m</text><text xml:space="preserve" font-family="Helvetica-Light,Helvetica" font-size="34.6" fill="#FEFFFF" transform="matrix(1.00, 0.00, -0.00, -1.00, 200.7, 161.6)">m</text><text xml:space="preserve" font-family="Helvetica-Light,Helvetica" font-size="34.6" fill="#FEFFFF" transform="matrix(1.00, 0.00, -0.00, -1.00, 229.5, 161.6)">e</text><text xml:space="preserve" font-family="Helvetica-Light,Helvetica" font-size="34.6" fill="#FEFFFF" transform="matrix(1.00, 0.00, -0.00, -1.00, 248.7, 161.6)">r</text><text xml:space="preserve" font-family="Helvetica-Light,Helvetica" font-size="34.6" fill="#FEFFFF" transform="matrix(1.00, 0.00, -0.00, -1.00, 259.6, 161.6)">c</text><text xml:space="preserve" font-family="Helvetica-Light,Helvetica" font-size="34.6" fill="#FEFFFF" transform="matrix(1.00, 0.00, -0.00, -1.00, 278.8, 161.6)">i</text><text xml:space="preserve" font-family="Helvetica-Light,Helvetica" font-size="34.6" fill="#FEFFFF" transform="matrix(1.00, 0.00, -0.00, -1.00, 286.5, 161.6)">a</text><text xml:space="preserve" font-family="Helvetica-Light,Helvetica" font-size="34.6" fill="#FEFFFF" transform="matrix(1.00, 0.00, -0.00, -1.00, 305.7, 161.6)">l</text><text xml:space="preserve" font-family="Helvetica-Light,Helvetica" font-size="34.6" fill="#FEFFFF" transform="matrix(1.00, 0.00, -0.00, -1.00, 313.4, 161.6)"> </text><text xml:space="preserve" font-family="Helvetica-Light,Helvetica" font-size="34.6" fill="#FEFFFF" transform="matrix(1.00, 0.00, -0.00, -1.00, 323.0, 161.6)">p</text><text xml:space="preserve" font-family="Helvetica-Light,Helvetica" font-size="34.6" fill="#FEFFFF" transform="matrix(1.00, 0.00, -0.00, -1.00, 344.1, 161.6)">r</text><text xml:space="preserve" font-family="Helvetica-Light,Helvetica" font-size="34.6" fill="#FEFFFF" transform="matrix(1.00, 0.00, -0.00, -1.00, 355.0, 161.6)">e</text><text xml:space="preserve" font-family="Helvetica-Light,Helvetica" font-size="34.6" fill="#FEFFFF" transform="matrix(1.00, 0.00, -0.00, -1.00, 374.3, 161.6)">s</text><text xml:space="preserve" font-family="Helvetica-Light,Helvetica" font-size="34.6" fill="#FEFFFF" transform="matrix(1.00, 0.00, -0.00, -1.00, 391.5, 161.6)">s</text><text xml:space="preserve" font-family="Helvetica-Light,Helvetica" font-size="34.6" fill="#FEFFFF" transform="matrix(1.00, 0.00, -0.00, -1.00, 408.8, 161.6)">u</text><text xml:space="preserve" font-family="Helvetica-Light,Helvetica" font-size="34.6" fill="#FEFFFF" transform="matrix(1.00, 0.00, -0.00, -1.00, 428.1, 161.6)">r</text><text xml:space="preserve" font-family="Helvetica-Light,Helvetica" font-size="34.6" fill="#FEFFFF" transform="matrix(1.00, 0.00, -0.00, -1.00, 439.0, 161.6)">e</text><text xml:space="preserve" font-family="Helvetica-Light,Helvetica" font-size="34.6" fill="#FEFFFF" transform="matrix(1.00, 0.00, -0.00, -1.00, 458.2, 161.6)">s</text><text xml:space="preserve" font-family="Helvetica-Light,Helvetica" font-size="34.6" fill="#FEFFFF" transform="matrix(1.00, 0.00, -0.00, -1.00, 475.5, 161.6)"> </text><text xml:space="preserve" font-family="Helvetica-Light,Helvetica" font-size="34.6" fill="#FEFFFF" transform="matrix(1.00, 0.00, -0.00, -1.00, 485.1, 161.6)">(</text><text xml:space="preserve" font-family="Helvetica-Light,Helvetica" font-size="34.6" fill="#FEFFFF" transform="matrix(1.00, 0.00, -0.00, -1.00, 496.6, 161.6)">E</text><text xml:space="preserve" font-family="Helvetica-Light,Helvetica" font-size="34.6" fill="#FEFFFF" transform="matrix(1.00, 0.00, -0.00, -1.00, 517.7, 161.6)">x</text><text xml:space="preserve" font-family="Helvetica-Light,Helvetica" font-size="34.6" fill="#FEFFFF" transform="matrix(1.00, 0.00, -0.00, -1.00, 535.0, 161.6)">p</text><text xml:space="preserve" font-family="Helvetica-Light,Helvetica" font-size="34.6" fill="#FEFFFF" transform="matrix(1.00, 0.00, -0.00, -1.00, 556.1, 161.6)">e</text><text xml:space="preserve" font-family="Helvetica-Light,Helvetica" font-size="34.6" fill="#FEFFFF" transform="matrix(1.00, 0.00, -0.00, -1.00, 575.4, 161.6)">c</text><text xml:space="preserve" font-family="Helvetica-Light,Helvetica" font-size="34.6" fill="#FEFFFF" transform="matrix(1.00, 0.00, -0.00, -1.00, 594.6, 161.6)">t</text><text xml:space="preserve" font-family="Helvetica-Light,Helvetica" font-size="34.6" fill="#FEFFFF" transform="matrix(1.00, 0.00, -0.00, -1.00, 604.2, 161.6)">a</text><text xml:space="preserve" font-family="Helvetica-Light,Helvetica" font-size="34.6" fill="#FEFFFF" transform="matrix(1.00, 0.00, -0.00, -1.00, 623.4, 161.6)">t</text><text xml:space="preserve" font-family="Helvetica-Light,Helvetica" font-size="34.6" fill="#FEFFFF" transform="matrix(1.00, 0.00, -0.00, -1.00, 633.1, 161.6)">i</text><text xml:space="preserve" font-family="Helvetica-Light,Helvetica" font-size="34.6" fill="#FEFFFF" transform="matrix(1.00, 0.00, -0.00, -1.00, 640.7, 161.6)">o</text><text xml:space="preserve" font-family="Helvetica-Light,Helvetica" font-size="34.6" fill="#FEFFFF" transform="matrix(1.00, 0.00, -0.00, -1.00, 660.0, 161.6)">n</text><text xml:space="preserve" font-family="Helvetica-Light,Helvetica" font-size="34.6" fill="#FEFFFF" transform="matrix(1.00, 0.00, -0.00, -1.00, 679.2, 161.6)">s</text><text xml:space="preserve" font-family="Helvetica-Light,Helvetica" font-size="34.6" fill="#FEFFFF" transform="matrix(1.00, 0.00, -0.00, -1.00, 696.5, 161.6)">)</text><text xml:space="preserve" font-family="Helvetica-Light,Helvetica" font-size="34.6" fill="#FEFFFF" transform="matrix(1.00, 0.00, -0.00, -1.00, 708.0, 161.6)"> </text><text xml:space="preserve" font-family="Helvetica-Light,Helvetica" font-size="25.9" fill="#FEFFFF" transform="matrix(1.00, 0.00, -0.00, -1.00, 94.9, 84.9)">•</text><text xml:space="preserve" font-family="Helvetica-Light,Helvetica" font-size="34.6" fill="#FEFFFF" transform="matrix(1.00, 0.00, -0.00, -1.00, 127.7, 81.4)">S</text><text xml:space="preserve" font-family="Helvetica-Light,Helvetica" font-size="34.6" fill="#FEFFFF" transform="matrix(1.00, 0.00, -0.00, -1.00, 148.8, 81.4)">l</text><text xml:space="preserve" font-family="Helvetica-Light,Helvetica" font-size="34.6" fill="#FEFFFF" transform="matrix(1.00, 0.00, -0.00, -1.00, 156.5, 81.4)">o</text><text xml:space="preserve" font-family="Helvetica-Light,Helvetica" font-size="34.6" fill="#FEFFFF" transform="matrix(1.00, 0.00, -0.00, -1.00, 175.7, 81.4)">p</text><text xml:space="preserve" font-family="Helvetica-Light,Helvetica" font-size="34.6" fill="#FEFFFF" transform="matrix(1.00, 0.00, -0.00, -1.00, 196.8, 81.4)">p</text><text xml:space="preserve" font-family="Helvetica-Light,Helvetica" font-size="34.6" fill="#FEFFFF" transform="matrix(1.00, 0.00, -0.00, -1.00, 218.0, 81.4)">y</text><text xml:space="preserve" font-family="Helvetica-Light,Helvetica" font-size="34.6" fill="#FEFFFF" transform="matrix(1.00, 0.00, -0.00, -1.00, 235.2, 81.4)"> </text><text xml:space="preserve" font-family="Helvetica-Light,Helvetica" font-size="34.6" fill="#FEFFFF" transform="matrix(1.00, 0.00, -0.00, -1.00, 244.9, 81.4)">d</text><text xml:space="preserve" font-family="Helvetica-Light,Helvetica" font-size="34.6" fill="#FEFFFF" transform="matrix(1.00, 0.00, -0.00, -1.00, 266.0, 81.4)">e</text><text xml:space="preserve" font-family="Helvetica-Light,Helvetica" font-size="34.6" fill="#FEFFFF" transform="matrix(1.00, 0.00, -0.00, -1.00, 285.2, 81.4)">v</text><text xml:space="preserve" font-family="Helvetica-Light,Helvetica" font-size="34.6" fill="#FEFFFF" transform="matrix(1.00, 0.00, -0.00, -1.00, 302.5, 81.4)">e</text><text xml:space="preserve" font-family="Helvetica-Light,Helvetica" font-size="34.6" fill="#FEFFFF" transform="matrix(1.00, 0.00, -0.00, -1.00, 321.7, 81.4)">l</text><text xml:space="preserve" font-family="Helvetica-Light,Helvetica" font-size="34.6" fill="#FEFFFF" transform="matrix(1.00, 0.00, -0.00, -1.00, 329.4, 81.4)">o</text><text xml:space="preserve" font-family="Helvetica-Light,Helvetica" font-size="34.6" fill="#FEFFFF" transform="matrix(1.00, 0.00, -0.00, -1.00, 348.6, 81.4)">p</text><text xml:space="preserve" font-family="Helvetica-Light,Helvetica" font-size="34.6" fill="#FEFFFF" transform="matrix(1.00, 0.00, -0.00, -1.00, 369.8, 81.4)">m</text><text xml:space="preserve" font-family="Helvetica-Light,Helvetica" font-size="34.6" fill="#FEFFFF" transform="matrix(1.00, 0.00, -0.00, -1.00, 398.6, 81.4)">e</text><text xml:space="preserve" font-family="Helvetica-Light,Helvetica" font-size="34.6" fill="#FEFFFF" transform="matrix(1.00, 0.00, -0.00, -1.00, 417.8, 81.4)">n</text><text xml:space="preserve" font-family="Helvetica-Light,Helvetica" font-size="34.6" fill="#FEFFFF" transform="matrix(1.00, 0.00, -0.00, -1.00, 437.0, 81.4)">t</text><text xml:space="preserve" font-family="Helvetica-Light,Helvetica" font-size="34.6" fill="#FEFFFF" transform="matrix(1.00, 0.00, -0.00, -1.00, 446.6, 81.4)"> </text><text xml:space="preserve" font-family="Helvetica-Light,Helvetica" font-size="34.6" fill="#FEFFFF" transform="matrix(1.00, 0.00, -0.00, -1.00, 456.2, 81.4)">p</text><text xml:space="preserve" font-family="Helvetica-Light,Helvetica" font-size="34.6" fill="#FEFFFF" transform="matrix(1.00, 0.00, -0.00, -1.00, 477.4, 81.4)">r</text><text xml:space="preserve" font-family="Helvetica-Light,Helvetica" font-size="34.6" fill="#FEFFFF" transform="matrix(1.00, 0.00, -0.00, -1.00, 488.9, 81.4)">a</text><text xml:space="preserve" font-family="Helvetica-Light,Helvetica" font-size="34.6" fill="#FEFFFF" transform="matrix(1.00, 0.00, -0.00, -1.00, 508.1, 81.4)">c</text><text xml:space="preserve" font-family="Helvetica-Light,Helvetica" font-size="34.6" fill="#FEFFFF" transform="matrix(1.00, 0.00, -0.00, -1.00, 527.3, 81.4)">t</text><text xml:space="preserve" font-family="Helvetica-Light,Helvetica" font-size="34.6" fill="#FEFFFF" transform="matrix(1.00, 0.00, -0.00, -1.00, 537.0, 81.4)">i</text><text xml:space="preserve" font-family="Helvetica-Light,Helvetica" font-size="34.6" fill="#FEFFFF" transform="matrix(1.00, 0.00, -0.00, -1.00, 544.6, 81.4)">c</text><text xml:space="preserve" font-family="Helvetica-Light,Helvetica" font-size="34.6" fill="#FEFFFF" transform="matrix(1.00, 0.00, -0.00, -1.00, 563.9, 81.4)">e</text><text xml:space="preserve" font-family="Helvetica-Light,Helvetica" font-size="34.6" fill="#FEFFFF" transform="matrix(1.00, 0.00, -0.00, -1.00, 583.1, 81.4)">s</text><text xml:space="preserve" font-family="Helvetica-Light,Helvetica" font-size="34.6" fill="#FEFFFF" transform="matrix(1.00, 0.00, -0.00, -1.00, 600.4, 81.4)"> </text><text xml:space="preserve" font-family="Helvetica-Light,Helvetica" font-size="34.6" fill="#FEFFFF" transform="matrix(1.00, 0.00, -0.00, -1.00, 610.0, 81.4)">(</text><text xml:space="preserve" font-family="Helvetica-Light,Helvetica" font-size="34.6" fill="#FEFFFF" transform="matrix(1.00, 0.00, -0.00, -1.00, 621.5, 81.4)">H</text><text xml:space="preserve" font-family="Helvetica-Light,Helvetica" font-size="34.6" fill="#FEFFFF" transform="matrix(1.00, 0.00, -0.00, -1.00, 646.5, 81.4)">u</text><text xml:space="preserve" font-family="Helvetica-Light,Helvetica" font-size="34.6" fill="#FEFFFF" transform="matrix(1.00, 0.00, -0.00, -1.00, 665.7, 81.4)">m</text><text xml:space="preserve" font-family="Helvetica-Light,Helvetica" font-size="34.6" fill="#FEFFFF" transform="matrix(1.00, 0.00, -0.00, -1.00, 694.5, 81.4)">a</text><text xml:space="preserve" font-family="Helvetica-Light,Helvetica" font-size="34.6" fill="#FEFFFF" transform="matrix(1.00, 0.00, -0.00, -1.00, 713.7, 81.4)">n</text><text xml:space="preserve" font-family="Helvetica-Light,Helvetica" font-size="34.6" fill="#FEFFFF" transform="matrix(1.00, 0.00, -0.00, -1.00, 733.0, 81.4)"> </text><text xml:space="preserve" font-family="Helvetica-Light,Helvetica" font-size="34.6" fill="#FEFFFF" transform="matrix(1.00, 0.00, -0.00, -1.00, 742.6, 81.4)">E</text><text xml:space="preserve" font-family="Helvetica-Light,Helvetica" font-size="34.6" fill="#FEFFFF" transform="matrix(1.00, 0.00, -0.00, -1.00, 763.7, 81.4)">r</text><text xml:space="preserve" font-family="Helvetica-Light,Helvetica" font-size="34.6" fill="#FEFFFF" transform="matrix(1.00, 0.00, -0.00, -1.00, 775.2, 81.4)">r</text><text xml:space="preserve" font-family="Helvetica-Light,Helvetica" font-size="34.6" fill="#FEFFFF" transform="matrix(1.00, 0.00, -0.00, -1.00, 786.1, 81.4)">o</text><text xml:space="preserve" font-family="Helvetica-Light,Helvetica" font-size="34.6" fill="#FEFFFF" transform="matrix(1.00, 0.00, -0.00, -1.00, 805.3, 81.4)">r</text><text xml:space="preserve" font-family="Helvetica-Light,Helvetica" font-size="34.6" fill="#FEFFFF" transform="matrix(1.00, 0.00, -0.00, -1.00, 816.8, 81.4)">)</text></g></svg>