<?xml version="1.0" encoding="UTF-8" standalone="no"?><svg xmlns="http://www.w3.org/2000/svg" xmlns:xlink="http://www.w3.org/1999/xlink" clip-rule="evenodd" stroke-miterlimit="10" viewBox="0 0 1024 768"><desc>SVG generated by Keynote</desc><defs></defs><g transform="matrix(1.00, 0.00, -0.00, -1.00, 0.0, 768.0)"><g><clipPath id="clip0x6100008b62c0"><path d="M 0.0 768.0 L 1024.0 768.0 L 1024.0 0.0 L 0.0 0.0 Z M 0.0 768.0 "></path></clipPath><g clip-path="url(#clip0x6100008b62c0)"><image xlink:href="../../A458083D-D69B-45C4-902F-6A2AFF5FFDFF/assets/C69F8A4BB357ABB1A0F95B8BFBB7E603.jpeg" width="2048.00" height="1536.00" transform="matrix(0.50, 0.00, -0.00, -0.50, 0.0, 768.0)"></image></g></g><text xml:space="preserve" font-family="Helvetica-Light,Helvetica" font-size="55.2" fill="#FEFFFF" transform="matrix(1.00, 0.00, -0.00, -1.00, 220.5, 429.7)">T</text><text xml:space="preserve" font-family="Helvetica-Light,Helvetica" font-size="55.2" fill="#FEFFFF" transform="matrix(1.00, 0.00, -0.00, -1.00, 251.2, 429.7)">h</text><text xml:space="preserve" font-family="Helvetica-Light,Helvetica" font-size="55.2" fill="#FEFFFF" transform="matrix(1.00, 0.00, -0.00, -1.00, 281.9, 429.7)">e</text><text xml:space="preserve" font-family="Helvetica-Light,Helvetica" font-size="55.2" fill="#FEFFFF" transform="matrix(1.00, 0.00, -0.00, -1.00, 312.6, 429.7)"> </text><text xml:space="preserve" font-family="Helvetica-Light,Helvetica" font-size="55.2" fill="#FEFFFF" transform="matrix(1.00, 0.00, -0.00, -1.00, 328.0, 429.7)">s</text><text xml:space="preserve" font-family="Helvetica-Light,Helvetica" font-size="55.2" fill="#FEFFFF" transform="matrix(1.00, 0.00, -0.00, -1.00, 355.6, 429.7)">c</text><text xml:space="preserve" font-family="Helvetica-Light,Helvetica" font-size="55.2" fill="#FEFFFF" transform="matrix(1.00, 0.00, -0.00, -1.00, 386.3, 429.7)">i</text><text xml:space="preserve" font-family="Helvetica-Light,Helvetica" font-size="55.2" fill="#FEFFFF" transform="matrix(1.00, 0.00, -0.00, -1.00, 398.5, 429.7)">e</text><text xml:space="preserve" font-family="Helvetica-Light,Helvetica" font-size="55.2" fill="#FEFFFF" transform="matrix(1.00, 0.00, -0.00, -1.00, 429.2, 429.7)">n</text><text xml:space="preserve" font-family="Helvetica-Light,Helvetica" font-size="55.2" fill="#FEFFFF" transform="matrix(1.00, 0.00, -0.00, -1.00, 459.9, 429.7)">t</text><text xml:space="preserve" font-family="Helvetica-Light,Helvetica" font-size="55.2" fill="#FEFFFF" transform="matrix(1.00, 0.00, -0.00, -1.00, 475.2, 429.7)">i</text><text xml:space="preserve" font-family="Helvetica-Light,Helvetica" font-size="55.2" fill="#FEFFFF" transform="matrix(1.00, 0.00, -0.00, -1.00, 487.5, 429.7)">ï¬</text><text xml:space="preserve" font-family="Helvetica-Light,Helvetica" font-size="55.2" fill="#FEFFFF" transform="matrix(1.00, 0.00, -0.00, -1.00, 515.1, 429.7)">c</text><text xml:space="preserve" font-family="Helvetica-Light,Helvetica" font-size="55.2" fill="#FEFFFF" transform="matrix(1.00, 0.00, -0.00, -1.00, 545.8, 429.7)"> </text><text xml:space="preserve" font-family="Helvetica-Light,Helvetica" font-size="55.2" fill="#FEFFFF" transform="matrix(1.00, 0.00, -0.00, -1.00, 561.1, 429.7)">m</text><text xml:space="preserve" font-family="Helvetica-Light,Helvetica" font-size="55.2" fill="#FEFFFF" transform="matrix(1.00, 0.00, -0.00, -1.00, 607.1, 429.7)">e</text><text xml:space="preserve" font-family="Helvetica-Light,Helvetica" font-size="55.2" fill="#FEFFFF" transform="matrix(1.00, 0.00, -0.00, -1.00, 637.8, 429.7)">t</text><text xml:space="preserve" font-family="Helvetica-Light,Helvetica" font-size="55.2" fill="#FEFFFF" transform="matrix(1.00, 0.00, -0.00, -1.00, 653.1, 429.7)">h</text><text xml:space="preserve" font-family="Helvetica-Light,Helvetica" font-size="55.2" fill="#FEFFFF" transform="matrix(1.00, 0.00, -0.00, -1.00, 683.8, 429.7)">o</text><text xml:space="preserve" font-family="Helvetica-Light,Helvetica" font-size="55.2" fill="#FEFFFF" transform="matrix(1.00, 0.00, -0.00, -1.00, 714.5, 429.7)">d</text><text xml:space="preserve" font-family="Helvetica-Light,Helvetica" font-size="55.2" fill="#FEFFFF" transform="matrix(1.00, 0.00, -0.00, -1.00, 748.3, 429.7)"> </text><text xml:space="preserve" font-family="Helvetica-Light,Helvetica" font-size="55.2" fill="#FEFFFF" transform="matrix(1.00, 0.00, -0.00, -1.00, 763.6, 429.7)">i</text><text xml:space="preserve" font-family="Helvetica-Light,Helvetica" font-size="55.2" fill="#FEFFFF" transform="matrix(1.00, 0.00, -0.00, -1.00, 775.9, 429.7)">s</text><text xml:space="preserve" font-family="Helvetica-Light,Helvetica" font-size="55.2" fill="#FEFFFF" transform="matrix(1.00, 0.00, -0.00, -1.00, 803.5, 429.7)"> </text><text xml:space="preserve" font-family="Helvetica-Light,Helvetica" font-size="55.2" fill="#FEFFFF" transform="matrix(1.00, 0.00, -0.00, -1.00, 141.3, 362.7)">d</text><text xml:space="preserve" font-family="Helvetica-Light,Helvetica" font-size="55.2" fill="#FEFFFF" transform="matrix(1.00, 0.00, -0.00, -1.00, 175.0, 362.7)">e</text><text xml:space="preserve" font-family="Helvetica-Light,Helvetica" font-size="55.2" fill="#FEFFFF" transform="matrix(1.00, 0.00, -0.00, -1.00, 205.7, 362.7)">s</text><text xml:space="preserve" font-family="Helvetica-Light,Helvetica" font-size="55.2" fill="#FEFFFF" transform="matrix(1.00, 0.00, -0.00, -1.00, 233.3, 362.7)">i</text><text xml:space="preserve" font-family="Helvetica-Light,Helvetica" font-size="55.2" fill="#FEFFFF" transform="matrix(1.00, 0.00, -0.00, -1.00, 245.6, 362.7)">g</text><text xml:space="preserve" font-family="Helvetica-Light,Helvetica" font-size="55.2" fill="#FEFFFF" transform="matrix(1.00, 0.00, -0.00, -1.00, 279.3, 362.7)">n</text><text xml:space="preserve" font-family="Helvetica-Light,Helvetica" font-size="55.2" fill="#FEFFFF" transform="matrix(1.00, 0.00, -0.00, -1.00, 310.0, 362.7)">e</text><text xml:space="preserve" font-family="Helvetica-Light,Helvetica" font-size="55.2" fill="#FEFFFF" transform="matrix(1.00, 0.00, -0.00, -1.00, 340.7, 362.7)">d</text><text xml:space="preserve" font-family="Helvetica-Light,Helvetica" font-size="55.2" fill="#FEFFFF" transform="matrix(1.00, 0.00, -0.00, -1.00, 374.4, 362.7)"> </text><text xml:space="preserve" font-family="Helvetica-Light,Helvetica" font-size="55.2" fill="#FEFFFF" transform="matrix(1.00, 0.00, -0.00, -1.00, 389.8, 362.7)">t</text><text xml:space="preserve" font-family="Helvetica-Light,Helvetica" font-size="55.2" fill="#FEFFFF" transform="matrix(1.00, 0.00, -0.00, -1.00, 405.1, 362.7)">o</text><text xml:space="preserve" font-family="Helvetica-Light,Helvetica" font-size="55.2" fill="#FEFFFF" transform="matrix(1.00, 0.00, -0.00, -1.00, 435.8, 362.7)"> </text><text xml:space="preserve" font-family="Helvetica-Light,Helvetica" font-size="55.2" fill="#FEFFFF" transform="matrix(1.00, 0.00, -0.00, -1.00, 451.1, 362.7)">b</text><text xml:space="preserve" font-family="Helvetica-Light,Helvetica" font-size="55.2" fill="#FEFFFF" transform="matrix(1.00, 0.00, -0.00, -1.00, 484.9, 362.7)">e</text><text xml:space="preserve" font-family="Helvetica-Light,Helvetica" font-size="55.2" fill="#FEFFFF" transform="matrix(1.00, 0.00, -0.00, -1.00, 515.6, 362.7)"> </text><text xml:space="preserve" font-family="Helvetica-Light,Helvetica" font-size="55.2" fill="#FEFFFF" transform="matrix(1.00, 0.00, -0.00, -1.00, 530.9, 362.7)">s</text><text xml:space="preserve" font-family="Helvetica-Light,Helvetica" font-size="55.2" fill="#FEFFFF" transform="matrix(1.00, 0.00, -0.00, -1.00, 558.5, 362.7)">e</text><text xml:space="preserve" font-family="Helvetica-Light,Helvetica" font-size="55.2" fill="#FEFFFF" transform="matrix(1.00, 0.00, -0.00, -1.00, 589.2, 362.7)">l</text><text xml:space="preserve" font-family="Helvetica-Light,Helvetica" font-size="55.2" fill="#FEFFFF" transform="matrix(1.00, 0.00, -0.00, -1.00, 601.5, 362.7)">f</text><text xml:space="preserve" font-family="Helvetica-Light,Helvetica" font-size="55.2" fill="#FEFFFF" transform="matrix(1.00, 0.00, -0.00, -1.00, 616.8, 362.7)"> </text><text xml:space="preserve" font-family="Helvetica-Light,Helvetica" font-size="55.2" fill="#FEFFFF" transform="matrix(1.00, 0.00, -0.00, -1.00, 632.1, 362.7)">c</text><text xml:space="preserve" font-family="Helvetica-Light,Helvetica" font-size="55.2" fill="#FEFFFF" transform="matrix(1.00, 0.00, -0.00, -1.00, 662.8, 362.7)">o</text><text xml:space="preserve" font-family="Helvetica-Light,Helvetica" font-size="55.2" fill="#FEFFFF" transform="matrix(1.00, 0.00, -0.00, -1.00, 693.5, 362.7)">r</text><text xml:space="preserve" font-family="Helvetica-Light,Helvetica" font-size="55.2" fill="#FEFFFF" transform="matrix(1.00, 0.00, -0.00, -1.00, 711.9, 362.7)">r</text><text xml:space="preserve" font-family="Helvetica-Light,Helvetica" font-size="55.2" fill="#FEFFFF" transform="matrix(1.00, 0.00, -0.00, -1.00, 729.3, 362.7)">e</text><text xml:space="preserve" font-family="Helvetica-Light,Helvetica" font-size="55.2" fill="#FEFFFF" transform="matrix(1.00, 0.00, -0.00, -1.00, 760.0, 362.7)">c</text><text xml:space="preserve" font-family="Helvetica-Light,Helvetica" font-size="55.2" fill="#FEFFFF" transform="matrix(1.00, 0.00, -0.00, -1.00, 790.7, 362.7)">t</text><text xml:space="preserve" font-family="Helvetica-Light,Helvetica" font-size="55.2" fill="#FEFFFF" transform="matrix(1.00, 0.00, -0.00, -1.00, 806.0, 362.7)">i</text><text xml:space="preserve" font-family="Helvetica-Light,Helvetica" font-size="55.2" fill="#FEFFFF" transform="matrix(1.00, 0.00, -0.00, -1.00, 818.3, 362.7)">n</text><text xml:space="preserve" font-family="Helvetica-Light,Helvetica" font-size="55.2" fill="#FEFFFF" transform="matrix(1.00, 0.00, -0.00, -1.00, 849.0, 362.7)">g</text><text xml:space="preserve" font-family="Helvetica-Light,Helvetica" font-size="55.2" fill="#FEFFFF" transform="matrix(1.00, 0.00, -0.00, -1.00, 882.7, 362.7)"> </text><text xml:space="preserve" font-family="Helvetica-Light,Helvetica" font-size="55.2" fill="#FEFFFF" transform="matrix(1.00, 0.00, -0.00, -1.00, 105.0, 295.7)">a</text><text xml:space="preserve" font-family="Helvetica-Light,Helvetica" font-size="55.2" fill="#FEFFFF" transform="matrix(1.00, 0.00, -0.00, -1.00, 135.6, 295.7)">n</text><text xml:space="preserve" font-family="Helvetica-Light,Helvetica" font-size="55.2" fill="#FEFFFF" transform="matrix(1.00, 0.00, -0.00, -1.00, 166.3, 295.7)">d</text><text xml:space="preserve" font-family="Helvetica-Light,Helvetica" font-size="55.2" fill="#FEFFFF" transform="matrix(1.00, 0.00, -0.00, -1.00, 200.1, 295.7)"> </text><text xml:space="preserve" font-family="Helvetica-Light,Helvetica" font-size="55.2" fill="#FEFFFF" transform="matrix(1.00, 0.00, -0.00, -1.00, 215.4, 295.7)">r</text><text xml:space="preserve" font-family="Helvetica-Light,Helvetica" font-size="55.2" fill="#FEFFFF" transform="matrix(1.00, 0.00, -0.00, -1.00, 232.8, 295.7)">e</text><text xml:space="preserve" font-family="Helvetica-Light,Helvetica" font-size="55.2" fill="#FEFFFF" transform="matrix(1.00, 0.00, -0.00, -1.00, 263.5, 295.7)">m</text><text xml:space="preserve" font-family="Helvetica-Light,Helvetica" font-size="55.2" fill="#FEFFFF" transform="matrix(1.00, 0.00, -0.00, -1.00, 309.5, 295.7)">o</text><text xml:space="preserve" font-family="Helvetica-Light,Helvetica" font-size="55.2" fill="#FEFFFF" transform="matrix(1.00, 0.00, -0.00, -1.00, 340.2, 295.7)">v</text><text xml:space="preserve" font-family="Helvetica-Light,Helvetica" font-size="55.2" fill="#FEFFFF" transform="matrix(1.00, 0.00, -0.00, -1.00, 367.8, 295.7)">e</text><text xml:space="preserve" font-family="Helvetica-Light,Helvetica" font-size="55.2" fill="#FEFFFF" transform="matrix(1.00, 0.00, -0.00, -1.00, 398.5, 295.7)"> </text><text xml:space="preserve" font-family="Helvetica-Light,Helvetica" font-size="55.2" fill="#FEFFFF" transform="matrix(1.00, 0.00, -0.00, -1.00, 413.8, 295.7)">b</text><text xml:space="preserve" font-family="Helvetica-Light,Helvetica" font-size="55.2" fill="#FEFFFF" transform="matrix(1.00, 0.00, -0.00, -1.00, 447.5, 295.7)">i</text><text xml:space="preserve" font-family="Helvetica-Light,Helvetica" font-size="55.2" fill="#FEFFFF" transform="matrix(1.00, 0.00, -0.00, -1.00, 459.8, 295.7)">a</text><text xml:space="preserve" font-family="Helvetica-Light,Helvetica" font-size="55.2" fill="#FEFFFF" transform="matrix(1.00, 0.00, -0.00, -1.00, 490.5, 295.7)">s</text><text xml:space="preserve" font-family="Helvetica-Light,Helvetica" font-size="55.2" fill="#FEFFFF" transform="matrix(1.00, 0.00, -0.00, -1.00, 518.1, 295.7)"> </text><text xml:space="preserve" font-family="Helvetica-Light,Helvetica" font-size="55.2" fill="#FEFFFF" transform="matrix(1.00, 0.00, -0.00, -1.00, 533.4, 295.7)">a</text><text xml:space="preserve" font-family="Helvetica-Light,Helvetica" font-size="55.2" fill="#FEFFFF" transform="matrix(1.00, 0.00, -0.00, -1.00, 564.1, 295.7)">n</text><text xml:space="preserve" font-family="Helvetica-Light,Helvetica" font-size="55.2" fill="#FEFFFF" transform="matrix(1.00, 0.00, -0.00, -1.00, 594.8, 295.7)">d</text><text xml:space="preserve" font-family="Helvetica-Light,Helvetica" font-size="55.2" fill="#FEFFFF" transform="matrix(1.00, 0.00, -0.00, -1.00, 628.5, 295.7)"> </text><text xml:space="preserve" font-family="Helvetica-Light,Helvetica" font-size="55.2" fill="#FEFFFF" transform="matrix(1.00, 0.00, -0.00, -1.00, 643.9, 295.7)">c</text><text xml:space="preserve" font-family="Helvetica-Light,Helvetica" font-size="55.2" fill="#FEFFFF" transform="matrix(1.00, 0.00, -0.00, -1.00, 674.6, 295.7)">o</text><text xml:space="preserve" font-family="Helvetica-Light,Helvetica" font-size="55.2" fill="#FEFFFF" transform="matrix(1.00, 0.00, -0.00, -1.00, 705.3, 295.7)">n</text><text xml:space="preserve" font-family="Helvetica-Light,Helvetica" font-size="55.2" fill="#FEFFFF" transform="matrix(1.00, 0.00, -0.00, -1.00, 735.9, 295.7)">j</text><text xml:space="preserve" font-family="Helvetica-Light,Helvetica" font-size="55.2" fill="#FEFFFF" transform="matrix(1.00, 0.00, -0.00, -1.00, 748.2, 295.7)">e</text><text xml:space="preserve" font-family="Helvetica-Light,Helvetica" font-size="55.2" fill="#FEFFFF" transform="matrix(1.00, 0.00, -0.00, -1.00, 778.9, 295.7)">c</text><text xml:space="preserve" font-family="Helvetica-Light,Helvetica" font-size="55.2" fill="#FEFFFF" transform="matrix(1.00, 0.00, -0.00, -1.00, 809.6, 295.7)">t</text><text xml:space="preserve" font-family="Helvetica-Light,Helvetica" font-size="55.2" fill="#FEFFFF" transform="matrix(1.00, 0.00, -0.00, -1.00, 824.9, 295.7)">u</text><text xml:space="preserve" font-family="Helvetica-Light,Helvetica" font-size="55.2" fill="#FEFFFF" transform="matrix(1.00, 0.00, -0.00, -1.00, 855.6, 295.7)">r</text><text xml:space="preserve" font-family="Helvetica-Light,Helvetica" font-size="55.2" fill="#FEFFFF" transform="matrix(1.00, 0.00, -0.00, -1.00, 873.0, 295.7)">e</text><text xml:space="preserve" font-family="Helvetica-Light,Helvetica" font-size="55.2" fill="#FEFFFF" transform="matrix(1.00, 0.00, -0.00, -1.00, 903.7, 295.7)">.</text></g></svg>