<?xml version="1.0" encoding="UTF-8" standalone="no"?><svg xmlns="http://www.w3.org/2000/svg" xmlns:xlink="http://www.w3.org/1999/xlink" clip-rule="evenodd" stroke-miterlimit="10" viewBox="0 0 1024 768"><desc>SVG generated by Keynote</desc><defs></defs><g transform="matrix(1.00, 0.00, -0.00, -1.00, 0.0, 768.0)"><g><clipPath id="clip0x6080008b94a0"><path d="M 0.0 768.0 L 1024.0 768.0 L 1024.0 0.0 L 0.0 0.0 Z M 0.0 768.0 "></path></clipPath><g clip-path="url(#clip0x6080008b94a0)"><image xlink:href="../../A458083D-D69B-45C4-902F-6A2AFF5FFDFF/assets/C69F8A4BB357ABB1A0F95B8BFBB7E603.jpeg" width="2048.00" height="1536.00" transform="matrix(0.50, 0.00, -0.00, -0.50, 0.0, 768.0)"></image></g></g><text xml:space="preserve" font-family="Helvetica-Light,Helvetica" font-size="66.4" fill="#FEFFFF" transform="matrix(1.00, 0.00, -0.00, -1.00, 158.4, 667.3)">C</text><text xml:space="preserve" font-family="Helvetica-Light,Helvetica" font-size="66.4" fill="#FEFFFF" transform="matrix(1.00, 0.00, -0.00, -1.00, 206.3, 667.3)">o</text><text xml:space="preserve" font-family="Helvetica-Light,Helvetica" font-size="66.4" fill="#FEFFFF" transform="matrix(1.00, 0.00, -0.00, -1.00, 243.2, 667.3)">n</text><text xml:space="preserve" font-family="Helvetica-Light,Helvetica" font-size="66.4" fill="#FEFFFF" transform="matrix(1.00, 0.00, -0.00, -1.00, 280.1, 667.3)">t</text><text xml:space="preserve" font-family="Helvetica-Light,Helvetica" font-size="66.4" fill="#FEFFFF" transform="matrix(1.00, 0.00, -0.00, -1.00, 298.6, 667.3)">i</text><text xml:space="preserve" font-family="Helvetica-Light,Helvetica" font-size="66.4" fill="#FEFFFF" transform="matrix(1.00, 0.00, -0.00, -1.00, 313.3, 667.3)">n</text><text xml:space="preserve" font-family="Helvetica-Light,Helvetica" font-size="66.4" fill="#FEFFFF" transform="matrix(1.00, 0.00, -0.00, -1.00, 350.2, 667.3)">u</text><text xml:space="preserve" font-family="Helvetica-Light,Helvetica" font-size="66.4" fill="#FEFFFF" transform="matrix(1.00, 0.00, -0.00, -1.00, 387.2, 667.3)">o</text><text xml:space="preserve" font-family="Helvetica-Light,Helvetica" font-size="66.4" fill="#FEFFFF" transform="matrix(1.00, 0.00, -0.00, -1.00, 424.1, 667.3)">s</text><text xml:space="preserve" font-family="Helvetica-Light,Helvetica" font-size="66.4" fill="#FEFFFF" transform="matrix(1.00, 0.00, -0.00, -1.00, 457.3, 667.3)"> </text><text xml:space="preserve" font-family="Helvetica-Light,Helvetica" font-size="66.4" fill="#FEFFFF" transform="matrix(1.00, 0.00, -0.00, -1.00, 475.7, 667.3)">I</text><text xml:space="preserve" font-family="Helvetica-Light,Helvetica" font-size="66.4" fill="#FEFFFF" transform="matrix(1.00, 0.00, -0.00, -1.00, 494.2, 667.3)">m</text><text xml:space="preserve" font-family="Helvetica-Light,Helvetica" font-size="66.4" fill="#FEFFFF" transform="matrix(1.00, 0.00, -0.00, -1.00, 549.5, 667.3)">p</text><text xml:space="preserve" font-family="Helvetica-Light,Helvetica" font-size="66.4" fill="#FEFFFF" transform="matrix(1.00, 0.00, -0.00, -1.00, 590.1, 667.3)">r</text><text xml:space="preserve" font-family="Helvetica-Light,Helvetica" font-size="66.4" fill="#FEFFFF" transform="matrix(1.00, 0.00, -0.00, -1.00, 611.0, 667.3)">o</text><text xml:space="preserve" font-family="Helvetica-Light,Helvetica" font-size="66.4" fill="#FEFFFF" transform="matrix(1.00, 0.00, -0.00, -1.00, 647.9, 667.3)">v</text><text xml:space="preserve" font-family="Helvetica-Light,Helvetica" font-size="66.4" fill="#FEFFFF" transform="matrix(1.00, 0.00, -0.00, -1.00, 681.1, 667.3)">e</text><text xml:space="preserve" font-family="Helvetica-Light,Helvetica" font-size="66.4" fill="#FEFFFF" transform="matrix(1.00, 0.00, -0.00, -1.00, 718.0, 667.3)">m</text><text xml:space="preserve" font-family="Helvetica-Light,Helvetica" font-size="66.4" fill="#FEFFFF" transform="matrix(1.00, 0.00, -0.00, -1.00, 773.4, 667.3)">e</text><text xml:space="preserve" font-family="Helvetica-Light,Helvetica" font-size="66.4" fill="#FEFFFF" transform="matrix(1.00, 0.00, -0.00, -1.00, 810.3, 667.3)">n</text><text xml:space="preserve" font-family="Helvetica-Light,Helvetica" font-size="66.4" fill="#FEFFFF" transform="matrix(1.00, 0.00, -0.00, -1.00, 847.2, 667.3)">t</text><text xml:space="preserve" font-family="Helvetica-Light,Helvetica" font-size="66.4" fill="#FEFFFF" transform="matrix(1.00, 0.00, -0.00, -1.00, 865.6, 667.3)"> </text><text xml:space="preserve" font-family="Helvetica-Light,Helvetica" font-size="66.4" fill="#FEFFFF" transform="matrix(1.00, 0.00, -0.00, -1.00, 384.7, 588.3)">“</text><text xml:space="preserve" font-family="Helvetica-Light,Helvetica" font-size="66.4" fill="#FEFFFF" transform="matrix(1.00, 0.00, -0.00, -1.00, 410.5, 588.3)">K</text><text xml:space="preserve" font-family="Helvetica-Light,Helvetica" font-size="66.4" fill="#FEFFFF" transform="matrix(1.00, 0.00, -0.00, -1.00, 454.8, 588.3)">a</text><text xml:space="preserve" font-family="Helvetica-Light,Helvetica" font-size="66.4" fill="#FEFFFF" transform="matrix(1.00, 0.00, -0.00, -1.00, 491.7, 588.3)">i</text><text xml:space="preserve" font-family="Helvetica-Light,Helvetica" font-size="66.4" fill="#FEFFFF" transform="matrix(1.00, 0.00, -0.00, -1.00, 506.5, 588.3)">z</text><text xml:space="preserve" font-family="Helvetica-Light,Helvetica" font-size="66.4" fill="#FEFFFF" transform="matrix(1.00, 0.00, -0.00, -1.00, 539.7, 588.3)">e</text><text xml:space="preserve" font-family="Helvetica-Light,Helvetica" font-size="66.4" fill="#FEFFFF" transform="matrix(1.00, 0.00, -0.00, -1.00, 576.6, 588.3)">n</text><text xml:space="preserve" font-family="Helvetica-Light,Helvetica" font-size="66.4" fill="#FEFFFF" transform="matrix(1.00, 0.00, -0.00, -1.00, 613.5, 588.3)">”</text><text xml:space="preserve" font-family="Helvetica-Light,Helvetica" font-size="27.9" fill="#FEFFFF" transform="matrix(1.00, 0.00, -0.00, -1.00, 79.0, 525.9)">•</text><text xml:space="preserve" font-family="Helvetica-Light,Helvetica" font-size="37.2" fill="#FEFFFF" transform="matrix(1.00, 0.00, -0.00, -1.00, 114.3, 522.1)">I</text><text xml:space="preserve" font-family="Helvetica-Light,Helvetica" font-size="37.2" fill="#FEFFFF" transform="matrix(1.00, 0.00, -0.00, -1.00, 124.6, 522.1)">d</text><text xml:space="preserve" font-family="Helvetica-Light,Helvetica" font-size="37.2" fill="#FEFFFF" transform="matrix(1.00, 0.00, -0.00, -1.00, 147.4, 522.1)">e</text><text xml:space="preserve" font-family="Helvetica-Light,Helvetica" font-size="37.2" fill="#FEFFFF" transform="matrix(1.00, 0.00, -0.00, -1.00, 168.1, 522.1)">n</text><text xml:space="preserve" font-family="Helvetica-Light,Helvetica" font-size="37.2" fill="#FEFFFF" transform="matrix(1.00, 0.00, -0.00, -1.00, 188.8, 522.1)">t</text><text xml:space="preserve" font-family="Helvetica-Light,Helvetica" font-size="37.2" fill="#FEFFFF" transform="matrix(1.00, 0.00, -0.00, -1.00, 199.1, 522.1)">i</text><text xml:space="preserve" font-family="Helvetica-Light,Helvetica" font-size="37.2" fill="#FEFFFF" transform="matrix(1.00, 0.00, -0.00, -1.00, 207.4, 522.1)">f</text><text xml:space="preserve" font-family="Helvetica-Light,Helvetica" font-size="37.2" fill="#FEFFFF" transform="matrix(1.00, 0.00, -0.00, -1.00, 217.8, 522.1)">y</text><text xml:space="preserve" font-family="Helvetica-Light,Helvetica" font-size="37.2" fill="#FEFFFF" transform="matrix(1.00, 0.00, -0.00, -1.00, 236.4, 522.1)"> </text><text xml:space="preserve" font-family="Helvetica-Light,Helvetica" font-size="37.2" fill="#FEFFFF" transform="matrix(1.00, 0.00, -0.00, -1.00, 246.7, 522.1)">s</text><text xml:space="preserve" font-family="Helvetica-Light,Helvetica" font-size="37.2" fill="#FEFFFF" transform="matrix(1.00, 0.00, -0.00, -1.00, 265.4, 522.1)">u</text><text xml:space="preserve" font-family="Helvetica-Light,Helvetica" font-size="37.2" fill="#FEFFFF" transform="matrix(1.00, 0.00, -0.00, -1.00, 286.1, 522.1)">b</text><text xml:space="preserve" font-family="Helvetica-Light,Helvetica" font-size="37.2" fill="#FEFFFF" transform="matrix(1.00, 0.00, -0.00, -1.00, 308.8, 522.1)">-</text><text xml:space="preserve" font-family="Helvetica-Light,Helvetica" font-size="37.2" fill="#FEFFFF" transform="matrix(1.00, 0.00, -0.00, -1.00, 321.2, 522.1)">o</text><text xml:space="preserve" font-family="Helvetica-Light,Helvetica" font-size="37.2" fill="#FEFFFF" transform="matrix(1.00, 0.00, -0.00, -1.00, 341.9, 522.1)">p</text><text xml:space="preserve" font-family="Helvetica-Light,Helvetica" font-size="37.2" fill="#FEFFFF" transform="matrix(1.00, 0.00, -0.00, -1.00, 364.7, 522.1)">t</text><text xml:space="preserve" font-family="Helvetica-Light,Helvetica" font-size="37.2" fill="#FEFFFF" transform="matrix(1.00, 0.00, -0.00, -1.00, 375.0, 522.1)">i</text><text xml:space="preserve" font-family="Helvetica-Light,Helvetica" font-size="37.2" fill="#FEFFFF" transform="matrix(1.00, 0.00, -0.00, -1.00, 383.3, 522.1)">m</text><text xml:space="preserve" font-family="Helvetica-Light,Helvetica" font-size="37.2" fill="#FEFFFF" transform="matrix(1.00, 0.00, -0.00, -1.00, 414.3, 522.1)">a</text><text xml:space="preserve" font-family="Helvetica-Light,Helvetica" font-size="37.2" fill="#FEFFFF" transform="matrix(1.00, 0.00, -0.00, -1.00, 435.0, 522.1)">l</text><text xml:space="preserve" font-family="Helvetica-Light,Helvetica" font-size="37.2" fill="#FEFFFF" transform="matrix(1.00, 0.00, -0.00, -1.00, 443.3, 522.1)"> </text><text xml:space="preserve" font-family="Helvetica-Light,Helvetica" font-size="37.2" fill="#FEFFFF" transform="matrix(1.00, 0.00, -0.00, -1.00, 453.6, 522.1)">p</text><text xml:space="preserve" font-family="Helvetica-Light,Helvetica" font-size="37.2" fill="#FEFFFF" transform="matrix(1.00, 0.00, -0.00, -1.00, 476.4, 522.1)">r</text><text xml:space="preserve" font-family="Helvetica-Light,Helvetica" font-size="37.2" fill="#FEFFFF" transform="matrix(1.00, 0.00, -0.00, -1.00, 488.1, 522.1)">o</text><text xml:space="preserve" font-family="Helvetica-Light,Helvetica" font-size="37.2" fill="#FEFFFF" transform="matrix(1.00, 0.00, -0.00, -1.00, 508.8, 522.1)">c</text><text xml:space="preserve" font-family="Helvetica-Light,Helvetica" font-size="37.2" fill="#FEFFFF" transform="matrix(1.00, 0.00, -0.00, -1.00, 529.5, 522.1)">e</text><text xml:space="preserve" font-family="Helvetica-Light,Helvetica" font-size="37.2" fill="#FEFFFF" transform="matrix(1.00, 0.00, -0.00, -1.00, 550.2, 522.1)">s</text><text xml:space="preserve" font-family="Helvetica-Light,Helvetica" font-size="37.2" fill="#FEFFFF" transform="matrix(1.00, 0.00, -0.00, -1.00, 568.9, 522.1)">s</text><text xml:space="preserve" font-family="Helvetica-Light,Helvetica" font-size="37.2" fill="#FEFFFF" transform="matrix(1.00, 0.00, -0.00, -1.00, 587.5, 522.1)">e</text><text xml:space="preserve" font-family="Helvetica-Light,Helvetica" font-size="37.2" fill="#FEFFFF" transform="matrix(1.00, 0.00, -0.00, -1.00, 608.2, 522.1)">s</text><text xml:space="preserve" font-family="Helvetica-Light,Helvetica" font-size="37.2" fill="#FEFFFF" transform="matrix(1.00, 0.00, -0.00, -1.00, 626.8, 522.1)"> </text><text xml:space="preserve" font-family="Helvetica-Light,Helvetica" font-size="37.2" fill="#FEFFFF" transform="matrix(1.00, 0.00, -0.00, -1.00, 637.2, 522.1)">&amp;</text><text xml:space="preserve" font-family="Helvetica-Light,Helvetica" font-size="37.2" fill="#FEFFFF" transform="matrix(1.00, 0.00, -0.00, -1.00, 662.0, 522.1)"> </text><text xml:space="preserve" font-family="Helvetica-Light,Helvetica" font-size="37.2" fill="#FEFFFF" transform="matrix(1.00, 0.00, -0.00, -1.00, 672.4, 522.1)">w</text><text xml:space="preserve" font-family="Helvetica-Light,Helvetica" font-size="37.2" fill="#FEFFFF" transform="matrix(1.00, 0.00, -0.00, -1.00, 699.2, 522.1)">a</text><text xml:space="preserve" font-family="Helvetica-Light,Helvetica" font-size="37.2" fill="#FEFFFF" transform="matrix(1.00, 0.00, -0.00, -1.00, 720.0, 522.1)">s</text><text xml:space="preserve" font-family="Helvetica-Light,Helvetica" font-size="37.2" fill="#FEFFFF" transform="matrix(1.00, 0.00, -0.00, -1.00, 738.6, 522.1)">t</text><text xml:space="preserve" font-family="Helvetica-Light,Helvetica" font-size="37.2" fill="#FEFFFF" transform="matrix(1.00, 0.00, -0.00, -1.00, 748.9, 522.1)">e</text><text xml:space="preserve" font-family="Helvetica-Light,Helvetica" font-size="37.2" fill="#FEFFFF" transform="matrix(1.00, 0.00, -0.00, -1.00, 769.6, 522.1)">.</text><text xml:space="preserve" font-family="Helvetica-Light,Helvetica" font-size="37.2" fill="#FEFFFF" transform="matrix(1.00, 0.00, -0.00, -1.00, 780.0, 522.1)"> </text><text xml:space="preserve" font-family="Helvetica-Light,Helvetica" font-size="27.9" fill="#FEFFFF" transform="matrix(1.00, 0.00, -0.00, -1.00, 79.0, 438.8)">•</text><text xml:space="preserve" font-family="Helvetica-Light,Helvetica" font-size="37.2" fill="#FEFFFF" transform="matrix(1.00, 0.00, -0.00, -1.00, 114.3, 434.9)">R</text><text xml:space="preserve" font-family="Helvetica-Light,Helvetica" font-size="37.2" fill="#FEFFFF" transform="matrix(1.00, 0.00, -0.00, -1.00, 139.1, 434.9)">e</text><text xml:space="preserve" font-family="Helvetica-Light,Helvetica" font-size="37.2" fill="#FEFFFF" transform="matrix(1.00, 0.00, -0.00, -1.00, 159.8, 434.9)">m</text><text xml:space="preserve" font-family="Helvetica-Light,Helvetica" font-size="37.2" fill="#FEFFFF" transform="matrix(1.00, 0.00, -0.00, -1.00, 190.8, 434.9)">o</text><text xml:space="preserve" font-family="Helvetica-Light,Helvetica" font-size="37.2" fill="#FEFFFF" transform="matrix(1.00, 0.00, -0.00, -1.00, 211.6, 434.9)">v</text><text xml:space="preserve" font-family="Helvetica-Light,Helvetica" font-size="37.2" fill="#FEFFFF" transform="matrix(1.00, 0.00, -0.00, -1.00, 230.2, 434.9)">e</text><text xml:space="preserve" font-family="Helvetica-Light,Helvetica" font-size="37.2" fill="#FEFFFF" transform="matrix(1.00, 0.00, -0.00, -1.00, 250.9, 434.9)"> </text><text xml:space="preserve" font-family="Helvetica-Light,Helvetica" font-size="37.2" fill="#FEFFFF" transform="matrix(1.00, 0.00, -0.00, -1.00, 261.2, 434.9)">w</text><text xml:space="preserve" font-family="Helvetica-Light,Helvetica" font-size="37.2" fill="#FEFFFF" transform="matrix(1.00, 0.00, -0.00, -1.00, 288.1, 434.9)">a</text><text xml:space="preserve" font-family="Helvetica-Light,Helvetica" font-size="37.2" fill="#FEFFFF" transform="matrix(1.00, 0.00, -0.00, -1.00, 308.8, 434.9)">s</text><text xml:space="preserve" font-family="Helvetica-Light,Helvetica" font-size="37.2" fill="#FEFFFF" transform="matrix(1.00, 0.00, -0.00, -1.00, 327.4, 434.9)">t</text><text xml:space="preserve" font-family="Helvetica-Light,Helvetica" font-size="37.2" fill="#FEFFFF" transform="matrix(1.00, 0.00, -0.00, -1.00, 337.8, 434.9)">e</text><text xml:space="preserve" font-family="Helvetica-Light,Helvetica" font-size="37.2" fill="#FEFFFF" transform="matrix(1.00, 0.00, -0.00, -1.00, 358.5, 434.9)"> </text><text xml:space="preserve" font-family="Helvetica-Light,Helvetica" font-size="37.2" fill="#FEFFFF" transform="matrix(1.00, 0.00, -0.00, -1.00, 368.9, 434.9)">v</text><text xml:space="preserve" font-family="Helvetica-Light,Helvetica" font-size="37.2" fill="#FEFFFF" transform="matrix(1.00, 0.00, -0.00, -1.00, 387.5, 434.9)">i</text><text xml:space="preserve" font-family="Helvetica-Light,Helvetica" font-size="37.2" fill="#FEFFFF" transform="matrix(1.00, 0.00, -0.00, -1.00, 395.7, 434.9)">a</text><text xml:space="preserve" font-family="Helvetica-Light,Helvetica" font-size="37.2" fill="#FEFFFF" transform="matrix(1.00, 0.00, -0.00, -1.00, 416.4, 434.9)"> </text><text xml:space="preserve" font-family="Helvetica-Light,Helvetica" font-size="37.2" fill="#FEFFFF" transform="matrix(1.00, 0.00, -0.00, -1.00, 426.8, 434.9)">s</text><text xml:space="preserve" font-family="Helvetica-Light,Helvetica" font-size="37.2" fill="#FEFFFF" transform="matrix(1.00, 0.00, -0.00, -1.00, 445.4, 434.9)">m</text><text xml:space="preserve" font-family="Helvetica-Light,Helvetica" font-size="37.2" fill="#FEFFFF" transform="matrix(1.00, 0.00, -0.00, -1.00, 476.4, 434.9)">a</text><text xml:space="preserve" font-family="Helvetica-Light,Helvetica" font-size="37.2" fill="#FEFFFF" transform="matrix(1.00, 0.00, -0.00, -1.00, 497.1, 434.9)">l</text><text xml:space="preserve" font-family="Helvetica-Light,Helvetica" font-size="37.2" fill="#FEFFFF" transform="matrix(1.00, 0.00, -0.00, -1.00, 505.4, 434.9)">l</text><text xml:space="preserve" font-family="Helvetica-Light,Helvetica" font-size="37.2" fill="#FEFFFF" transform="matrix(1.00, 0.00, -0.00, -1.00, 513.7, 434.9)"> </text><text xml:space="preserve" font-family="Helvetica-Light,Helvetica" font-size="37.2" fill="#FEFFFF" transform="matrix(1.00, 0.00, -0.00, -1.00, 524.0, 434.9)">i</text><text xml:space="preserve" font-family="Helvetica-Light,Helvetica" font-size="37.2" fill="#FEFFFF" transform="matrix(1.00, 0.00, -0.00, -1.00, 532.3, 434.9)">n</text><text xml:space="preserve" font-family="Helvetica-Light,Helvetica" font-size="37.2" fill="#FEFFFF" transform="matrix(1.00, 0.00, -0.00, -1.00, 553.0, 434.9)">c</text><text xml:space="preserve" font-family="Helvetica-Light,Helvetica" font-size="37.2" fill="#FEFFFF" transform="matrix(1.00, 0.00, -0.00, -1.00, 573.7, 434.9)">r</text><text xml:space="preserve" font-family="Helvetica-Light,Helvetica" font-size="37.2" fill="#FEFFFF" transform="matrix(1.00, 0.00, -0.00, -1.00, 585.4, 434.9)">e</text><text xml:space="preserve" font-family="Helvetica-Light,Helvetica" font-size="37.2" fill="#FEFFFF" transform="matrix(1.00, 0.00, -0.00, -1.00, 606.1, 434.9)">m</text><text xml:space="preserve" font-family="Helvetica-Light,Helvetica" font-size="37.2" fill="#FEFFFF" transform="matrix(1.00, 0.00, -0.00, -1.00, 637.2, 434.9)">e</text><text xml:space="preserve" font-family="Helvetica-Light,Helvetica" font-size="37.2" fill="#FEFFFF" transform="matrix(1.00, 0.00, -0.00, -1.00, 657.9, 434.9)">n</text><text xml:space="preserve" font-family="Helvetica-Light,Helvetica" font-size="37.2" fill="#FEFFFF" transform="matrix(1.00, 0.00, -0.00, -1.00, 678.6, 434.9)">t</text><text xml:space="preserve" font-family="Helvetica-Light,Helvetica" font-size="37.2" fill="#FEFFFF" transform="matrix(1.00, 0.00, -0.00, -1.00, 688.9, 434.9)">a</text><text xml:space="preserve" font-family="Helvetica-Light,Helvetica" font-size="37.2" fill="#FEFFFF" transform="matrix(1.00, 0.00, -0.00, -1.00, 709.6, 434.9)">l</text><text xml:space="preserve" font-family="Helvetica-Light,Helvetica" font-size="37.2" fill="#FEFFFF" transform="matrix(1.00, 0.00, -0.00, -1.00, 717.9, 434.9)"> </text><text xml:space="preserve" font-family="Helvetica-Light,Helvetica" font-size="37.2" fill="#FEFFFF" transform="matrix(1.00, 0.00, -0.00, -1.00, 728.3, 434.9)">c</text><text xml:space="preserve" font-family="Helvetica-Light,Helvetica" font-size="37.2" fill="#FEFFFF" transform="matrix(1.00, 0.00, -0.00, -1.00, 749.0, 434.9)">h</text><text xml:space="preserve" font-family="Helvetica-Light,Helvetica" font-size="37.2" fill="#FEFFFF" transform="matrix(1.00, 0.00, -0.00, -1.00, 769.7, 434.9)">a</text><text xml:space="preserve" font-family="Helvetica-Light,Helvetica" font-size="37.2" fill="#FEFFFF" transform="matrix(1.00, 0.00, -0.00, -1.00, 790.4, 434.9)">n</text><text xml:space="preserve" font-family="Helvetica-Light,Helvetica" font-size="37.2" fill="#FEFFFF" transform="matrix(1.00, 0.00, -0.00, -1.00, 811.1, 434.9)">g</text><text xml:space="preserve" font-family="Helvetica-Light,Helvetica" font-size="37.2" fill="#FEFFFF" transform="matrix(1.00, 0.00, -0.00, -1.00, 833.8, 434.9)">e</text><text xml:space="preserve" font-family="Helvetica-Light,Helvetica" font-size="37.2" fill="#FEFFFF" transform="matrix(1.00, 0.00, -0.00, -1.00, 854.5, 434.9)"> </text><text xml:space="preserve" font-family="Helvetica-Light,Helvetica" font-size="37.2" fill="#FEFFFF" transform="matrix(1.00, 0.00, -0.00, -1.00, 114.3, 388.9)">r</text><text xml:space="preserve" font-family="Helvetica-Light,Helvetica" font-size="37.2" fill="#FEFFFF" transform="matrix(1.00, 0.00, -0.00, -1.00, 126.7, 388.9)">a</text><text xml:space="preserve" font-family="Helvetica-Light,Helvetica" font-size="37.2" fill="#FEFFFF" transform="matrix(1.00, 0.00, -0.00, -1.00, 147.4, 388.9)">t</text><text xml:space="preserve" font-family="Helvetica-Light,Helvetica" font-size="37.2" fill="#FEFFFF" transform="matrix(1.00, 0.00, -0.00, -1.00, 157.7, 388.9)">h</text><text xml:space="preserve" font-family="Helvetica-Light,Helvetica" font-size="37.2" fill="#FEFFFF" transform="matrix(1.00, 0.00, -0.00, -1.00, 178.4, 388.9)">e</text><text xml:space="preserve" font-family="Helvetica-Light,Helvetica" font-size="37.2" fill="#FEFFFF" transform="matrix(1.00, 0.00, -0.00, -1.00, 199.1, 388.9)">r</text><text xml:space="preserve" font-family="Helvetica-Light,Helvetica" font-size="37.2" fill="#FEFFFF" transform="matrix(1.00, 0.00, -0.00, -1.00, 211.6, 388.9)"> </text><text xml:space="preserve" font-family="Helvetica-Light,Helvetica" font-size="37.2" fill="#FEFFFF" transform="matrix(1.00, 0.00, -0.00, -1.00, 221.9, 388.9)">t</text><text xml:space="preserve" font-family="Helvetica-Light,Helvetica" font-size="37.2" fill="#FEFFFF" transform="matrix(1.00, 0.00, -0.00, -1.00, 232.3, 388.9)">h</text><text xml:space="preserve" font-family="Helvetica-Light,Helvetica" font-size="37.2" fill="#FEFFFF" transform="matrix(1.00, 0.00, -0.00, -1.00, 253.0, 388.9)">a</text><text xml:space="preserve" font-family="Helvetica-Light,Helvetica" font-size="37.2" fill="#FEFFFF" transform="matrix(1.00, 0.00, -0.00, -1.00, 273.7, 388.9)">n</text><text xml:space="preserve" font-family="Helvetica-Light,Helvetica" font-size="37.2" fill="#FEFFFF" transform="matrix(1.00, 0.00, -0.00, -1.00, 294.4, 388.9)"> </text><text xml:space="preserve" font-family="Helvetica-Light,Helvetica" font-size="37.2" fill="#FEFFFF" transform="matrix(1.00, 0.00, -0.00, -1.00, 304.7, 388.9)">r</text><text xml:space="preserve" font-family="Helvetica-Light,Helvetica" font-size="37.2" fill="#FEFFFF" transform="matrix(1.00, 0.00, -0.00, -1.00, 317.1, 388.9)">a</text><text xml:space="preserve" font-family="Helvetica-Light,Helvetica" font-size="37.2" fill="#FEFFFF" transform="matrix(1.00, 0.00, -0.00, -1.00, 337.8, 388.9)">d</text><text xml:space="preserve" font-family="Helvetica-Light,Helvetica" font-size="37.2" fill="#FEFFFF" transform="matrix(1.00, 0.00, -0.00, -1.00, 360.6, 388.9)">i</text><text xml:space="preserve" font-family="Helvetica-Light,Helvetica" font-size="37.2" fill="#FEFFFF" transform="matrix(1.00, 0.00, -0.00, -1.00, 368.9, 388.9)">c</text><text xml:space="preserve" font-family="Helvetica-Light,Helvetica" font-size="37.2" fill="#FEFFFF" transform="matrix(1.00, 0.00, -0.00, -1.00, 389.6, 388.9)">a</text><text xml:space="preserve" font-family="Helvetica-Light,Helvetica" font-size="37.2" fill="#FEFFFF" transform="matrix(1.00, 0.00, -0.00, -1.00, 410.3, 388.9)">l</text><text xml:space="preserve" font-family="Helvetica-Light,Helvetica" font-size="37.2" fill="#FEFFFF" transform="matrix(1.00, 0.00, -0.00, -1.00, 418.5, 388.9)"> </text><text xml:space="preserve" font-family="Helvetica-Light,Helvetica" font-size="37.2" fill="#FEFFFF" transform="matrix(1.00, 0.00, -0.00, -1.00, 428.9, 388.9)">c</text><text xml:space="preserve" font-family="Helvetica-Light,Helvetica" font-size="37.2" fill="#FEFFFF" transform="matrix(1.00, 0.00, -0.00, -1.00, 449.6, 388.9)">h</text><text xml:space="preserve" font-family="Helvetica-Light,Helvetica" font-size="37.2" fill="#FEFFFF" transform="matrix(1.00, 0.00, -0.00, -1.00, 470.3, 388.9)">a</text><text xml:space="preserve" font-family="Helvetica-Light,Helvetica" font-size="37.2" fill="#FEFFFF" transform="matrix(1.00, 0.00, -0.00, -1.00, 491.0, 388.9)">n</text><text xml:space="preserve" font-family="Helvetica-Light,Helvetica" font-size="37.2" fill="#FEFFFF" transform="matrix(1.00, 0.00, -0.00, -1.00, 511.7, 388.9)">g</text><text xml:space="preserve" font-family="Helvetica-Light,Helvetica" font-size="37.2" fill="#FEFFFF" transform="matrix(1.00, 0.00, -0.00, -1.00, 534.5, 388.9)">e</text><text xml:space="preserve" font-family="Helvetica-Light,Helvetica" font-size="37.2" fill="#FEFFFF" transform="matrix(1.00, 0.00, -0.00, -1.00, 555.2, 388.9)">s</text><text xml:space="preserve" font-family="Helvetica-Light,Helvetica" font-size="37.2" fill="#FEFFFF" transform="matrix(1.00, 0.00, -0.00, -1.00, 573.8, 388.9)">.</text><text xml:space="preserve" font-family="Helvetica-Light,Helvetica" font-size="37.2" fill="#FEFFFF" transform="matrix(1.00, 0.00, -0.00, -1.00, 584.1, 388.9)"> </text><text xml:space="preserve" font-family="Helvetica-Light,Helvetica" font-size="27.9" fill="#FEFFFF" transform="matrix(1.00, 0.00, -0.00, -1.00, 79.0, 305.6)">•</text><text xml:space="preserve" font-family="Helvetica-Light,Helvetica" font-size="37.2" fill="#FEFFFF" transform="matrix(1.00, 0.00, -0.00, -1.00, 114.3, 301.7)">I</text><text xml:space="preserve" font-family="Helvetica-Light,Helvetica" font-size="37.2" fill="#FEFFFF" transform="matrix(1.00, 0.00, -0.00, -1.00, 124.6, 301.7)">m</text><text xml:space="preserve" font-family="Helvetica-Light,Helvetica" font-size="37.2" fill="#FEFFFF" transform="matrix(1.00, 0.00, -0.00, -1.00, 155.7, 301.7)">p</text><text xml:space="preserve" font-family="Helvetica-Light,Helvetica" font-size="37.2" fill="#FEFFFF" transform="matrix(1.00, 0.00, -0.00, -1.00, 178.4, 301.7)">r</text><text xml:space="preserve" font-family="Helvetica-Light,Helvetica" font-size="37.2" fill="#FEFFFF" transform="matrix(1.00, 0.00, -0.00, -1.00, 190.1, 301.7)">o</text><text xml:space="preserve" font-family="Helvetica-Light,Helvetica" font-size="37.2" fill="#FEFFFF" transform="matrix(1.00, 0.00, -0.00, -1.00, 210.8, 301.7)">v</text><text xml:space="preserve" font-family="Helvetica-Light,Helvetica" font-size="37.2" fill="#FEFFFF" transform="matrix(1.00, 0.00, -0.00, -1.00, 229.5, 301.7)">e</text><text xml:space="preserve" font-family="Helvetica-Light,Helvetica" font-size="37.2" fill="#FEFFFF" transform="matrix(1.00, 0.00, -0.00, -1.00, 250.2, 301.7)">m</text><text xml:space="preserve" font-family="Helvetica-Light,Helvetica" font-size="37.2" fill="#FEFFFF" transform="matrix(1.00, 0.00, -0.00, -1.00, 281.2, 301.7)">e</text><text xml:space="preserve" font-family="Helvetica-Light,Helvetica" font-size="37.2" fill="#FEFFFF" transform="matrix(1.00, 0.00, -0.00, -1.00, 301.9, 301.7)">n</text><text xml:space="preserve" font-family="Helvetica-Light,Helvetica" font-size="37.2" fill="#FEFFFF" transform="matrix(1.00, 0.00, -0.00, -1.00, 322.6, 301.7)">t</text><text xml:space="preserve" font-family="Helvetica-Light,Helvetica" font-size="37.2" fill="#FEFFFF" transform="matrix(1.00, 0.00, -0.00, -1.00, 333.0, 301.7)"> </text><text xml:space="preserve" font-family="Helvetica-Light,Helvetica" font-size="37.2" fill="#FEFFFF" transform="matrix(1.00, 0.00, -0.00, -1.00, 343.3, 301.7)">c</text><text xml:space="preserve" font-family="Helvetica-Light,Helvetica" font-size="37.2" fill="#FEFFFF" transform="matrix(1.00, 0.00, -0.00, -1.00, 364.0, 301.7)">o</text><text xml:space="preserve" font-family="Helvetica-Light,Helvetica" font-size="37.2" fill="#FEFFFF" transform="matrix(1.00, 0.00, -0.00, -1.00, 384.7, 301.7)">m</text><text xml:space="preserve" font-family="Helvetica-Light,Helvetica" font-size="37.2" fill="#FEFFFF" transform="matrix(1.00, 0.00, -0.00, -1.00, 415.7, 301.7)">e</text><text xml:space="preserve" font-family="Helvetica-Light,Helvetica" font-size="37.2" fill="#FEFFFF" transform="matrix(1.00, 0.00, -0.00, -1.00, 436.4, 301.7)">s</text><text xml:space="preserve" font-family="Helvetica-Light,Helvetica" font-size="37.2" fill="#FEFFFF" transform="matrix(1.00, 0.00, -0.00, -1.00, 455.1, 301.7)"> </text><text xml:space="preserve" font-family="Helvetica-Light,Helvetica" font-size="37.2" fill="#FEFFFF" transform="matrix(1.00, 0.00, -0.00, -1.00, 465.4, 301.7)">f</text><text xml:space="preserve" font-family="Helvetica-Light,Helvetica" font-size="37.2" fill="#FEFFFF" transform="matrix(1.00, 0.00, -0.00, -1.00, 475.8, 301.7)">r</text><text xml:space="preserve" font-family="Helvetica-Light,Helvetica" font-size="37.2" fill="#FEFFFF" transform="matrix(1.00, 0.00, -0.00, -1.00, 487.5, 301.7)">o</text><text xml:space="preserve" font-family="Helvetica-Light,Helvetica" font-size="37.2" fill="#FEFFFF" transform="matrix(1.00, 0.00, -0.00, -1.00, 508.2, 301.7)">m</text><text xml:space="preserve" font-family="Helvetica-Light,Helvetica" font-size="37.2" fill="#FEFFFF" transform="matrix(1.00, 0.00, -0.00, -1.00, 539.2, 301.7)"> </text><text xml:space="preserve" font-family="Helvetica-Light,Helvetica" font-size="37.2" fill="#FEFFFF" transform="matrix(1.00, 0.00, -0.00, -1.00, 549.6, 301.7)">i</text><text xml:space="preserve" font-family="Helvetica-Light,Helvetica" font-size="37.2" fill="#FEFFFF" transform="matrix(1.00, 0.00, -0.00, -1.00, 557.8, 301.7)">n</text><text xml:space="preserve" font-family="Helvetica-Light,Helvetica" font-size="37.2" fill="#FEFFFF" transform="matrix(1.00, 0.00, -0.00, -1.00, 578.6, 301.7)">s</text><text xml:space="preserve" font-family="Helvetica-Light,Helvetica" font-size="37.2" fill="#FEFFFF" transform="matrix(1.00, 0.00, -0.00, -1.00, 597.2, 301.7)">i</text><text xml:space="preserve" font-family="Helvetica-Light,Helvetica" font-size="37.2" fill="#FEFFFF" transform="matrix(1.00, 0.00, -0.00, -1.00, 605.4, 301.7)">d</text><text xml:space="preserve" font-family="Helvetica-Light,Helvetica" font-size="37.2" fill="#FEFFFF" transform="matrix(1.00, 0.00, -0.00, -1.00, 628.2, 301.7)">e</text><text xml:space="preserve" font-family="Helvetica-Light,Helvetica" font-size="37.2" fill="#FEFFFF" transform="matrix(1.00, 0.00, -0.00, -1.00, 648.9, 301.7)">.</text><text xml:space="preserve" font-family="Helvetica-Light,Helvetica" font-size="37.2" fill="#FEFFFF" transform="matrix(1.00, 0.00, -0.00, -1.00, 659.3, 301.7)"> </text><text xml:space="preserve" font-family="Helvetica-Light,Helvetica" font-size="27.9" fill="#FEFFFF" transform="matrix(1.00, 0.00, -0.00, -1.00, 79.0, 218.4)">•</text><text xml:space="preserve" font-family="Helvetica-Light,Helvetica" font-size="37.2" fill="#FEFFFF" transform="matrix(1.00, 0.00, -0.00, -1.00, 114.3, 214.6)">C</text><text xml:space="preserve" font-family="Helvetica-Light,Helvetica" font-size="37.2" fill="#FEFFFF" transform="matrix(1.00, 0.00, -0.00, -1.00, 141.2, 214.6)">h</text><text xml:space="preserve" font-family="Helvetica-Light,Helvetica" font-size="37.2" fill="#FEFFFF" transform="matrix(1.00, 0.00, -0.00, -1.00, 161.9, 214.6)">a</text><text xml:space="preserve" font-family="Helvetica-Light,Helvetica" font-size="37.2" fill="#FEFFFF" transform="matrix(1.00, 0.00, -0.00, -1.00, 182.6, 214.6)">n</text><text xml:space="preserve" font-family="Helvetica-Light,Helvetica" font-size="37.2" fill="#FEFFFF" transform="matrix(1.00, 0.00, -0.00, -1.00, 203.3, 214.6)">g</text><text xml:space="preserve" font-family="Helvetica-Light,Helvetica" font-size="37.2" fill="#FEFFFF" transform="matrix(1.00, 0.00, -0.00, -1.00, 226.0, 214.6)">e</text><text xml:space="preserve" font-family="Helvetica-Light,Helvetica" font-size="37.2" fill="#FEFFFF" transform="matrix(1.00, 0.00, -0.00, -1.00, 246.7, 214.6)"> </text><text xml:space="preserve" font-family="Helvetica-Light,Helvetica" font-size="37.2" fill="#FEFFFF" transform="matrix(1.00, 0.00, -0.00, -1.00, 257.1, 214.6)">c</text><text xml:space="preserve" font-family="Helvetica-Light,Helvetica" font-size="37.2" fill="#FEFFFF" transform="matrix(1.00, 0.00, -0.00, -1.00, 277.8, 214.6)">a</text><text xml:space="preserve" font-family="Helvetica-Light,Helvetica" font-size="37.2" fill="#FEFFFF" transform="matrix(1.00, 0.00, -0.00, -1.00, 298.5, 214.6)">n</text><text xml:space="preserve" font-family="Helvetica-Light,Helvetica" font-size="37.2" fill="#FEFFFF" transform="matrix(1.00, 0.00, -0.00, -1.00, 319.2, 214.6)"> </text><text xml:space="preserve" font-family="Helvetica-Light,Helvetica" font-size="37.2" fill="#FEFFFF" transform="matrix(1.00, 0.00, -0.00, -1.00, 329.6, 214.6)">b</text><text xml:space="preserve" font-family="Helvetica-Light,Helvetica" font-size="37.2" fill="#FEFFFF" transform="matrix(1.00, 0.00, -0.00, -1.00, 352.3, 214.6)">e</text><text xml:space="preserve" font-family="Helvetica-Light,Helvetica" font-size="37.2" fill="#FEFFFF" transform="matrix(1.00, 0.00, -0.00, -1.00, 373.0, 214.6)"> </text><text xml:space="preserve" font-family="Helvetica-Light,Helvetica" font-size="37.2" fill="#FEFFFF" transform="matrix(1.00, 0.00, -0.00, -1.00, 383.4, 214.6)">m</text><text xml:space="preserve" font-family="Helvetica-Light,Helvetica" font-size="37.2" fill="#FEFFFF" transform="matrix(1.00, 0.00, -0.00, -1.00, 414.4, 214.6)">a</text><text xml:space="preserve" font-family="Helvetica-Light,Helvetica" font-size="37.2" fill="#FEFFFF" transform="matrix(1.00, 0.00, -0.00, -1.00, 435.1, 214.6)">d</text><text xml:space="preserve" font-family="Helvetica-Light,Helvetica" font-size="37.2" fill="#FEFFFF" transform="matrix(1.00, 0.00, -0.00, -1.00, 457.9, 214.6)">e</text><text xml:space="preserve" font-family="Helvetica-Light,Helvetica" font-size="37.2" fill="#FEFFFF" transform="matrix(1.00, 0.00, -0.00, -1.00, 478.6, 214.6)"> </text><text xml:space="preserve" font-family="Helvetica-Light,Helvetica" font-size="37.2" fill="#FEFFFF" transform="matrix(1.00, 0.00, -0.00, -1.00, 488.9, 214.6)">t</text><text xml:space="preserve" font-family="Helvetica-Light,Helvetica" font-size="37.2" fill="#FEFFFF" transform="matrix(1.00, 0.00, -0.00, -1.00, 499.3, 214.6)">o</text><text xml:space="preserve" font-family="Helvetica-Light,Helvetica" font-size="37.2" fill="#FEFFFF" transform="matrix(1.00, 0.00, -0.00, -1.00, 520.0, 214.6)"> </text><text xml:space="preserve" font-family="Helvetica-Light,Helvetica" font-size="37.2" fill="#FEFFFF" transform="matrix(1.00, 0.00, -0.00, -1.00, 530.3, 214.6)">i</text><text xml:space="preserve" font-family="Helvetica-Light,Helvetica" font-size="37.2" fill="#FEFFFF" transform="matrix(1.00, 0.00, -0.00, -1.00, 538.6, 214.6)">m</text><text xml:space="preserve" font-family="Helvetica-Light,Helvetica" font-size="37.2" fill="#FEFFFF" transform="matrix(1.00, 0.00, -0.00, -1.00, 569.6, 214.6)">p</text><text xml:space="preserve" font-family="Helvetica-Light,Helvetica" font-size="37.2" fill="#FEFFFF" transform="matrix(1.00, 0.00, -0.00, -1.00, 592.4, 214.6)">r</text><text xml:space="preserve" font-family="Helvetica-Light,Helvetica" font-size="37.2" fill="#FEFFFF" transform="matrix(1.00, 0.00, -0.00, -1.00, 604.1, 214.6)">o</text><text xml:space="preserve" font-family="Helvetica-Light,Helvetica" font-size="37.2" fill="#FEFFFF" transform="matrix(1.00, 0.00, -0.00, -1.00, 624.8, 214.6)">v</text><text xml:space="preserve" font-family="Helvetica-Light,Helvetica" font-size="37.2" fill="#FEFFFF" transform="matrix(1.00, 0.00, -0.00, -1.00, 643.4, 214.6)">e</text><text xml:space="preserve" font-family="Helvetica-Light,Helvetica" font-size="37.2" fill="#FEFFFF" transform="matrix(1.00, 0.00, -0.00, -1.00, 664.1, 214.6)"> </text><text xml:space="preserve" font-family="Helvetica-Light,Helvetica" font-size="37.2" fill="#FEFFFF" transform="matrix(1.00, 0.00, -0.00, -1.00, 674.5, 214.6)">t</text><text xml:space="preserve" font-family="Helvetica-Light,Helvetica" font-size="37.2" fill="#FEFFFF" transform="matrix(1.00, 0.00, -0.00, -1.00, 684.8, 214.6)">h</text><text xml:space="preserve" font-family="Helvetica-Light,Helvetica" font-size="37.2" fill="#FEFFFF" transform="matrix(1.00, 0.00, -0.00, -1.00, 705.5, 214.6)">e</text><text xml:space="preserve" font-family="Helvetica-Light,Helvetica" font-size="37.2" fill="#FEFFFF" transform="matrix(1.00, 0.00, -0.00, -1.00, 726.2, 214.6)"> </text><text xml:space="preserve" font-family="Helvetica-Light,Helvetica" font-size="37.2" fill="#FEFFFF" transform="matrix(1.00, 0.00, -0.00, -1.00, 736.6, 214.6)">o</text><text xml:space="preserve" font-family="Helvetica-Light,Helvetica" font-size="37.2" fill="#FEFFFF" transform="matrix(1.00, 0.00, -0.00, -1.00, 757.3, 214.6)">u</text><text xml:space="preserve" font-family="Helvetica-Light,Helvetica" font-size="37.2" fill="#FEFFFF" transform="matrix(1.00, 0.00, -0.00, -1.00, 778.0, 214.6)">t</text><text xml:space="preserve" font-family="Helvetica-Light,Helvetica" font-size="37.2" fill="#FEFFFF" transform="matrix(1.00, 0.00, -0.00, -1.00, 788.4, 214.6)">p</text><text xml:space="preserve" font-family="Helvetica-Light,Helvetica" font-size="37.2" fill="#FEFFFF" transform="matrix(1.00, 0.00, -0.00, -1.00, 811.1, 214.6)">u</text><text xml:space="preserve" font-family="Helvetica-Light,Helvetica" font-size="37.2" fill="#FEFFFF" transform="matrix(1.00, 0.00, -0.00, -1.00, 831.8, 214.6)">t</text><text xml:space="preserve" font-family="Helvetica-Light,Helvetica" font-size="37.2" fill="#FEFFFF" transform="matrix(1.00, 0.00, -0.00, -1.00, 842.2, 214.6)"> </text><text xml:space="preserve" font-family="Helvetica-Light,Helvetica" font-size="37.2" fill="#FEFFFF" transform="matrix(1.00, 0.00, -0.00, -1.00, 852.5, 214.6)">o</text><text xml:space="preserve" font-family="Helvetica-Light,Helvetica" font-size="37.2" fill="#FEFFFF" transform="matrix(1.00, 0.00, -0.00, -1.00, 873.2, 214.6)">r</text><text xml:space="preserve" font-family="Helvetica-Light,Helvetica" font-size="37.2" fill="#FEFFFF" transform="matrix(1.00, 0.00, -0.00, -1.00, 885.6, 214.6)"> </text><text xml:space="preserve" font-family="Helvetica-Light,Helvetica" font-size="37.2" fill="#FEFFFF" transform="matrix(1.00, 0.00, -0.00, -1.00, 114.3, 168.6)">t</text><text xml:space="preserve" font-family="Helvetica-Light,Helvetica" font-size="37.2" fill="#FEFFFF" transform="matrix(1.00, 0.00, -0.00, -1.00, 124.6, 168.6)">h</text><text xml:space="preserve" font-family="Helvetica-Light,Helvetica" font-size="37.2" fill="#FEFFFF" transform="matrix(1.00, 0.00, -0.00, -1.00, 145.3, 168.6)">e</text><text xml:space="preserve" font-family="Helvetica-Light,Helvetica" font-size="37.2" fill="#FEFFFF" transform="matrix(1.00, 0.00, -0.00, -1.00, 166.0, 168.6)"> </text><text xml:space="preserve" font-family="Helvetica-Light,Helvetica" font-size="37.2" fill="#FEFFFF" transform="matrix(1.00, 0.00, -0.00, -1.00, 176.4, 168.6)">p</text><text xml:space="preserve" font-family="Helvetica-Light,Helvetica" font-size="37.2" fill="#FEFFFF" transform="matrix(1.00, 0.00, -0.00, -1.00, 199.1, 168.6)">r</text><text xml:space="preserve" font-family="Helvetica-Light,Helvetica" font-size="37.2" fill="#FEFFFF" transform="matrix(1.00, 0.00, -0.00, -1.00, 210.9, 168.6)">o</text><text xml:space="preserve" font-family="Helvetica-Light,Helvetica" font-size="37.2" fill="#FEFFFF" transform="matrix(1.00, 0.00, -0.00, -1.00, 231.6, 168.6)">c</text><text xml:space="preserve" font-family="Helvetica-Light,Helvetica" font-size="37.2" fill="#FEFFFF" transform="matrix(1.00, 0.00, -0.00, -1.00, 252.3, 168.6)">e</text><text xml:space="preserve" font-family="Helvetica-Light,Helvetica" font-size="37.2" fill="#FEFFFF" transform="matrix(1.00, 0.00, -0.00, -1.00, 273.0, 168.6)">s</text><text xml:space="preserve" font-family="Helvetica-Light,Helvetica" font-size="37.2" fill="#FEFFFF" transform="matrix(1.00, 0.00, -0.00, -1.00, 291.6, 168.6)">s</text><text xml:space="preserve" font-family="Helvetica-Light,Helvetica" font-size="37.2" fill="#FEFFFF" transform="matrix(1.00, 0.00, -0.00, -1.00, 310.2, 168.6)"> </text><text xml:space="preserve" font-family="Helvetica-Light,Helvetica" font-size="37.2" fill="#FEFFFF" transform="matrix(1.00, 0.00, -0.00, -1.00, 320.6, 168.6)">a</text><text xml:space="preserve" font-family="Helvetica-Light,Helvetica" font-size="37.2" fill="#FEFFFF" transform="matrix(1.00, 0.00, -0.00, -1.00, 341.3, 168.6)">s</text><text xml:space="preserve" font-family="Helvetica-Light,Helvetica" font-size="37.2" fill="#FEFFFF" transform="matrix(1.00, 0.00, -0.00, -1.00, 359.9, 168.6)"> </text><text xml:space="preserve" font-family="Helvetica-Light,Helvetica" font-size="37.2" fill="#FEFFFF" transform="matrix(1.00, 0.00, -0.00, -1.00, 370.3, 168.6)">n</text><text xml:space="preserve" font-family="Helvetica-Light,Helvetica" font-size="37.2" fill="#FEFFFF" transform="matrix(1.00, 0.00, -0.00, -1.00, 391.0, 168.6)">e</text><text xml:space="preserve" font-family="Helvetica-Light,Helvetica" font-size="37.2" fill="#FEFFFF" transform="matrix(1.00, 0.00, -0.00, -1.00, 411.7, 168.6)">e</text><text xml:space="preserve" font-family="Helvetica-Light,Helvetica" font-size="37.2" fill="#FEFFFF" transform="matrix(1.00, 0.00, -0.00, -1.00, 432.4, 168.6)">d</text><text xml:space="preserve" font-family="Helvetica-Light,Helvetica" font-size="37.2" fill="#FEFFFF" transform="matrix(1.00, 0.00, -0.00, -1.00, 455.1, 168.6)">e</text><text xml:space="preserve" font-family="Helvetica-Light,Helvetica" font-size="37.2" fill="#FEFFFF" transform="matrix(1.00, 0.00, -0.00, -1.00, 475.8, 168.6)">d</text><text xml:space="preserve" font-family="Helvetica-Light,Helvetica" font-size="37.2" fill="#FEFFFF" transform="matrix(1.00, 0.00, -0.00, -1.00, 498.6, 168.6)">.</text><text xml:space="preserve" font-family="Helvetica-Light,Helvetica" font-size="37.2" fill="#FEFFFF" transform="matrix(1.00, 0.00, -0.00, -1.00, 508.9, 168.6)"> </text><text xml:space="preserve" font-family="Helvetica-Light,Helvetica" font-size="27.9" fill="#FEFFFF" transform="matrix(1.00, 0.00, -0.00, -1.00, 79.0, 85.3)">•</text><text xml:space="preserve" font-family="Helvetica-Light,Helvetica" font-size="37.2" fill="#FEFFFF" transform="matrix(1.00, 0.00, -0.00, -1.00, 114.3, 81.4)">S</text><text xml:space="preserve" font-family="Helvetica-Light,Helvetica" font-size="37.2" fill="#FEFFFF" transform="matrix(1.00, 0.00, -0.00, -1.00, 137.0, 81.4)">e</text><text xml:space="preserve" font-family="Helvetica-Light,Helvetica" font-size="37.2" fill="#FEFFFF" transform="matrix(1.00, 0.00, -0.00, -1.00, 157.7, 81.4)">l</text><text xml:space="preserve" font-family="Helvetica-Light,Helvetica" font-size="37.2" fill="#FEFFFF" transform="matrix(1.00, 0.00, -0.00, -1.00, 166.0, 81.4)">f</text><text xml:space="preserve" font-family="Helvetica-Light,Helvetica" font-size="37.2" fill="#FEFFFF" transform="matrix(1.00, 0.00, -0.00, -1.00, 176.4, 81.4)"> </text><text xml:space="preserve" font-family="Helvetica-Light,Helvetica" font-size="37.2" fill="#FEFFFF" transform="matrix(1.00, 0.00, -0.00, -1.00, 186.7, 81.4)">&amp;</text><text xml:space="preserve" font-family="Helvetica-Light,Helvetica" font-size="37.2" fill="#FEFFFF" transform="matrix(1.00, 0.00, -0.00, -1.00, 211.6, 81.4)"> </text><text xml:space="preserve" font-family="Helvetica-Light,Helvetica" font-size="37.2" fill="#FEFFFF" transform="matrix(1.00, 0.00, -0.00, -1.00, 221.9, 81.4)">T</text><text xml:space="preserve" font-family="Helvetica-Light,Helvetica" font-size="37.2" fill="#FEFFFF" transform="matrix(1.00, 0.00, -0.00, -1.00, 238.5, 81.4)">e</text><text xml:space="preserve" font-family="Helvetica-Light,Helvetica" font-size="37.2" fill="#FEFFFF" transform="matrix(1.00, 0.00, -0.00, -1.00, 259.2, 81.4)">a</text><text xml:space="preserve" font-family="Helvetica-Light,Helvetica" font-size="37.2" fill="#FEFFFF" transform="matrix(1.00, 0.00, -0.00, -1.00, 279.9, 81.4)">m</text><text xml:space="preserve" font-family="Helvetica-Light,Helvetica" font-size="37.2" fill="#FEFFFF" transform="matrix(1.00, 0.00, -0.00, -1.00, 310.9, 81.4)"> </text><text xml:space="preserve" font-family="Helvetica-Light,Helvetica" font-size="37.2" fill="#FEFFFF" transform="matrix(1.00, 0.00, -0.00, -1.00, 321.3, 81.4)">I</text><text xml:space="preserve" font-family="Helvetica-Light,Helvetica" font-size="37.2" fill="#FEFFFF" transform="matrix(1.00, 0.00, -0.00, -1.00, 331.6, 81.4)">n</text><text xml:space="preserve" font-family="Helvetica-Light,Helvetica" font-size="37.2" fill="#FEFFFF" transform="matrix(1.00, 0.00, -0.00, -1.00, 352.3, 81.4)">t</text><text xml:space="preserve" font-family="Helvetica-Light,Helvetica" font-size="37.2" fill="#FEFFFF" transform="matrix(1.00, 0.00, -0.00, -1.00, 362.7, 81.4)">r</text><text xml:space="preserve" font-family="Helvetica-Light,Helvetica" font-size="37.2" fill="#FEFFFF" transform="matrix(1.00, 0.00, -0.00, -1.00, 374.4, 81.4)">o</text><text xml:space="preserve" font-family="Helvetica-Light,Helvetica" font-size="37.2" fill="#FEFFFF" transform="matrix(1.00, 0.00, -0.00, -1.00, 395.1, 81.4)">s</text><text xml:space="preserve" font-family="Helvetica-Light,Helvetica" font-size="37.2" fill="#FEFFFF" transform="matrix(1.00, 0.00, -0.00, -1.00, 413.7, 81.4)">p</text><text xml:space="preserve" font-family="Helvetica-Light,Helvetica" font-size="37.2" fill="#FEFFFF" transform="matrix(1.00, 0.00, -0.00, -1.00, 436.5, 81.4)">e</text><text xml:space="preserve" font-family="Helvetica-Light,Helvetica" font-size="37.2" fill="#FEFFFF" transform="matrix(1.00, 0.00, -0.00, -1.00, 457.2, 81.4)">c</text><text xml:space="preserve" font-family="Helvetica-Light,Helvetica" font-size="37.2" fill="#FEFFFF" transform="matrix(1.00, 0.00, -0.00, -1.00, 477.9, 81.4)">t</text><text xml:space="preserve" font-family="Helvetica-Light,Helvetica" font-size="37.2" fill="#FEFFFF" transform="matrix(1.00, 0.00, -0.00, -1.00, 488.2, 81.4)">i</text><text xml:space="preserve" font-family="Helvetica-Light,Helvetica" font-size="37.2" fill="#FEFFFF" transform="matrix(1.00, 0.00, -0.00, -1.00, 496.5, 81.4)">o</text><text xml:space="preserve" font-family="Helvetica-Light,Helvetica" font-size="37.2" fill="#FEFFFF" transform="matrix(1.00, 0.00, -0.00, -1.00, 517.2, 81.4)">n</text><text xml:space="preserve" font-family="Helvetica-Light,Helvetica" font-size="37.2" fill="#FEFFFF" transform="matrix(1.00, 0.00, -0.00, -1.00, 537.9, 81.4)"> </text><text xml:space="preserve" font-family="Helvetica-Light,Helvetica" font-size="37.2" fill="#FEFFFF" transform="matrix(1.00, 0.00, -0.00, -1.00, 548.3, 81.4)">a</text><text xml:space="preserve" font-family="Helvetica-Light,Helvetica" font-size="37.2" fill="#FEFFFF" transform="matrix(1.00, 0.00, -0.00, -1.00, 569.0, 81.4)">n</text><text xml:space="preserve" font-family="Helvetica-Light,Helvetica" font-size="37.2" fill="#FEFFFF" transform="matrix(1.00, 0.00, -0.00, -1.00, 589.7, 81.4)">d</text><text xml:space="preserve" font-family="Helvetica-Light,Helvetica" font-size="37.2" fill="#FEFFFF" transform="matrix(1.00, 0.00, -0.00, -1.00, 612.4, 81.4)"> </text><text xml:space="preserve" font-family="Helvetica-Light,Helvetica" font-size="37.2" fill="#FEFFFF" transform="matrix(1.00, 0.00, -0.00, -1.00, 622.8, 81.4)">r</text><text xml:space="preserve" font-family="Helvetica-Light,Helvetica" font-size="37.2" fill="#FEFFFF" transform="matrix(1.00, 0.00, -0.00, -1.00, 634.5, 81.4)">e</text><text xml:space="preserve" font-family="Helvetica-Light,Helvetica" font-size="37.2" fill="#FEFFFF" transform="matrix(1.00, 0.00, -0.00, -1.00, 655.2, 81.4)">ﬂ</text><text xml:space="preserve" font-family="Helvetica-Light,Helvetica" font-size="37.2" fill="#FEFFFF" transform="matrix(1.00, 0.00, -0.00, -1.00, 673.8, 81.4)">e</text><text xml:space="preserve" font-family="Helvetica-Light,Helvetica" font-size="37.2" fill="#FEFFFF" transform="matrix(1.00, 0.00, -0.00, -1.00, 694.6, 81.4)">c</text><text xml:space="preserve" font-family="Helvetica-Light,Helvetica" font-size="37.2" fill="#FEFFFF" transform="matrix(1.00, 0.00, -0.00, -1.00, 715.3, 81.4)">t</text><text xml:space="preserve" font-family="Helvetica-Light,Helvetica" font-size="37.2" fill="#FEFFFF" transform="matrix(1.00, 0.00, -0.00, -1.00, 725.6, 81.4)">i</text><text xml:space="preserve" font-family="Helvetica-Light,Helvetica" font-size="37.2" fill="#FEFFFF" transform="matrix(1.00, 0.00, -0.00, -1.00, 733.9, 81.4)">o</text><text xml:space="preserve" font-family="Helvetica-Light,Helvetica" font-size="37.2" fill="#FEFFFF" transform="matrix(1.00, 0.00, -0.00, -1.00, 754.6, 81.4)">n</text><text xml:space="preserve" font-family="Helvetica-Light,Helvetica" font-size="37.2" fill="#FEFFFF" transform="matrix(1.00, 0.00, -0.00, -1.00, 775.3, 81.4)">.</text></g></svg>