<?xml version="1.0" encoding="UTF-8" standalone="no"?><svg xmlns="http://www.w3.org/2000/svg" xmlns:xlink="http://www.w3.org/1999/xlink" clip-rule="evenodd" stroke-miterlimit="10" viewBox="0 0 1024 768"><desc>SVG generated by Keynote</desc><defs></defs><g transform="matrix(1.00, 0.00, -0.00, -1.00, 0.0, 768.0)"><g><clipPath id="clip0x6100006a2220"><path d="M 0.0 768.0 L 1024.0 768.0 L 1024.0 0.0 L 0.0 0.0 Z M 0.0 768.0 "></path></clipPath><g clip-path="url(#clip0x6100006a2220)"><image xlink:href="../../A458083D-D69B-45C4-902F-6A2AFF5FFDFF/assets/C69F8A4BB357ABB1A0F95B8BFBB7E603.jpeg" width="2048.00" height="1536.00" transform="matrix(0.50, 0.00, -0.00, -0.50, 0.0, 768.0)"></image></g></g><text xml:space="preserve" font-family="Helvetica-Light,Helvetica" font-size="70.4" fill="#FEFFFF" transform="matrix(1.00, 0.00, -0.00, -1.00, 221.2, 442.2)">M</text><text xml:space="preserve" font-family="Helvetica-Light,Helvetica" font-size="70.4" fill="#FEFFFF" transform="matrix(1.00, 0.00, -0.00, -1.00, 279.8, 442.2)">e</text><text xml:space="preserve" font-family="Helvetica-Light,Helvetica" font-size="70.4" fill="#FEFFFF" transform="matrix(1.00, 0.00, -0.00, -1.00, 319.0, 442.2)">n</text><text xml:space="preserve" font-family="Helvetica-Light,Helvetica" font-size="70.4" fill="#FEFFFF" transform="matrix(1.00, 0.00, -0.00, -1.00, 358.1, 442.2)">t</text><text xml:space="preserve" font-family="Helvetica-Light,Helvetica" font-size="70.4" fill="#FEFFFF" transform="matrix(1.00, 0.00, -0.00, -1.00, 377.7, 442.2)">a</text><text xml:space="preserve" font-family="Helvetica-Light,Helvetica" font-size="70.4" fill="#FEFFFF" transform="matrix(1.00, 0.00, -0.00, -1.00, 416.8, 442.2)">l</text><text xml:space="preserve" font-family="Helvetica-Light,Helvetica" font-size="70.4" fill="#FEFFFF" transform="matrix(1.00, 0.00, -0.00, -1.00, 432.4, 442.2)"> </text><text xml:space="preserve" font-family="Helvetica-Light,Helvetica" font-size="70.4" fill="#FEFFFF" transform="matrix(1.00, 0.00, -0.00, -1.00, 452.0, 442.2)">m</text><text xml:space="preserve" font-family="Helvetica-Light,Helvetica" font-size="70.4" fill="#FEFFFF" transform="matrix(1.00, 0.00, -0.00, -1.00, 510.7, 442.2)">o</text><text xml:space="preserve" font-family="Helvetica-Light,Helvetica" font-size="70.4" fill="#FEFFFF" transform="matrix(1.00, 0.00, -0.00, -1.00, 549.8, 442.2)">d</text><text xml:space="preserve" font-family="Helvetica-Light,Helvetica" font-size="70.4" fill="#FEFFFF" transform="matrix(1.00, 0.00, -0.00, -1.00, 592.8, 442.2)">e</text><text xml:space="preserve" font-family="Helvetica-Light,Helvetica" font-size="70.4" fill="#FEFFFF" transform="matrix(1.00, 0.00, -0.00, -1.00, 632.0, 442.2)">l</text><text xml:space="preserve" font-family="Helvetica-Light,Helvetica" font-size="70.4" fill="#FEFFFF" transform="matrix(1.00, 0.00, -0.00, -1.00, 647.6, 442.2)">s</text><text xml:space="preserve" font-family="Helvetica-Light,Helvetica" font-size="70.4" fill="#FEFFFF" transform="matrix(1.00, 0.00, -0.00, -1.00, 682.8, 442.2)"> </text><text xml:space="preserve" font-family="Helvetica-Light,Helvetica" font-size="70.4" fill="#FEFFFF" transform="matrix(1.00, 0.00, -0.00, -1.00, 702.4, 442.2)">a</text><text xml:space="preserve" font-family="Helvetica-Light,Helvetica" font-size="70.4" fill="#FEFFFF" transform="matrix(1.00, 0.00, -0.00, -1.00, 741.5, 442.2)">r</text><text xml:space="preserve" font-family="Helvetica-Light,Helvetica" font-size="70.4" fill="#FEFFFF" transform="matrix(1.00, 0.00, -0.00, -1.00, 763.7, 442.2)">e</text><text xml:space="preserve" font-family="Helvetica-Light,Helvetica" font-size="70.4" fill="#FEFFFF" transform="matrix(1.00, 0.00, -0.00, -1.00, 802.8, 442.2)"> </text><text xml:space="preserve" font-family="Helvetica-Light,Helvetica" font-size="70.4" fill="#FEFFFF" transform="matrix(1.00, 0.00, -0.00, -1.00, 112.2, 358.2)">ﬂ</text><text xml:space="preserve" font-family="Helvetica-Light,Helvetica" font-size="70.4" fill="#FEFFFF" transform="matrix(1.00, 0.00, -0.00, -1.00, 147.4, 358.2)">e</text><text xml:space="preserve" font-family="Helvetica-Light,Helvetica" font-size="70.4" fill="#FEFFFF" transform="matrix(1.00, 0.00, -0.00, -1.00, 186.5, 358.2)">x</text><text xml:space="preserve" font-family="Helvetica-Light,Helvetica" font-size="70.4" fill="#FEFFFF" transform="matrix(1.00, 0.00, -0.00, -1.00, 221.7, 358.2)">i</text><text xml:space="preserve" font-family="Helvetica-Light,Helvetica" font-size="70.4" fill="#FEFFFF" transform="matrix(1.00, 0.00, -0.00, -1.00, 237.4, 358.2)">b</text><text xml:space="preserve" font-family="Helvetica-Light,Helvetica" font-size="70.4" fill="#FEFFFF" transform="matrix(1.00, 0.00, -0.00, -1.00, 280.4, 358.2)">l</text><text xml:space="preserve" font-family="Helvetica-Light,Helvetica" font-size="70.4" fill="#FEFFFF" transform="matrix(1.00, 0.00, -0.00, -1.00, 296.0, 358.2)">e</text><text xml:space="preserve" font-family="Helvetica-Light,Helvetica" font-size="70.4" fill="#FEFFFF" transform="matrix(1.00, 0.00, -0.00, -1.00, 335.2, 358.2)"> </text><text xml:space="preserve" font-family="Helvetica-Light,Helvetica" font-size="70.4" fill="#FEFFFF" transform="matrix(1.00, 0.00, -0.00, -1.00, 354.7, 358.2)">a</text><text xml:space="preserve" font-family="Helvetica-Light,Helvetica" font-size="70.4" fill="#FEFFFF" transform="matrix(1.00, 0.00, -0.00, -1.00, 393.9, 358.2)">n</text><text xml:space="preserve" font-family="Helvetica-Light,Helvetica" font-size="70.4" fill="#FEFFFF" transform="matrix(1.00, 0.00, -0.00, -1.00, 433.0, 358.2)">d</text><text xml:space="preserve" font-family="Helvetica-Light,Helvetica" font-size="70.4" fill="#FEFFFF" transform="matrix(1.00, 0.00, -0.00, -1.00, 476.0, 358.2)"> </text><text xml:space="preserve" font-family="Helvetica-Light,Helvetica" font-size="70.4" fill="#FEFFFF" transform="matrix(1.00, 0.00, -0.00, -1.00, 495.6, 358.2)">t</text><text xml:space="preserve" font-family="Helvetica-Light,Helvetica" font-size="70.4" fill="#FEFFFF" transform="matrix(1.00, 0.00, -0.00, -1.00, 515.2, 358.2)">h</text><text xml:space="preserve" font-family="Helvetica-Light,Helvetica" font-size="70.4" fill="#FEFFFF" transform="matrix(1.00, 0.00, -0.00, -1.00, 554.3, 358.2)">e</text><text xml:space="preserve" font-family="Helvetica-Light,Helvetica" font-size="70.4" fill="#FEFFFF" transform="matrix(1.00, 0.00, -0.00, -1.00, 593.5, 358.2)">r</text><text xml:space="preserve" font-family="Helvetica-Light,Helvetica" font-size="70.4" fill="#FEFFFF" transform="matrix(1.00, 0.00, -0.00, -1.00, 615.6, 358.2)">e</text><text xml:space="preserve" font-family="Helvetica-Light,Helvetica" font-size="70.4" fill="#FEFFFF" transform="matrix(1.00, 0.00, -0.00, -1.00, 654.8, 358.2)">f</text><text xml:space="preserve" font-family="Helvetica-Light,Helvetica" font-size="70.4" fill="#FEFFFF" transform="matrix(1.00, 0.00, -0.00, -1.00, 674.3, 358.2)">o</text><text xml:space="preserve" font-family="Helvetica-Light,Helvetica" font-size="70.4" fill="#FEFFFF" transform="matrix(1.00, 0.00, -0.00, -1.00, 713.5, 358.2)">r</text><text xml:space="preserve" font-family="Helvetica-Light,Helvetica" font-size="70.4" fill="#FEFFFF" transform="matrix(1.00, 0.00, -0.00, -1.00, 735.7, 358.2)">e</text><text xml:space="preserve" font-family="Helvetica-Light,Helvetica" font-size="70.4" fill="#FEFFFF" transform="matrix(1.00, 0.00, -0.00, -1.00, 774.8, 358.2)"> </text><text xml:space="preserve" font-family="Helvetica-Light,Helvetica" font-size="70.4" fill="#FEFFFF" transform="matrix(1.00, 0.00, -0.00, -1.00, 794.4, 358.2)">c</text><text xml:space="preserve" font-family="Helvetica-Light,Helvetica" font-size="70.4" fill="#FEFFFF" transform="matrix(1.00, 0.00, -0.00, -1.00, 833.5, 358.2)">a</text><text xml:space="preserve" font-family="Helvetica-Light,Helvetica" font-size="70.4" fill="#FEFFFF" transform="matrix(1.00, 0.00, -0.00, -1.00, 872.7, 358.2)">n</text><text xml:space="preserve" font-family="Helvetica-Light,Helvetica" font-size="70.4" fill="#FEFFFF" transform="matrix(1.00, 0.00, -0.00, -1.00, 911.8, 358.2)"> </text><text xml:space="preserve" font-family="Helvetica-Light,Helvetica" font-size="70.4" fill="#FEFFFF" transform="matrix(1.00, 0.00, -0.00, -1.00, 250.5, 274.2)">a</text><text xml:space="preserve" font-family="Helvetica-Light,Helvetica" font-size="70.4" fill="#FEFFFF" transform="matrix(1.00, 0.00, -0.00, -1.00, 289.6, 274.2)">d</text><text xml:space="preserve" font-family="Helvetica-Light,Helvetica" font-size="70.4" fill="#FEFFFF" transform="matrix(1.00, 0.00, -0.00, -1.00, 332.7, 274.2)">j</text><text xml:space="preserve" font-family="Helvetica-Light,Helvetica" font-size="70.4" fill="#FEFFFF" transform="matrix(1.00, 0.00, -0.00, -1.00, 348.3, 274.2)">u</text><text xml:space="preserve" font-family="Helvetica-Light,Helvetica" font-size="70.4" fill="#FEFFFF" transform="matrix(1.00, 0.00, -0.00, -1.00, 387.4, 274.2)">s</text><text xml:space="preserve" font-family="Helvetica-Light,Helvetica" font-size="70.4" fill="#FEFFFF" transform="matrix(1.00, 0.00, -0.00, -1.00, 422.6, 274.2)">t</text><text xml:space="preserve" font-family="Helvetica-Light,Helvetica" font-size="70.4" fill="#FEFFFF" transform="matrix(1.00, 0.00, -0.00, -1.00, 442.2, 274.2)"> </text><text xml:space="preserve" font-family="Helvetica-Light,Helvetica" font-size="70.4" fill="#FEFFFF" transform="matrix(1.00, 0.00, -0.00, -1.00, 461.8, 274.2)">f</text><text xml:space="preserve" font-family="Helvetica-Light,Helvetica" font-size="70.4" fill="#FEFFFF" transform="matrix(1.00, 0.00, -0.00, -1.00, 481.3, 274.2)">o</text><text xml:space="preserve" font-family="Helvetica-Light,Helvetica" font-size="70.4" fill="#FEFFFF" transform="matrix(1.00, 0.00, -0.00, -1.00, 520.5, 274.2)">r</text><text xml:space="preserve" font-family="Helvetica-Light,Helvetica" font-size="70.4" fill="#FEFFFF" transform="matrix(1.00, 0.00, -0.00, -1.00, 543.9, 274.2)"> </text><text xml:space="preserve" font-family="Helvetica-Light,Helvetica" font-size="70.4" fill="#FEFFFF" transform="matrix(1.00, 0.00, -0.00, -1.00, 563.5, 274.2)">f</text><text xml:space="preserve" font-family="Helvetica-Light,Helvetica" font-size="70.4" fill="#FEFFFF" transform="matrix(1.00, 0.00, -0.00, -1.00, 583.1, 274.2)">a</text><text xml:space="preserve" font-family="Helvetica-Light,Helvetica" font-size="70.4" fill="#FEFFFF" transform="matrix(1.00, 0.00, -0.00, -1.00, 622.2, 274.2)">i</text><text xml:space="preserve" font-family="Helvetica-Light,Helvetica" font-size="70.4" fill="#FEFFFF" transform="matrix(1.00, 0.00, -0.00, -1.00, 637.8, 274.2)">l</text><text xml:space="preserve" font-family="Helvetica-Light,Helvetica" font-size="70.4" fill="#FEFFFF" transform="matrix(1.00, 0.00, -0.00, -1.00, 653.5, 274.2)">u</text><text xml:space="preserve" font-family="Helvetica-Light,Helvetica" font-size="70.4" fill="#FEFFFF" transform="matrix(1.00, 0.00, -0.00, -1.00, 692.6, 274.2)">r</text><text xml:space="preserve" font-family="Helvetica-Light,Helvetica" font-size="70.4" fill="#FEFFFF" transform="matrix(1.00, 0.00, -0.00, -1.00, 714.8, 274.2)">e</text><text xml:space="preserve" font-family="Helvetica-Light,Helvetica" font-size="70.4" fill="#FEFFFF" transform="matrix(1.00, 0.00, -0.00, -1.00, 753.9, 274.2)">.</text></g></svg>