<?xml version="1.0" encoding="UTF-8" standalone="no"?><svg xmlns="http://www.w3.org/2000/svg" xmlns:xlink="http://www.w3.org/1999/xlink" clip-rule="evenodd" stroke-miterlimit="10" viewBox="0 0 1024 768"><desc>SVG generated by Keynote</desc><defs></defs><g transform="matrix(1.00, 0.00, -0.00, -1.00, 0.0, 768.0)"><g><clipPath id="clip0x6180006b90e0"><path d="M 0.0 768.0 L 1024.0 768.0 L 1024.0 0.0 L 0.0 0.0 Z M 0.0 768.0 "></path></clipPath><g clip-path="url(#clip0x6180006b90e0)"><image xlink:href="../../A458083D-D69B-45C4-902F-6A2AFF5FFDFF/assets/C69F8A4BB357ABB1A0F95B8BFBB7E603.jpeg" width="2048.00" height="1536.00" transform="matrix(0.50, 0.00, -0.00, -0.50, 0.0, 768.0)"></image></g></g><text xml:space="preserve" font-family="Helvetica-Light,Helvetica" font-size="80.0" fill="#FEFFFF" transform="matrix(1.00, 0.00, -0.00, -1.00, 245.3, 149.4)">N</text><text xml:space="preserve" font-family="Helvetica-Light,Helvetica" font-size="80.0" fill="#FEFFFF" transform="matrix(1.00, 0.00, -0.00, -1.00, 303.0, 149.4)">e</text><text xml:space="preserve" font-family="Helvetica-Light,Helvetica" font-size="80.0" fill="#FEFFFF" transform="matrix(1.00, 0.00, -0.00, -1.00, 347.5, 149.4)">g</text><text xml:space="preserve" font-family="Helvetica-Light,Helvetica" font-size="80.0" fill="#FEFFFF" transform="matrix(1.00, 0.00, -0.00, -1.00, 396.4, 149.4)">a</text><text xml:space="preserve" font-family="Helvetica-Light,Helvetica" font-size="80.0" fill="#FEFFFF" transform="matrix(1.00, 0.00, -0.00, -1.00, 440.9, 149.4)">t</text><text xml:space="preserve" font-family="Helvetica-Light,Helvetica" font-size="80.0" fill="#FEFFFF" transform="matrix(1.00, 0.00, -0.00, -1.00, 463.1, 149.4)">i</text><text xml:space="preserve" font-family="Helvetica-Light,Helvetica" font-size="80.0" fill="#FEFFFF" transform="matrix(1.00, 0.00, -0.00, -1.00, 480.9, 149.4)">v</text><text xml:space="preserve" font-family="Helvetica-Light,Helvetica" font-size="80.0" fill="#FEFFFF" transform="matrix(1.00, 0.00, -0.00, -1.00, 520.9, 149.4)">i</text><text xml:space="preserve" font-family="Helvetica-Light,Helvetica" font-size="80.0" fill="#FEFFFF" transform="matrix(1.00, 0.00, -0.00, -1.00, 538.6, 149.4)">t</text><text xml:space="preserve" font-family="Helvetica-Light,Helvetica" font-size="80.0" fill="#FEFFFF" transform="matrix(1.00, 0.00, -0.00, -1.00, 560.9, 149.4)">y</text><text xml:space="preserve" font-family="Helvetica-Light,Helvetica" font-size="80.0" fill="#FEFFFF" transform="matrix(1.00, 0.00, -0.00, -1.00, 600.9, 149.4)"> </text><text xml:space="preserve" font-family="Helvetica-Light,Helvetica" font-size="80.0" fill="#FEFFFF" transform="matrix(1.00, 0.00, -0.00, -1.00, 623.1, 149.4)">B</text><text xml:space="preserve" font-family="Helvetica-Light,Helvetica" font-size="80.0" fill="#FEFFFF" transform="matrix(1.00, 0.00, -0.00, -1.00, 676.5, 149.4)">i</text><text xml:space="preserve" font-family="Helvetica-Light,Helvetica" font-size="80.0" fill="#FEFFFF" transform="matrix(1.00, 0.00, -0.00, -1.00, 694.2, 149.4)">a</text><text xml:space="preserve" font-family="Helvetica-Light,Helvetica" font-size="80.0" fill="#FEFFFF" transform="matrix(1.00, 0.00, -0.00, -1.00, 738.7, 149.4)">s</text><text xml:space="preserve" font-family="Helvetica-Light,Helvetica" font-size="20.8" fill="#FEFFFF" transform="matrix(1.00, 0.00, -0.00, -1.00, 137.8, 98.8)">P</text><text xml:space="preserve" font-family="Helvetica-Light,Helvetica" font-size="20.8" fill="#FEFFFF" transform="matrix(1.00, 0.00, -0.00, -1.00, 150.5, 98.8)">e</text><text xml:space="preserve" font-family="Helvetica-Light,Helvetica" font-size="20.8" fill="#FEFFFF" transform="matrix(1.00, 0.00, -0.00, -1.00, 162.1, 98.8)">o</text><text xml:space="preserve" font-family="Helvetica-Light,Helvetica" font-size="20.8" fill="#FEFFFF" transform="matrix(1.00, 0.00, -0.00, -1.00, 173.7, 98.8)">p</text><text xml:space="preserve" font-family="Helvetica-Light,Helvetica" font-size="20.8" fill="#FEFFFF" transform="matrix(1.00, 0.00, -0.00, -1.00, 186.4, 98.8)">l</text><text xml:space="preserve" font-family="Helvetica-Light,Helvetica" font-size="20.8" fill="#FEFFFF" transform="matrix(1.00, 0.00, -0.00, -1.00, 191.0, 98.8)">e</text><text xml:space="preserve" font-family="Helvetica-Light,Helvetica" font-size="20.8" fill="#FEFFFF" transform="matrix(1.00, 0.00, -0.00, -1.00, 202.5, 98.8)"> </text><text xml:space="preserve" font-family="Helvetica-Light,Helvetica" font-size="20.8" fill="#FEFFFF" transform="matrix(1.00, 0.00, -0.00, -1.00, 208.3, 98.8)">t</text><text xml:space="preserve" font-family="Helvetica-Light,Helvetica" font-size="20.8" fill="#FEFFFF" transform="matrix(1.00, 0.00, -0.00, -1.00, 214.1, 98.8)">e</text><text xml:space="preserve" font-family="Helvetica-Light,Helvetica" font-size="20.8" fill="#FEFFFF" transform="matrix(1.00, 0.00, -0.00, -1.00, 225.7, 98.8)">n</text><text xml:space="preserve" font-family="Helvetica-Light,Helvetica" font-size="20.8" fill="#FEFFFF" transform="matrix(1.00, 0.00, -0.00, -1.00, 237.2, 98.8)">d</text><text xml:space="preserve" font-family="Helvetica-Light,Helvetica" font-size="20.8" fill="#FEFFFF" transform="matrix(1.00, 0.00, -0.00, -1.00, 250.0, 98.8)"> </text><text xml:space="preserve" font-family="Helvetica-Light,Helvetica" font-size="20.8" fill="#FEFFFF" transform="matrix(1.00, 0.00, -0.00, -1.00, 255.7, 98.8)">t</text><text xml:space="preserve" font-family="Helvetica-Light,Helvetica" font-size="20.8" fill="#FEFFFF" transform="matrix(1.00, 0.00, -0.00, -1.00, 261.5, 98.8)">o</text><text xml:space="preserve" font-family="Helvetica-Light,Helvetica" font-size="20.8" fill="#FEFFFF" transform="matrix(1.00, 0.00, -0.00, -1.00, 273.1, 98.8)"> </text><text xml:space="preserve" font-family="Helvetica-Light,Helvetica" font-size="20.8" fill="#FEFFFF" transform="matrix(1.00, 0.00, -0.00, -1.00, 278.9, 98.8)">p</text><text xml:space="preserve" font-family="Helvetica-Light,Helvetica" font-size="20.8" fill="#FEFFFF" transform="matrix(1.00, 0.00, -0.00, -1.00, 291.6, 98.8)">a</text><text xml:space="preserve" font-family="Helvetica-Light,Helvetica" font-size="20.8" fill="#FEFFFF" transform="matrix(1.00, 0.00, -0.00, -1.00, 303.1, 98.8)">y</text><text xml:space="preserve" font-family="Helvetica-Light,Helvetica" font-size="20.8" fill="#FEFFFF" transform="matrix(1.00, 0.00, -0.00, -1.00, 313.5, 98.8)"> </text><text xml:space="preserve" font-family="Helvetica-Light,Helvetica" font-size="20.8" fill="#FEFFFF" transform="matrix(1.00, 0.00, -0.00, -1.00, 319.3, 98.8)">m</text><text xml:space="preserve" font-family="Helvetica-Light,Helvetica" font-size="20.8" fill="#FEFFFF" transform="matrix(1.00, 0.00, -0.00, -1.00, 336.6, 98.8)">o</text><text xml:space="preserve" font-family="Helvetica-Light,Helvetica" font-size="20.8" fill="#FEFFFF" transform="matrix(1.00, 0.00, -0.00, -1.00, 348.2, 98.8)">r</text><text xml:space="preserve" font-family="Helvetica-Light,Helvetica" font-size="20.8" fill="#FEFFFF" transform="matrix(1.00, 0.00, -0.00, -1.00, 354.8, 98.8)">e</text><text xml:space="preserve" font-family="Helvetica-Light,Helvetica" font-size="20.8" fill="#FEFFFF" transform="matrix(1.00, 0.00, -0.00, -1.00, 366.3, 98.8)"> </text><text xml:space="preserve" font-family="Helvetica-Light,Helvetica" font-size="20.8" fill="#FEFFFF" transform="matrix(1.00, 0.00, -0.00, -1.00, 372.1, 98.8)">a</text><text xml:space="preserve" font-family="Helvetica-Light,Helvetica" font-size="20.8" fill="#FEFFFF" transform="matrix(1.00, 0.00, -0.00, -1.00, 383.7, 98.8)">t</text><text xml:space="preserve" font-family="Helvetica-Light,Helvetica" font-size="20.8" fill="#FEFFFF" transform="matrix(1.00, 0.00, -0.00, -1.00, 389.5, 98.8)">t</text><text xml:space="preserve" font-family="Helvetica-Light,Helvetica" font-size="20.8" fill="#FEFFFF" transform="matrix(1.00, 0.00, -0.00, -1.00, 395.2, 98.8)">e</text><text xml:space="preserve" font-family="Helvetica-Light,Helvetica" font-size="20.8" fill="#FEFFFF" transform="matrix(1.00, 0.00, -0.00, -1.00, 406.8, 98.8)">n</text><text xml:space="preserve" font-family="Helvetica-Light,Helvetica" font-size="20.8" fill="#FEFFFF" transform="matrix(1.00, 0.00, -0.00, -1.00, 418.4, 98.8)">t</text><text xml:space="preserve" font-family="Helvetica-Light,Helvetica" font-size="20.8" fill="#FEFFFF" transform="matrix(1.00, 0.00, -0.00, -1.00, 424.2, 98.8)">i</text><text xml:space="preserve" font-family="Helvetica-Light,Helvetica" font-size="20.8" fill="#FEFFFF" transform="matrix(1.00, 0.00, -0.00, -1.00, 428.8, 98.8)">o</text><text xml:space="preserve" font-family="Helvetica-Light,Helvetica" font-size="20.8" fill="#FEFFFF" transform="matrix(1.00, 0.00, -0.00, -1.00, 440.3, 98.8)">n</text><text xml:space="preserve" font-family="Helvetica-Light,Helvetica" font-size="20.8" fill="#FEFFFF" transform="matrix(1.00, 0.00, -0.00, -1.00, 451.9, 98.8)"> </text><text xml:space="preserve" font-family="Helvetica-Light,Helvetica" font-size="20.8" fill="#FEFFFF" transform="matrix(1.00, 0.00, -0.00, -1.00, 457.7, 98.8)">t</text><text xml:space="preserve" font-family="Helvetica-Light,Helvetica" font-size="20.8" fill="#FEFFFF" transform="matrix(1.00, 0.00, -0.00, -1.00, 463.5, 98.8)">o</text><text xml:space="preserve" font-family="Helvetica-Light,Helvetica" font-size="20.8" fill="#FEFFFF" transform="matrix(1.00, 0.00, -0.00, -1.00, 475.0, 98.8)"> </text><text xml:space="preserve" font-family="Helvetica-Light,Helvetica" font-size="20.8" fill="#FEFFFF" transform="matrix(1.00, 0.00, -0.00, -1.00, 480.8, 98.8)">b</text><text xml:space="preserve" font-family="Helvetica-Light,Helvetica" font-size="20.8" fill="#FEFFFF" transform="matrix(1.00, 0.00, -0.00, -1.00, 493.5, 98.8)">a</text><text xml:space="preserve" font-family="Helvetica-Light,Helvetica" font-size="20.8" fill="#FEFFFF" transform="matrix(1.00, 0.00, -0.00, -1.00, 505.1, 98.8)">d</text><text xml:space="preserve" font-family="Helvetica-Light,Helvetica" font-size="20.8" fill="#FEFFFF" transform="matrix(1.00, 0.00, -0.00, -1.00, 517.8, 98.8)"> </text><text xml:space="preserve" font-family="Helvetica-Light,Helvetica" font-size="20.8" fill="#FEFFFF" transform="matrix(1.00, 0.00, -0.00, -1.00, 523.6, 98.8)">n</text><text xml:space="preserve" font-family="Helvetica-Light,Helvetica" font-size="20.8" fill="#FEFFFF" transform="matrix(1.00, 0.00, -0.00, -1.00, 535.1, 98.8)">e</text><text xml:space="preserve" font-family="Helvetica-Light,Helvetica" font-size="20.8" fill="#FEFFFF" transform="matrix(1.00, 0.00, -0.00, -1.00, 546.7, 98.8)">w</text><text xml:space="preserve" font-family="Helvetica-Light,Helvetica" font-size="20.8" fill="#FEFFFF" transform="matrix(1.00, 0.00, -0.00, -1.00, 561.7, 98.8)">s</text><text xml:space="preserve" font-family="Helvetica-Light,Helvetica" font-size="20.8" fill="#FEFFFF" transform="matrix(1.00, 0.00, -0.00, -1.00, 572.1, 98.8)"> </text><text xml:space="preserve" font-family="Helvetica-Light,Helvetica" font-size="20.8" fill="#FEFFFF" transform="matrix(1.00, 0.00, -0.00, -1.00, 577.9, 98.8)">—</text><text xml:space="preserve" font-family="Helvetica-Light,Helvetica" font-size="20.8" fill="#FEFFFF" transform="matrix(1.00, 0.00, -0.00, -1.00, 598.7, 98.8)"> </text><text xml:space="preserve" font-family="Helvetica-Light,Helvetica" font-size="20.8" fill="#FEFFFF" transform="matrix(1.00, 0.00, -0.00, -1.00, 604.5, 98.8)">a</text><text xml:space="preserve" font-family="Helvetica-Light,Helvetica" font-size="20.8" fill="#FEFFFF" transform="matrix(1.00, 0.00, -0.00, -1.00, 616.1, 98.8)">n</text><text xml:space="preserve" font-family="Helvetica-Light,Helvetica" font-size="20.8" fill="#FEFFFF" transform="matrix(1.00, 0.00, -0.00, -1.00, 627.6, 98.8)">d</text><text xml:space="preserve" font-family="Helvetica-Light,Helvetica" font-size="20.8" fill="#FEFFFF" transform="matrix(1.00, 0.00, -0.00, -1.00, 640.3, 98.8)"> </text><text xml:space="preserve" font-family="Helvetica-Light,Helvetica" font-size="20.8" fill="#FEFFFF" transform="matrix(1.00, 0.00, -0.00, -1.00, 646.1, 98.8)">i</text><text xml:space="preserve" font-family="Helvetica-Light,Helvetica" font-size="20.8" fill="#FEFFFF" transform="matrix(1.00, 0.00, -0.00, -1.00, 650.7, 98.8)">t</text><text xml:space="preserve" font-family="Helvetica-Light,Helvetica" font-size="20.8" fill="#FEFFFF" transform="matrix(1.00, 0.00, -0.00, -1.00, 656.5, 98.8)">'</text><text xml:space="preserve" font-family="Helvetica-Light,Helvetica" font-size="20.8" fill="#FEFFFF" transform="matrix(1.00, 0.00, -0.00, -1.00, 661.1, 98.8)">s</text><text xml:space="preserve" font-family="Helvetica-Light,Helvetica" font-size="20.8" fill="#FEFFFF" transform="matrix(1.00, 0.00, -0.00, -1.00, 671.5, 98.8)"> </text><text xml:space="preserve" font-family="Helvetica-Light,Helvetica" font-size="20.8" fill="#FEFFFF" transform="matrix(1.00, 0.00, -0.00, -1.00, 677.3, 98.8)">n</text><text xml:space="preserve" font-family="Helvetica-Light,Helvetica" font-size="20.8" fill="#FEFFFF" transform="matrix(1.00, 0.00, -0.00, -1.00, 688.9, 98.8)">o</text><text xml:space="preserve" font-family="Helvetica-Light,Helvetica" font-size="20.8" fill="#FEFFFF" transform="matrix(1.00, 0.00, -0.00, -1.00, 700.4, 98.8)">t</text><text xml:space="preserve" font-family="Helvetica-Light,Helvetica" font-size="20.8" fill="#FEFFFF" transform="matrix(1.00, 0.00, -0.00, -1.00, 706.2, 98.8)"> </text><text xml:space="preserve" font-family="Helvetica-Light,Helvetica" font-size="20.8" fill="#FEFFFF" transform="matrix(1.00, 0.00, -0.00, -1.00, 712.0, 98.8)">j</text><text xml:space="preserve" font-family="Helvetica-Light,Helvetica" font-size="20.8" fill="#FEFFFF" transform="matrix(1.00, 0.00, -0.00, -1.00, 716.6, 98.8)">u</text><text xml:space="preserve" font-family="Helvetica-Light,Helvetica" font-size="20.8" fill="#FEFFFF" transform="matrix(1.00, 0.00, -0.00, -1.00, 728.2, 98.8)">s</text><text xml:space="preserve" font-family="Helvetica-Light,Helvetica" font-size="20.8" fill="#FEFFFF" transform="matrix(1.00, 0.00, -0.00, -1.00, 738.6, 98.8)">t</text><text xml:space="preserve" font-family="Helvetica-Light,Helvetica" font-size="20.8" fill="#FEFFFF" transform="matrix(1.00, 0.00, -0.00, -1.00, 744.4, 98.8)"> </text><text xml:space="preserve" font-family="Helvetica-Light,Helvetica" font-size="20.8" fill="#FEFFFF" transform="matrix(1.00, 0.00, -0.00, -1.00, 750.1, 98.8)">b</text><text xml:space="preserve" font-family="Helvetica-Light,Helvetica" font-size="20.8" fill="#FEFFFF" transform="matrix(1.00, 0.00, -0.00, -1.00, 762.9, 98.8)">e</text><text xml:space="preserve" font-family="Helvetica-Light,Helvetica" font-size="20.8" fill="#FEFFFF" transform="matrix(1.00, 0.00, -0.00, -1.00, 774.4, 98.8)">c</text><text xml:space="preserve" font-family="Helvetica-Light,Helvetica" font-size="20.8" fill="#FEFFFF" transform="matrix(1.00, 0.00, -0.00, -1.00, 786.0, 98.8)">a</text><text xml:space="preserve" font-family="Helvetica-Light,Helvetica" font-size="20.8" fill="#FEFFFF" transform="matrix(1.00, 0.00, -0.00, -1.00, 797.6, 98.8)">u</text><text xml:space="preserve" font-family="Helvetica-Light,Helvetica" font-size="20.8" fill="#FEFFFF" transform="matrix(1.00, 0.00, -0.00, -1.00, 809.1, 98.8)">s</text><text xml:space="preserve" font-family="Helvetica-Light,Helvetica" font-size="20.8" fill="#FEFFFF" transform="matrix(1.00, 0.00, -0.00, -1.00, 819.5, 98.8)">e</text><text xml:space="preserve" font-family="Helvetica-Light,Helvetica" font-size="20.8" fill="#FEFFFF" transform="matrix(1.00, 0.00, -0.00, -1.00, 831.1, 98.8)"> </text><text xml:space="preserve" font-family="Helvetica-Light,Helvetica" font-size="20.8" fill="#FEFFFF" transform="matrix(1.00, 0.00, -0.00, -1.00, 836.9, 98.8)">w</text><text xml:space="preserve" font-family="Helvetica-Light,Helvetica" font-size="20.8" fill="#FEFFFF" transform="matrix(1.00, 0.00, -0.00, -1.00, 851.9, 98.8)">e</text><text xml:space="preserve" font-family="Helvetica-Light,Helvetica" font-size="20.8" fill="#FEFFFF" transform="matrix(1.00, 0.00, -0.00, -1.00, 863.4, 98.8)">'</text><text xml:space="preserve" font-family="Helvetica-Light,Helvetica" font-size="20.8" fill="#FEFFFF" transform="matrix(1.00, 0.00, -0.00, -1.00, 868.1, 98.8)">r</text><text xml:space="preserve" font-family="Helvetica-Light,Helvetica" font-size="20.8" fill="#FEFFFF" transform="matrix(1.00, 0.00, -0.00, -1.00, 874.6, 98.8)">e</text><text xml:space="preserve" font-family="Helvetica-Light,Helvetica" font-size="20.8" fill="#FEFFFF" transform="matrix(1.00, 0.00, -0.00, -1.00, 886.2, 98.8)"> </text><text xml:space="preserve" font-family="Helvetica-Light,Helvetica" font-size="20.8" fill="#FEFFFF" transform="matrix(1.00, 0.00, -0.00, -1.00, 107.9, 73.8)">m</text><text xml:space="preserve" font-family="Helvetica-Light,Helvetica" font-size="20.8" fill="#FEFFFF" transform="matrix(1.00, 0.00, -0.00, -1.00, 125.3, 73.8)">o</text><text xml:space="preserve" font-family="Helvetica-Light,Helvetica" font-size="20.8" fill="#FEFFFF" transform="matrix(1.00, 0.00, -0.00, -1.00, 136.8, 73.8)">r</text><text xml:space="preserve" font-family="Helvetica-Light,Helvetica" font-size="20.8" fill="#FEFFFF" transform="matrix(1.00, 0.00, -0.00, -1.00, 143.8, 73.8)">b</text><text xml:space="preserve" font-family="Helvetica-Light,Helvetica" font-size="20.8" fill="#FEFFFF" transform="matrix(1.00, 0.00, -0.00, -1.00, 156.5, 73.8)">i</text><text xml:space="preserve" font-family="Helvetica-Light,Helvetica" font-size="20.8" fill="#FEFFFF" transform="matrix(1.00, 0.00, -0.00, -1.00, 161.1, 73.8)">d</text><text xml:space="preserve" font-family="Helvetica-Light,Helvetica" font-size="20.8" fill="#FEFFFF" transform="matrix(1.00, 0.00, -0.00, -1.00, 173.8, 73.8)">.</text><text xml:space="preserve" font-family="Helvetica-Light,Helvetica" font-size="20.8" fill="#FEFFFF" transform="matrix(1.00, 0.00, -0.00, -1.00, 179.6, 73.8)"> </text><text xml:space="preserve" font-family="Helvetica-Light,Helvetica" font-size="20.8" fill="#FEFFFF" transform="matrix(1.00, 0.00, -0.00, -1.00, 185.4, 73.8)">S</text><text xml:space="preserve" font-family="Helvetica-Light,Helvetica" font-size="20.8" fill="#FEFFFF" transform="matrix(1.00, 0.00, -0.00, -1.00, 198.1, 73.8)">o</text><text xml:space="preserve" font-family="Helvetica-Light,Helvetica" font-size="20.8" fill="#FEFFFF" transform="matrix(1.00, 0.00, -0.00, -1.00, 209.6, 73.8)">c</text><text xml:space="preserve" font-family="Helvetica-Light,Helvetica" font-size="20.8" fill="#FEFFFF" transform="matrix(1.00, 0.00, -0.00, -1.00, 221.2, 73.8)">i</text><text xml:space="preserve" font-family="Helvetica-Light,Helvetica" font-size="20.8" fill="#FEFFFF" transform="matrix(1.00, 0.00, -0.00, -1.00, 225.8, 73.8)">a</text><text xml:space="preserve" font-family="Helvetica-Light,Helvetica" font-size="20.8" fill="#FEFFFF" transform="matrix(1.00, 0.00, -0.00, -1.00, 237.4, 73.8)">l</text><text xml:space="preserve" font-family="Helvetica-Light,Helvetica" font-size="20.8" fill="#FEFFFF" transform="matrix(1.00, 0.00, -0.00, -1.00, 242.0, 73.8)"> </text><text xml:space="preserve" font-family="Helvetica-Light,Helvetica" font-size="20.8" fill="#FEFFFF" transform="matrix(1.00, 0.00, -0.00, -1.00, 247.8, 73.8)">s</text><text xml:space="preserve" font-family="Helvetica-Light,Helvetica" font-size="20.8" fill="#FEFFFF" transform="matrix(1.00, 0.00, -0.00, -1.00, 258.2, 73.8)">c</text><text xml:space="preserve" font-family="Helvetica-Light,Helvetica" font-size="20.8" fill="#FEFFFF" transform="matrix(1.00, 0.00, -0.00, -1.00, 269.7, 73.8)">i</text><text xml:space="preserve" font-family="Helvetica-Light,Helvetica" font-size="20.8" fill="#FEFFFF" transform="matrix(1.00, 0.00, -0.00, -1.00, 274.4, 73.8)">e</text><text xml:space="preserve" font-family="Helvetica-Light,Helvetica" font-size="20.8" fill="#FEFFFF" transform="matrix(1.00, 0.00, -0.00, -1.00, 285.9, 73.8)">n</text><text xml:space="preserve" font-family="Helvetica-Light,Helvetica" font-size="20.8" fill="#FEFFFF" transform="matrix(1.00, 0.00, -0.00, -1.00, 297.5, 73.8)">t</text><text xml:space="preserve" font-family="Helvetica-Light,Helvetica" font-size="20.8" fill="#FEFFFF" transform="matrix(1.00, 0.00, -0.00, -1.00, 303.3, 73.8)">i</text><text xml:space="preserve" font-family="Helvetica-Light,Helvetica" font-size="20.8" fill="#FEFFFF" transform="matrix(1.00, 0.00, -0.00, -1.00, 307.9, 73.8)">s</text><text xml:space="preserve" font-family="Helvetica-Light,Helvetica" font-size="20.8" fill="#FEFFFF" transform="matrix(1.00, 0.00, -0.00, -1.00, 318.3, 73.8)">t</text><text xml:space="preserve" font-family="Helvetica-Light,Helvetica" font-size="20.8" fill="#FEFFFF" transform="matrix(1.00, 0.00, -0.00, -1.00, 324.1, 73.8)">s</text><text xml:space="preserve" font-family="Helvetica-Light,Helvetica" font-size="20.8" fill="#FEFFFF" transform="matrix(1.00, 0.00, -0.00, -1.00, 334.5, 73.8)"> </text><text xml:space="preserve" font-family="Helvetica-Light,Helvetica" font-size="20.8" fill="#FEFFFF" transform="matrix(1.00, 0.00, -0.00, -1.00, 340.3, 73.8)">t</text><text xml:space="preserve" font-family="Helvetica-Light,Helvetica" font-size="20.8" fill="#FEFFFF" transform="matrix(1.00, 0.00, -0.00, -1.00, 346.0, 73.8)">h</text><text xml:space="preserve" font-family="Helvetica-Light,Helvetica" font-size="20.8" fill="#FEFFFF" transform="matrix(1.00, 0.00, -0.00, -1.00, 357.6, 73.8)">e</text><text xml:space="preserve" font-family="Helvetica-Light,Helvetica" font-size="20.8" fill="#FEFFFF" transform="matrix(1.00, 0.00, -0.00, -1.00, 369.2, 73.8)">o</text><text xml:space="preserve" font-family="Helvetica-Light,Helvetica" font-size="20.8" fill="#FEFFFF" transform="matrix(1.00, 0.00, -0.00, -1.00, 380.7, 73.8)">r</text><text xml:space="preserve" font-family="Helvetica-Light,Helvetica" font-size="20.8" fill="#FEFFFF" transform="matrix(1.00, 0.00, -0.00, -1.00, 387.7, 73.8)">i</text><text xml:space="preserve" font-family="Helvetica-Light,Helvetica" font-size="20.8" fill="#FEFFFF" transform="matrix(1.00, 0.00, -0.00, -1.00, 392.3, 73.8)">z</text><text xml:space="preserve" font-family="Helvetica-Light,Helvetica" font-size="20.8" fill="#FEFFFF" transform="matrix(1.00, 0.00, -0.00, -1.00, 402.7, 73.8)">e</text><text xml:space="preserve" font-family="Helvetica-Light,Helvetica" font-size="20.8" fill="#FEFFFF" transform="matrix(1.00, 0.00, -0.00, -1.00, 414.2, 73.8)"> </text><text xml:space="preserve" font-family="Helvetica-Light,Helvetica" font-size="20.8" fill="#FEFFFF" transform="matrix(1.00, 0.00, -0.00, -1.00, 420.0, 73.8)">t</text><text xml:space="preserve" font-family="Helvetica-Light,Helvetica" font-size="20.8" fill="#FEFFFF" transform="matrix(1.00, 0.00, -0.00, -1.00, 425.8, 73.8)">h</text><text xml:space="preserve" font-family="Helvetica-Light,Helvetica" font-size="20.8" fill="#FEFFFF" transform="matrix(1.00, 0.00, -0.00, -1.00, 437.4, 73.8)">a</text><text xml:space="preserve" font-family="Helvetica-Light,Helvetica" font-size="20.8" fill="#FEFFFF" transform="matrix(1.00, 0.00, -0.00, -1.00, 448.9, 73.8)">t</text><text xml:space="preserve" font-family="Helvetica-Light,Helvetica" font-size="20.8" fill="#FEFFFF" transform="matrix(1.00, 0.00, -0.00, -1.00, 454.7, 73.8)"> </text><text xml:space="preserve" font-family="Helvetica-Light,Helvetica" font-size="20.8" fill="#FEFFFF" transform="matrix(1.00, 0.00, -0.00, -1.00, 460.5, 73.8)">i</text><text xml:space="preserve" font-family="Helvetica-Light,Helvetica" font-size="20.8" fill="#FEFFFF" transform="matrix(1.00, 0.00, -0.00, -1.00, 465.1, 73.8)">t</text><text xml:space="preserve" font-family="Helvetica-Light,Helvetica" font-size="20.8" fill="#FEFFFF" transform="matrix(1.00, 0.00, -0.00, -1.00, 470.9, 73.8)">'</text><text xml:space="preserve" font-family="Helvetica-Light,Helvetica" font-size="20.8" fill="#FEFFFF" transform="matrix(1.00, 0.00, -0.00, -1.00, 475.5, 73.8)">s</text><text xml:space="preserve" font-family="Helvetica-Light,Helvetica" font-size="20.8" fill="#FEFFFF" transform="matrix(1.00, 0.00, -0.00, -1.00, 485.9, 73.8)"> </text><text xml:space="preserve" font-family="Helvetica-Light,Helvetica" font-size="20.8" fill="#FEFFFF" transform="matrix(1.00, 0.00, -0.00, -1.00, 491.7, 73.8)">o</text><text xml:space="preserve" font-family="Helvetica-Light,Helvetica" font-size="20.8" fill="#FEFFFF" transform="matrix(1.00, 0.00, -0.00, -1.00, 503.3, 73.8)">n</text><text xml:space="preserve" font-family="Helvetica-Light,Helvetica" font-size="20.8" fill="#FEFFFF" transform="matrix(1.00, 0.00, -0.00, -1.00, 514.8, 73.8)"> </text><text xml:space="preserve" font-family="Helvetica-Light,Helvetica" font-size="20.8" fill="#FEFFFF" transform="matrix(1.00, 0.00, -0.00, -1.00, 520.6, 73.8)">a</text><text xml:space="preserve" font-family="Helvetica-Light,Helvetica" font-size="20.8" fill="#FEFFFF" transform="matrix(1.00, 0.00, -0.00, -1.00, 532.2, 73.8)">c</text><text xml:space="preserve" font-family="Helvetica-Light,Helvetica" font-size="20.8" fill="#FEFFFF" transform="matrix(1.00, 0.00, -0.00, -1.00, 543.7, 73.8)">c</text><text xml:space="preserve" font-family="Helvetica-Light,Helvetica" font-size="20.8" fill="#FEFFFF" transform="matrix(1.00, 0.00, -0.00, -1.00, 555.3, 73.8)">o</text><text xml:space="preserve" font-family="Helvetica-Light,Helvetica" font-size="20.8" fill="#FEFFFF" transform="matrix(1.00, 0.00, -0.00, -1.00, 566.9, 73.8)">u</text><text xml:space="preserve" font-family="Helvetica-Light,Helvetica" font-size="20.8" fill="#FEFFFF" transform="matrix(1.00, 0.00, -0.00, -1.00, 578.4, 73.8)">n</text><text xml:space="preserve" font-family="Helvetica-Light,Helvetica" font-size="20.8" fill="#FEFFFF" transform="matrix(1.00, 0.00, -0.00, -1.00, 590.0, 73.8)">t</text><text xml:space="preserve" font-family="Helvetica-Light,Helvetica" font-size="20.8" fill="#FEFFFF" transform="matrix(1.00, 0.00, -0.00, -1.00, 595.8, 73.8)"> </text><text xml:space="preserve" font-family="Helvetica-Light,Helvetica" font-size="20.8" fill="#FEFFFF" transform="matrix(1.00, 0.00, -0.00, -1.00, 601.6, 73.8)">o</text><text xml:space="preserve" font-family="Helvetica-Light,Helvetica" font-size="20.8" fill="#FEFFFF" transform="matrix(1.00, 0.00, -0.00, -1.00, 613.1, 73.8)">f</text><text xml:space="preserve" font-family="Helvetica-Light,Helvetica" font-size="20.8" fill="#FEFFFF" transform="matrix(1.00, 0.00, -0.00, -1.00, 618.9, 73.8)"> </text><text xml:space="preserve" font-family="Helvetica-Light,Helvetica" font-size="20.8" fill="#FEFFFF" transform="matrix(1.00, 0.00, -0.00, -1.00, 624.7, 73.8)">o</text><text xml:space="preserve" font-family="Helvetica-Light,Helvetica" font-size="20.8" fill="#FEFFFF" transform="matrix(1.00, 0.00, -0.00, -1.00, 636.3, 73.8)">u</text><text xml:space="preserve" font-family="Helvetica-Light,Helvetica" font-size="20.8" fill="#FEFFFF" transform="matrix(1.00, 0.00, -0.00, -1.00, 647.8, 73.8)">r</text><text xml:space="preserve" font-family="Helvetica-Light,Helvetica" font-size="20.8" fill="#FEFFFF" transform="matrix(1.00, 0.00, -0.00, -1.00, 654.8, 73.8)"> </text><text xml:space="preserve" font-family="Helvetica-Light,Helvetica" font-size="20.8" fill="#FEFFFF" transform="matrix(1.00, 0.00, -0.00, -1.00, 660.5, 73.8)">s</text><text xml:space="preserve" font-family="Helvetica-Light,Helvetica" font-size="20.8" fill="#FEFFFF" transform="matrix(1.00, 0.00, -0.00, -1.00, 670.9, 73.8)">e</text><text xml:space="preserve" font-family="Helvetica-Light,Helvetica" font-size="20.8" fill="#FEFFFF" transform="matrix(1.00, 0.00, -0.00, -1.00, 682.5, 73.8)">l</text><text xml:space="preserve" font-family="Helvetica-Light,Helvetica" font-size="20.8" fill="#FEFFFF" transform="matrix(1.00, 0.00, -0.00, -1.00, 687.1, 73.8)">e</text><text xml:space="preserve" font-family="Helvetica-Light,Helvetica" font-size="20.8" fill="#FEFFFF" transform="matrix(1.00, 0.00, -0.00, -1.00, 698.7, 73.8)">c</text><text xml:space="preserve" font-family="Helvetica-Light,Helvetica" font-size="20.8" fill="#FEFFFF" transform="matrix(1.00, 0.00, -0.00, -1.00, 710.2, 73.8)">t</text><text xml:space="preserve" font-family="Helvetica-Light,Helvetica" font-size="20.8" fill="#FEFFFF" transform="matrix(1.00, 0.00, -0.00, -1.00, 716.0, 73.8)">i</text><text xml:space="preserve" font-family="Helvetica-Light,Helvetica" font-size="20.8" fill="#FEFFFF" transform="matrix(1.00, 0.00, -0.00, -1.00, 720.6, 73.8)">v</text><text xml:space="preserve" font-family="Helvetica-Light,Helvetica" font-size="20.8" fill="#FEFFFF" transform="matrix(1.00, 0.00, -0.00, -1.00, 731.0, 73.8)">e</text><text xml:space="preserve" font-family="Helvetica-Light,Helvetica" font-size="20.8" fill="#FEFFFF" transform="matrix(1.00, 0.00, -0.00, -1.00, 742.6, 73.8)"> </text><text xml:space="preserve" font-family="Helvetica-Light,Helvetica" font-size="20.8" fill="#FEFFFF" transform="matrix(1.00, 0.00, -0.00, -1.00, 748.4, 73.8)">a</text><text xml:space="preserve" font-family="Helvetica-Light,Helvetica" font-size="20.8" fill="#FEFFFF" transform="matrix(1.00, 0.00, -0.00, -1.00, 760.0, 73.8)">t</text><text xml:space="preserve" font-family="Helvetica-Light,Helvetica" font-size="20.8" fill="#FEFFFF" transform="matrix(1.00, 0.00, -0.00, -1.00, 765.7, 73.8)">t</text><text xml:space="preserve" font-family="Helvetica-Light,Helvetica" font-size="20.8" fill="#FEFFFF" transform="matrix(1.00, 0.00, -0.00, -1.00, 771.5, 73.8)">e</text><text xml:space="preserve" font-family="Helvetica-Light,Helvetica" font-size="20.8" fill="#FEFFFF" transform="matrix(1.00, 0.00, -0.00, -1.00, 783.1, 73.8)">n</text><text xml:space="preserve" font-family="Helvetica-Light,Helvetica" font-size="20.8" fill="#FEFFFF" transform="matrix(1.00, 0.00, -0.00, -1.00, 794.7, 73.8)">t</text><text xml:space="preserve" font-family="Helvetica-Light,Helvetica" font-size="20.8" fill="#FEFFFF" transform="matrix(1.00, 0.00, -0.00, -1.00, 800.4, 73.8)">i</text><text xml:space="preserve" font-family="Helvetica-Light,Helvetica" font-size="20.8" fill="#FEFFFF" transform="matrix(1.00, 0.00, -0.00, -1.00, 805.1, 73.8)">o</text><text xml:space="preserve" font-family="Helvetica-Light,Helvetica" font-size="20.8" fill="#FEFFFF" transform="matrix(1.00, 0.00, -0.00, -1.00, 816.6, 73.8)">n</text><text xml:space="preserve" font-family="Helvetica-Light,Helvetica" font-size="20.8" fill="#FEFFFF" transform="matrix(1.00, 0.00, -0.00, -1.00, 828.2, 73.8)"> </text><text xml:space="preserve" font-family="Helvetica-Light,Helvetica" font-size="20.8" fill="#FEFFFF" transform="matrix(1.00, 0.00, -0.00, -1.00, 834.0, 73.8)">a</text><text xml:space="preserve" font-family="Helvetica-Light,Helvetica" font-size="20.8" fill="#FEFFFF" transform="matrix(1.00, 0.00, -0.00, -1.00, 845.5, 73.8)">n</text><text xml:space="preserve" font-family="Helvetica-Light,Helvetica" font-size="20.8" fill="#FEFFFF" transform="matrix(1.00, 0.00, -0.00, -1.00, 857.1, 73.8)">d</text><text xml:space="preserve" font-family="Helvetica-Light,Helvetica" font-size="20.8" fill="#FEFFFF" transform="matrix(1.00, 0.00, -0.00, -1.00, 869.8, 73.8)"> </text><text xml:space="preserve" font-family="Helvetica-Light,Helvetica" font-size="20.8" fill="#FEFFFF" transform="matrix(1.00, 0.00, -0.00, -1.00, 875.6, 73.8)">t</text><text xml:space="preserve" font-family="Helvetica-Light,Helvetica" font-size="20.8" fill="#FEFFFF" transform="matrix(1.00, 0.00, -0.00, -1.00, 881.4, 73.8)">h</text><text xml:space="preserve" font-family="Helvetica-Light,Helvetica" font-size="20.8" fill="#FEFFFF" transform="matrix(1.00, 0.00, -0.00, -1.00, 892.9, 73.8)">a</text><text xml:space="preserve" font-family="Helvetica-Light,Helvetica" font-size="20.8" fill="#FEFFFF" transform="matrix(1.00, 0.00, -0.00, -1.00, 904.5, 73.8)">t</text><text xml:space="preserve" font-family="Helvetica-Light,Helvetica" font-size="20.8" fill="#FEFFFF" transform="matrix(1.00, 0.00, -0.00, -1.00, 910.3, 73.8)">,</text><text xml:space="preserve" font-family="Helvetica-Light,Helvetica" font-size="20.8" fill="#FEFFFF" transform="matrix(1.00, 0.00, -0.00, -1.00, 916.1, 73.8)"> </text><text xml:space="preserve" font-family="Helvetica-Light,Helvetica" font-size="20.8" fill="#FEFFFF" transform="matrix(1.00, 0.00, -0.00, -1.00, 126.3, 48.8)">g</text><text xml:space="preserve" font-family="Helvetica-Light,Helvetica" font-size="20.8" fill="#FEFFFF" transform="matrix(1.00, 0.00, -0.00, -1.00, 139.0, 48.8)">i</text><text xml:space="preserve" font-family="Helvetica-Light,Helvetica" font-size="20.8" fill="#FEFFFF" transform="matrix(1.00, 0.00, -0.00, -1.00, 143.6, 48.8)">v</text><text xml:space="preserve" font-family="Helvetica-Light,Helvetica" font-size="20.8" fill="#FEFFFF" transform="matrix(1.00, 0.00, -0.00, -1.00, 154.0, 48.8)">e</text><text xml:space="preserve" font-family="Helvetica-Light,Helvetica" font-size="20.8" fill="#FEFFFF" transform="matrix(1.00, 0.00, -0.00, -1.00, 165.6, 48.8)">n</text><text xml:space="preserve" font-family="Helvetica-Light,Helvetica" font-size="20.8" fill="#FEFFFF" transform="matrix(1.00, 0.00, -0.00, -1.00, 177.1, 48.8)"> </text><text xml:space="preserve" font-family="Helvetica-Light,Helvetica" font-size="20.8" fill="#FEFFFF" transform="matrix(1.00, 0.00, -0.00, -1.00, 182.9, 48.8)">t</text><text xml:space="preserve" font-family="Helvetica-Light,Helvetica" font-size="20.8" fill="#FEFFFF" transform="matrix(1.00, 0.00, -0.00, -1.00, 188.7, 48.8)">h</text><text xml:space="preserve" font-family="Helvetica-Light,Helvetica" font-size="20.8" fill="#FEFFFF" transform="matrix(1.00, 0.00, -0.00, -1.00, 200.3, 48.8)">e</text><text xml:space="preserve" font-family="Helvetica-Light,Helvetica" font-size="20.8" fill="#FEFFFF" transform="matrix(1.00, 0.00, -0.00, -1.00, 211.8, 48.8)"> </text><text xml:space="preserve" font-family="Helvetica-Light,Helvetica" font-size="20.8" fill="#FEFFFF" transform="matrix(1.00, 0.00, -0.00, -1.00, 217.6, 48.8)">c</text><text xml:space="preserve" font-family="Helvetica-Light,Helvetica" font-size="20.8" fill="#FEFFFF" transform="matrix(1.00, 0.00, -0.00, -1.00, 229.2, 48.8)">h</text><text xml:space="preserve" font-family="Helvetica-Light,Helvetica" font-size="20.8" fill="#FEFFFF" transform="matrix(1.00, 0.00, -0.00, -1.00, 240.7, 48.8)">o</text><text xml:space="preserve" font-family="Helvetica-Light,Helvetica" font-size="20.8" fill="#FEFFFF" transform="matrix(1.00, 0.00, -0.00, -1.00, 252.3, 48.8)">i</text><text xml:space="preserve" font-family="Helvetica-Light,Helvetica" font-size="20.8" fill="#FEFFFF" transform="matrix(1.00, 0.00, -0.00, -1.00, 256.9, 48.8)">c</text><text xml:space="preserve" font-family="Helvetica-Light,Helvetica" font-size="20.8" fill="#FEFFFF" transform="matrix(1.00, 0.00, -0.00, -1.00, 268.5, 48.8)">e</text><text xml:space="preserve" font-family="Helvetica-Light,Helvetica" font-size="20.8" fill="#FEFFFF" transform="matrix(1.00, 0.00, -0.00, -1.00, 280.0, 48.8)">,</text><text xml:space="preserve" font-family="Helvetica-Light,Helvetica" font-size="20.8" fill="#FEFFFF" transform="matrix(1.00, 0.00, -0.00, -1.00, 285.8, 48.8)"> </text><text xml:space="preserve" font-family="Helvetica-Light,Helvetica" font-size="20.8" fill="#FEFFFF" transform="matrix(1.00, 0.00, -0.00, -1.00, 291.6, 48.8)">w</text><text xml:space="preserve" font-family="Helvetica-Light,Helvetica" font-size="20.8" fill="#FEFFFF" transform="matrix(1.00, 0.00, -0.00, -1.00, 306.6, 48.8)">e</text><text xml:space="preserve" font-family="Helvetica-Light,Helvetica" font-size="20.8" fill="#FEFFFF" transform="matrix(1.00, 0.00, -0.00, -1.00, 318.2, 48.8)"> </text><text xml:space="preserve" font-family="Helvetica-Light,Helvetica" font-size="20.8" fill="#FEFFFF" transform="matrix(1.00, 0.00, -0.00, -1.00, 324.0, 48.8)">p</text><text xml:space="preserve" font-family="Helvetica-Light,Helvetica" font-size="20.8" fill="#FEFFFF" transform="matrix(1.00, 0.00, -0.00, -1.00, 336.7, 48.8)">e</text><text xml:space="preserve" font-family="Helvetica-Light,Helvetica" font-size="20.8" fill="#FEFFFF" transform="matrix(1.00, 0.00, -0.00, -1.00, 348.3, 48.8)">r</text><text xml:space="preserve" font-family="Helvetica-Light,Helvetica" font-size="20.8" fill="#FEFFFF" transform="matrix(1.00, 0.00, -0.00, -1.00, 354.8, 48.8)">c</text><text xml:space="preserve" font-family="Helvetica-Light,Helvetica" font-size="20.8" fill="#FEFFFF" transform="matrix(1.00, 0.00, -0.00, -1.00, 366.4, 48.8)">e</text><text xml:space="preserve" font-family="Helvetica-Light,Helvetica" font-size="20.8" fill="#FEFFFF" transform="matrix(1.00, 0.00, -0.00, -1.00, 377.9, 48.8)">i</text><text xml:space="preserve" font-family="Helvetica-Light,Helvetica" font-size="20.8" fill="#FEFFFF" transform="matrix(1.00, 0.00, -0.00, -1.00, 382.6, 48.8)">v</text><text xml:space="preserve" font-family="Helvetica-Light,Helvetica" font-size="20.8" fill="#FEFFFF" transform="matrix(1.00, 0.00, -0.00, -1.00, 393.0, 48.8)">e</text><text xml:space="preserve" font-family="Helvetica-Light,Helvetica" font-size="20.8" fill="#FEFFFF" transform="matrix(1.00, 0.00, -0.00, -1.00, 404.5, 48.8)"> </text><text xml:space="preserve" font-family="Helvetica-Light,Helvetica" font-size="20.8" fill="#FEFFFF" transform="matrix(1.00, 0.00, -0.00, -1.00, 410.3, 48.8)">n</text><text xml:space="preserve" font-family="Helvetica-Light,Helvetica" font-size="20.8" fill="#FEFFFF" transform="matrix(1.00, 0.00, -0.00, -1.00, 421.9, 48.8)">e</text><text xml:space="preserve" font-family="Helvetica-Light,Helvetica" font-size="20.8" fill="#FEFFFF" transform="matrix(1.00, 0.00, -0.00, -1.00, 433.4, 48.8)">g</text><text xml:space="preserve" font-family="Helvetica-Light,Helvetica" font-size="20.8" fill="#FEFFFF" transform="matrix(1.00, 0.00, -0.00, -1.00, 446.1, 48.8)">a</text><text xml:space="preserve" font-family="Helvetica-Light,Helvetica" font-size="20.8" fill="#FEFFFF" transform="matrix(1.00, 0.00, -0.00, -1.00, 457.7, 48.8)">t</text><text xml:space="preserve" font-family="Helvetica-Light,Helvetica" font-size="20.8" fill="#FEFFFF" transform="matrix(1.00, 0.00, -0.00, -1.00, 463.5, 48.8)">i</text><text xml:space="preserve" font-family="Helvetica-Light,Helvetica" font-size="20.8" fill="#FEFFFF" transform="matrix(1.00, 0.00, -0.00, -1.00, 468.1, 48.8)">v</text><text xml:space="preserve" font-family="Helvetica-Light,Helvetica" font-size="20.8" fill="#FEFFFF" transform="matrix(1.00, 0.00, -0.00, -1.00, 478.5, 48.8)">e</text><text xml:space="preserve" font-family="Helvetica-Light,Helvetica" font-size="20.8" fill="#FEFFFF" transform="matrix(1.00, 0.00, -0.00, -1.00, 490.1, 48.8)"> </text><text xml:space="preserve" font-family="Helvetica-Light,Helvetica" font-size="20.8" fill="#FEFFFF" transform="matrix(1.00, 0.00, -0.00, -1.00, 495.8, 48.8)">n</text><text xml:space="preserve" font-family="Helvetica-Light,Helvetica" font-size="20.8" fill="#FEFFFF" transform="matrix(1.00, 0.00, -0.00, -1.00, 507.4, 48.8)">e</text><text xml:space="preserve" font-family="Helvetica-Light,Helvetica" font-size="20.8" fill="#FEFFFF" transform="matrix(1.00, 0.00, -0.00, -1.00, 519.0, 48.8)">w</text><text xml:space="preserve" font-family="Helvetica-Light,Helvetica" font-size="20.8" fill="#FEFFFF" transform="matrix(1.00, 0.00, -0.00, -1.00, 534.0, 48.8)">s</text><text xml:space="preserve" font-family="Helvetica-Light,Helvetica" font-size="20.8" fill="#FEFFFF" transform="matrix(1.00, 0.00, -0.00, -1.00, 544.4, 48.8)"> </text><text xml:space="preserve" font-family="Helvetica-Light,Helvetica" font-size="20.8" fill="#FEFFFF" transform="matrix(1.00, 0.00, -0.00, -1.00, 550.2, 48.8)">a</text><text xml:space="preserve" font-family="Helvetica-Light,Helvetica" font-size="20.8" fill="#FEFFFF" transform="matrix(1.00, 0.00, -0.00, -1.00, 561.7, 48.8)">s</text><text xml:space="preserve" font-family="Helvetica-Light,Helvetica" font-size="20.8" fill="#FEFFFF" transform="matrix(1.00, 0.00, -0.00, -1.00, 572.1, 48.8)"> </text><text xml:space="preserve" font-family="Helvetica-Light,Helvetica" font-size="20.8" fill="#FEFFFF" transform="matrix(1.00, 0.00, -0.00, -1.00, 577.9, 48.8)">b</text><text xml:space="preserve" font-family="Helvetica-Light,Helvetica" font-size="20.8" fill="#FEFFFF" transform="matrix(1.00, 0.00, -0.00, -1.00, 590.6, 48.8)">e</text><text xml:space="preserve" font-family="Helvetica-Light,Helvetica" font-size="20.8" fill="#FEFFFF" transform="matrix(1.00, 0.00, -0.00, -1.00, 602.2, 48.8)">i</text><text xml:space="preserve" font-family="Helvetica-Light,Helvetica" font-size="20.8" fill="#FEFFFF" transform="matrix(1.00, 0.00, -0.00, -1.00, 606.8, 48.8)">n</text><text xml:space="preserve" font-family="Helvetica-Light,Helvetica" font-size="20.8" fill="#FEFFFF" transform="matrix(1.00, 0.00, -0.00, -1.00, 618.4, 48.8)">g</text><text xml:space="preserve" font-family="Helvetica-Light,Helvetica" font-size="20.8" fill="#FEFFFF" transform="matrix(1.00, 0.00, -0.00, -1.00, 631.1, 48.8)"> </text><text xml:space="preserve" font-family="Helvetica-Light,Helvetica" font-size="20.8" fill="#FEFFFF" transform="matrix(1.00, 0.00, -0.00, -1.00, 636.9, 48.8)">m</text><text xml:space="preserve" font-family="Helvetica-Light,Helvetica" font-size="20.8" fill="#FEFFFF" transform="matrix(1.00, 0.00, -0.00, -1.00, 654.2, 48.8)">o</text><text xml:space="preserve" font-family="Helvetica-Light,Helvetica" font-size="20.8" fill="#FEFFFF" transform="matrix(1.00, 0.00, -0.00, -1.00, 665.8, 48.8)">r</text><text xml:space="preserve" font-family="Helvetica-Light,Helvetica" font-size="20.8" fill="#FEFFFF" transform="matrix(1.00, 0.00, -0.00, -1.00, 672.3, 48.8)">e</text><text xml:space="preserve" font-family="Helvetica-Light,Helvetica" font-size="20.8" fill="#FEFFFF" transform="matrix(1.00, 0.00, -0.00, -1.00, 683.9, 48.8)"> </text><text xml:space="preserve" font-family="Helvetica-Light,Helvetica" font-size="20.8" fill="#FEFFFF" transform="matrix(1.00, 0.00, -0.00, -1.00, 689.7, 48.8)">i</text><text xml:space="preserve" font-family="Helvetica-Light,Helvetica" font-size="20.8" fill="#FEFFFF" transform="matrix(1.00, 0.00, -0.00, -1.00, 694.3, 48.8)">m</text><text xml:space="preserve" font-family="Helvetica-Light,Helvetica" font-size="20.8" fill="#FEFFFF" transform="matrix(1.00, 0.00, -0.00, -1.00, 711.6, 48.8)">p</text><text xml:space="preserve" font-family="Helvetica-Light,Helvetica" font-size="20.8" fill="#FEFFFF" transform="matrix(1.00, 0.00, -0.00, -1.00, 724.3, 48.8)">o</text><text xml:space="preserve" font-family="Helvetica-Light,Helvetica" font-size="20.8" fill="#FEFFFF" transform="matrix(1.00, 0.00, -0.00, -1.00, 735.9, 48.8)">r</text><text xml:space="preserve" font-family="Helvetica-Light,Helvetica" font-size="20.8" fill="#FEFFFF" transform="matrix(1.00, 0.00, -0.00, -1.00, 743.2, 48.8)">t</text><text xml:space="preserve" font-family="Helvetica-Light,Helvetica" font-size="20.8" fill="#FEFFFF" transform="matrix(1.00, 0.00, -0.00, -1.00, 749.0, 48.8)">a</text><text xml:space="preserve" font-family="Helvetica-Light,Helvetica" font-size="20.8" fill="#FEFFFF" transform="matrix(1.00, 0.00, -0.00, -1.00, 760.5, 48.8)">n</text><text xml:space="preserve" font-family="Helvetica-Light,Helvetica" font-size="20.8" fill="#FEFFFF" transform="matrix(1.00, 0.00, -0.00, -1.00, 772.1, 48.8)">t</text><text xml:space="preserve" font-family="Helvetica-Light,Helvetica" font-size="20.8" fill="#FEFFFF" transform="matrix(1.00, 0.00, -0.00, -1.00, 777.9, 48.8)"> </text><text xml:space="preserve" font-family="Helvetica-Light,Helvetica" font-size="20.8" fill="#FEFFFF" transform="matrix(1.00, 0.00, -0.00, -1.00, 783.7, 48.8)">o</text><text xml:space="preserve" font-family="Helvetica-Light,Helvetica" font-size="20.8" fill="#FEFFFF" transform="matrix(1.00, 0.00, -0.00, -1.00, 795.2, 48.8)">r</text><text xml:space="preserve" font-family="Helvetica-Light,Helvetica" font-size="20.8" fill="#FEFFFF" transform="matrix(1.00, 0.00, -0.00, -1.00, 802.1, 48.8)"> </text><text xml:space="preserve" font-family="Helvetica-Light,Helvetica" font-size="20.8" fill="#FEFFFF" transform="matrix(1.00, 0.00, -0.00, -1.00, 807.9, 48.8)">p</text><text xml:space="preserve" font-family="Helvetica-Light,Helvetica" font-size="20.8" fill="#FEFFFF" transform="matrix(1.00, 0.00, -0.00, -1.00, 820.6, 48.8)">r</text><text xml:space="preserve" font-family="Helvetica-Light,Helvetica" font-size="20.8" fill="#FEFFFF" transform="matrix(1.00, 0.00, -0.00, -1.00, 827.2, 48.8)">o</text><text xml:space="preserve" font-family="Helvetica-Light,Helvetica" font-size="20.8" fill="#FEFFFF" transform="matrix(1.00, 0.00, -0.00, -1.00, 838.8, 48.8)">f</text><text xml:space="preserve" font-family="Helvetica-Light,Helvetica" font-size="20.8" fill="#FEFFFF" transform="matrix(1.00, 0.00, -0.00, -1.00, 844.5, 48.8)">o</text><text xml:space="preserve" font-family="Helvetica-Light,Helvetica" font-size="20.8" fill="#FEFFFF" transform="matrix(1.00, 0.00, -0.00, -1.00, 856.1, 48.8)">u</text><text xml:space="preserve" font-family="Helvetica-Light,Helvetica" font-size="20.8" fill="#FEFFFF" transform="matrix(1.00, 0.00, -0.00, -1.00, 867.7, 48.8)">n</text><text xml:space="preserve" font-family="Helvetica-Light,Helvetica" font-size="20.8" fill="#FEFFFF" transform="matrix(1.00, 0.00, -0.00, -1.00, 879.2, 48.8)">d</text><text xml:space="preserve" font-family="Helvetica-Light,Helvetica" font-size="20.8" fill="#FEFFFF" transform="matrix(1.00, 0.00, -0.00, -1.00, 891.9, 48.8)">.</text><image xlink:href="../../C9545243-D560-4A8C-8E39-C1E20D76AE79/assets/1821C6A4CC38BA382F9BA00242485C82.png" width="512.00" height="384.00" transform="matrix(1.00, 0.00, -0.00, -1.00, 256.0, 677.0)"></image></g></svg>