<?xml version="1.0" encoding="UTF-8" standalone="no"?><svg xmlns="http://www.w3.org/2000/svg" xmlns:xlink="http://www.w3.org/1999/xlink" clip-rule="evenodd" stroke-miterlimit="10" viewBox="0 0 1024 768"><desc>SVG generated by Keynote</desc><defs></defs><g transform="matrix(1.00, 0.00, -0.00, -1.00, 0.0, 768.0)"><g><clipPath id="clip0x6180004bbd20"><path d="M 0.0 768.0 L 1024.0 768.0 L 1024.0 0.0 L 0.0 0.0 Z M 0.0 768.0 "></path></clipPath><g clip-path="url(#clip0x6180004bbd20)"><image xlink:href="../../A458083D-D69B-45C4-902F-6A2AFF5FFDFF/assets/C69F8A4BB357ABB1A0F95B8BFBB7E603.jpeg" width="2048.00" height="1536.00" transform="matrix(0.50, 0.00, -0.00, -0.50, 0.0, 768.0)"></image></g></g><path d="M 281.0 429.0 L 722.0 429.0 L 722.0 122.0 L 281.0 122.0 Z M 280.5 429.5 " fill="#FEFFFE"></path><path d="M 0.5 0.5 L 441.5 0.5 L 441.5 307.5 L 0.5 307.5 Z M 0.0 0.0 " fill="none" stroke="#FEFFFF" stroke-width="2.00" transform="matrix(1.00, 0.00, 0.00, -1.00, 280.5, 429.5)"></path><text xml:space="preserve" font-family="Helvetica-Light,Helvetica" font-size="74.4" fill="#FEFFFF" transform="matrix(1.00, 0.00, -0.00, -1.00, 115.3, 640.1)">W</text><text xml:space="preserve" font-family="Helvetica-Light,Helvetica" font-size="74.4" fill="#FEFFFF" transform="matrix(1.00, 0.00, -0.00, -1.00, 180.1, 640.1)">e</text><text xml:space="preserve" font-family="Helvetica-Light,Helvetica" font-size="74.4" fill="#FEFFFF" transform="matrix(1.00, 0.00, -0.00, -1.00, 221.5, 640.1)"> </text><text xml:space="preserve" font-family="Helvetica-Light,Helvetica" font-size="74.4" fill="#FEFFFF" transform="matrix(1.00, 0.00, -0.00, -1.00, 242.2, 640.1)">u</text><text xml:space="preserve" font-family="Helvetica-Light,Helvetica" font-size="74.4" fill="#FEFFFF" transform="matrix(1.00, 0.00, -0.00, -1.00, 283.6, 640.1)">s</text><text xml:space="preserve" font-family="Helvetica-Light,Helvetica" font-size="74.4" fill="#FEFFFF" transform="matrix(1.00, 0.00, -0.00, -1.00, 320.8, 640.1)">e</text><text xml:space="preserve" font-family="Helvetica-Light,Helvetica" font-size="74.4" fill="#FEFFFF" transform="matrix(1.00, 0.00, -0.00, -1.00, 362.1, 640.1)"> </text><text xml:space="preserve" font-family="Helvetica-Light,Helvetica" font-size="74.4" fill="#FEFFFF" transform="matrix(1.00, 0.00, -0.00, -1.00, 382.8, 640.1)">m</text><text xml:space="preserve" font-family="Helvetica-Light,Helvetica" font-size="74.4" fill="#FEFFFF" transform="matrix(1.00, 0.00, -0.00, -1.00, 444.8, 640.1)">e</text><text xml:space="preserve" font-family="Helvetica-Light,Helvetica" font-size="74.4" fill="#FEFFFF" transform="matrix(1.00, 0.00, -0.00, -1.00, 486.2, 640.1)">n</text><text xml:space="preserve" font-family="Helvetica-Light,Helvetica" font-size="74.4" fill="#FEFFFF" transform="matrix(1.00, 0.00, -0.00, -1.00, 527.5, 640.1)">t</text><text xml:space="preserve" font-family="Helvetica-Light,Helvetica" font-size="74.4" fill="#FEFFFF" transform="matrix(1.00, 0.00, -0.00, -1.00, 548.2, 640.1)">a</text><text xml:space="preserve" font-family="Helvetica-Light,Helvetica" font-size="74.4" fill="#FEFFFF" transform="matrix(1.00, 0.00, -0.00, -1.00, 589.6, 640.1)">l</text><text xml:space="preserve" font-family="Helvetica-Light,Helvetica" font-size="74.4" fill="#FEFFFF" transform="matrix(1.00, 0.00, -0.00, -1.00, 606.1, 640.1)"> </text><text xml:space="preserve" font-family="Helvetica-Light,Helvetica" font-size="74.4" fill="#FEFFFF" transform="matrix(1.00, 0.00, -0.00, -1.00, 626.8, 640.1)">m</text><text xml:space="preserve" font-family="Helvetica-Light,Helvetica" font-size="74.4" fill="#FEFFFF" transform="matrix(1.00, 0.00, -0.00, -1.00, 688.7, 640.1)">o</text><text xml:space="preserve" font-family="Helvetica-Light,Helvetica" font-size="74.4" fill="#FEFFFF" transform="matrix(1.00, 0.00, -0.00, -1.00, 730.1, 640.1)">d</text><text xml:space="preserve" font-family="Helvetica-Light,Helvetica" font-size="74.4" fill="#FEFFFF" transform="matrix(1.00, 0.00, -0.00, -1.00, 775.6, 640.1)">e</text><text xml:space="preserve" font-family="Helvetica-Light,Helvetica" font-size="74.4" fill="#FEFFFF" transform="matrix(1.00, 0.00, -0.00, -1.00, 816.9, 640.1)">l</text><text xml:space="preserve" font-family="Helvetica-Light,Helvetica" font-size="74.4" fill="#FEFFFF" transform="matrix(1.00, 0.00, -0.00, -1.00, 833.5, 640.1)">s</text><text xml:space="preserve" font-family="Helvetica-Light,Helvetica" font-size="74.4" fill="#FEFFFF" transform="matrix(1.00, 0.00, -0.00, -1.00, 870.7, 640.1)"> </text><text xml:space="preserve" font-family="Helvetica-Light,Helvetica" font-size="74.4" fill="#FEFFFF" transform="matrix(1.00, 0.00, -0.00, -1.00, 85.7, 551.1)">t</text><text xml:space="preserve" font-family="Helvetica-Light,Helvetica" font-size="74.4" fill="#FEFFFF" transform="matrix(1.00, 0.00, -0.00, -1.00, 106.4, 551.1)">o</text><text xml:space="preserve" font-family="Helvetica-Light,Helvetica" font-size="74.4" fill="#FEFFFF" transform="matrix(1.00, 0.00, -0.00, -1.00, 147.8, 551.1)"> </text><text xml:space="preserve" font-family="Helvetica-Light,Helvetica" font-size="74.4" fill="#FEFFFF" transform="matrix(1.00, 0.00, -0.00, -1.00, 168.5, 551.1)">u</text><text xml:space="preserve" font-family="Helvetica-Light,Helvetica" font-size="74.4" fill="#FEFFFF" transform="matrix(1.00, 0.00, -0.00, -1.00, 209.8, 551.1)">n</text><text xml:space="preserve" font-family="Helvetica-Light,Helvetica" font-size="74.4" fill="#FEFFFF" transform="matrix(1.00, 0.00, -0.00, -1.00, 251.2, 551.1)">d</text><text xml:space="preserve" font-family="Helvetica-Light,Helvetica" font-size="74.4" fill="#FEFFFF" transform="matrix(1.00, 0.00, -0.00, -1.00, 296.7, 551.1)">e</text><text xml:space="preserve" font-family="Helvetica-Light,Helvetica" font-size="74.4" fill="#FEFFFF" transform="matrix(1.00, 0.00, -0.00, -1.00, 338.0, 551.1)">r</text><text xml:space="preserve" font-family="Helvetica-Light,Helvetica" font-size="74.4" fill="#FEFFFF" transform="matrix(1.00, 0.00, -0.00, -1.00, 362.8, 551.1)">s</text><text xml:space="preserve" font-family="Helvetica-Light,Helvetica" font-size="74.4" fill="#FEFFFF" transform="matrix(1.00, 0.00, -0.00, -1.00, 400.0, 551.1)">t</text><text xml:space="preserve" font-family="Helvetica-Light,Helvetica" font-size="74.4" fill="#FEFFFF" transform="matrix(1.00, 0.00, -0.00, -1.00, 420.7, 551.1)">a</text><text xml:space="preserve" font-family="Helvetica-Light,Helvetica" font-size="74.4" fill="#FEFFFF" transform="matrix(1.00, 0.00, -0.00, -1.00, 462.0, 551.1)">n</text><text xml:space="preserve" font-family="Helvetica-Light,Helvetica" font-size="74.4" fill="#FEFFFF" transform="matrix(1.00, 0.00, -0.00, -1.00, 503.4, 551.1)">d</text><text xml:space="preserve" font-family="Helvetica-Light,Helvetica" font-size="74.4" fill="#FEFFFF" transform="matrix(1.00, 0.00, -0.00, -1.00, 548.9, 551.1)"> </text><text xml:space="preserve" font-family="Helvetica-Light,Helvetica" font-size="74.4" fill="#FEFFFF" transform="matrix(1.00, 0.00, -0.00, -1.00, 569.6, 551.1)">o</text><text xml:space="preserve" font-family="Helvetica-Light,Helvetica" font-size="74.4" fill="#FEFFFF" transform="matrix(1.00, 0.00, -0.00, -1.00, 610.9, 551.1)">u</text><text xml:space="preserve" font-family="Helvetica-Light,Helvetica" font-size="74.4" fill="#FEFFFF" transform="matrix(1.00, 0.00, -0.00, -1.00, 652.3, 551.1)">r</text><text xml:space="preserve" font-family="Helvetica-Light,Helvetica" font-size="74.4" fill="#FEFFFF" transform="matrix(1.00, 0.00, -0.00, -1.00, 677.1, 551.1)"> </text><text xml:space="preserve" font-family="Helvetica-Light,Helvetica" font-size="74.4" fill="#FEFFFF" transform="matrix(1.00, 0.00, -0.00, -1.00, 697.7, 551.1)">w</text><text xml:space="preserve" font-family="Helvetica-Light,Helvetica" font-size="74.4" fill="#FEFFFF" transform="matrix(1.00, 0.00, -0.00, -1.00, 751.5, 551.1)">o</text><text xml:space="preserve" font-family="Helvetica-Light,Helvetica" font-size="74.4" fill="#FEFFFF" transform="matrix(1.00, 0.00, -0.00, -1.00, 792.8, 551.1)">r</text><text xml:space="preserve" font-family="Helvetica-Light,Helvetica" font-size="74.4" fill="#FEFFFF" transform="matrix(1.00, 0.00, -0.00, -1.00, 817.6, 551.1)">l</text><text xml:space="preserve" font-family="Helvetica-Light,Helvetica" font-size="74.4" fill="#FEFFFF" transform="matrix(1.00, 0.00, -0.00, -1.00, 834.1, 551.1)">d</text><text xml:space="preserve" font-family="Helvetica-Light,Helvetica" font-size="74.4" fill="#FEFFFF" transform="matrix(1.00, 0.00, -0.00, -1.00, 879.6, 551.1)">.</text><g><clipPath id="clip0x6180004bd520"><path d="M 278.0 420.0 L 731.0 420.0 L 731.0 142.0 L 278.0 142.0 Z M 278.0 419.5 "></path></clipPath><g clip-path="url(#clip0x6180004bd520)"><image xlink:href="8A3B374B815BE77B82405A1BEB18DC91.png" width="453.00" height="278.00" transform="matrix(1.00, 0.00, -0.00, -1.00, 278.0, 419.5)"></image></g></g></g></svg>